<svg width="400" height="140" viewBox="0 0 400 140" fill="none" xmlns="http://www.w3.org/2000/svg">
<rect x="0.5" y="0.5" width="399" height="139" rx="11.5" stroke="url(#paint0_linear_1_6)"/>
<path d="M14.8285 30H12.3569L16.1229 19.0909H19.0952L22.8558 30H20.3842L17.6516 21.5838H17.5664L14.8285 30ZM14.674 25.712H20.5121V27.5124H14.674V25.712ZM24.1689 30V19.0909H28.5368C29.3393 19.0909 30.0087 19.2099 30.5449 19.4478C31.0811 19.6857 31.4842 20.016 31.7541 20.4386C32.024 20.8576 32.1589 21.3406 32.1589 21.8874C32.1589 22.3136 32.0737 22.6882 31.9032 23.0114C31.7328 23.331 31.4984 23.5937 31.2001 23.7997C30.9054 24.0021 30.568 24.146 30.188 24.2312V24.3377C30.6035 24.3555 30.9924 24.4727 31.3546 24.6893C31.7203 24.9059 32.0169 25.2095 32.2441 25.6001C32.4714 25.9872 32.5851 26.4489 32.5851 26.9851C32.5851 27.5639 32.4412 28.0806 32.1536 28.5352C31.8695 28.9862 31.4487 29.343 30.8912 29.6058C30.3336 29.8686 29.6465 30 28.8297 30H24.1689ZM26.4753 28.1143H28.3556C28.9984 28.1143 29.4672 27.9918 29.7619 27.7468C30.0566 27.4982 30.204 27.168 30.204 26.756C30.204 26.4542 30.1312 26.1879 29.9856 25.957C29.84 25.7262 29.6323 25.5451 29.3624 25.4137C29.0961 25.2823 28.7782 25.2166 28.4089 25.2166H26.4753V28.1143ZM26.4753 23.6559H28.1852C28.5012 23.6559 28.7818 23.6009 29.0268 23.4908C29.2754 23.3771 29.4707 23.2173 29.6127 23.0114C29.7583 22.8054 29.8311 22.5586 29.8311 22.271C29.8311 21.8768 29.6909 21.5589 29.4103 21.3175C29.1333 21.076 28.7392 20.9553 28.2278 20.9553H26.4753V23.6559ZM44.1107 24.5455C44.1107 25.7351 43.8852 26.7472 43.4342 27.5817C42.9868 28.4162 42.376 29.0536 41.6018 29.494C40.8312 29.9308 39.9648 30.1491 39.0024 30.1491C38.0329 30.1491 37.1629 29.929 36.3923 29.4886C35.6217 29.0483 35.0127 28.4109 34.5653 27.5763C34.1178 26.7418 33.8941 25.7315 33.8941 24.5455C33.8941 23.3558 34.1178 22.3438 34.5653 21.5092C35.0127 20.6747 35.6217 20.0391 36.3923 19.6023C37.1629 19.1619 38.0329 18.9418 39.0024 18.9418C39.9648 18.9418 40.8312 19.1619 41.6018 19.6023C42.376 20.0391 42.9868 20.6747 43.4342 21.5092C43.8852 22.3438 44.1107 23.3558 44.1107 24.5455ZM41.7723 24.5455C41.7723 23.7749 41.6569 23.125 41.426 22.5959C41.1988 22.0668 40.8774 21.6655 40.4619 21.392C40.0464 21.1186 39.5599 20.9819 39.0024 20.9819C38.4449 20.9819 37.9584 21.1186 37.5429 21.392C37.1274 21.6655 36.8042 22.0668 36.5734 22.5959C36.3461 23.125 36.2325 23.7749 36.2325 24.5455C36.2325 25.3161 36.3461 25.9659 36.5734 26.495C36.8042 27.0241 37.1274 27.4254 37.5429 27.6989C37.9584 27.9723 38.4449 28.109 39.0024 28.109C39.5599 28.109 40.0464 27.9723 40.4619 27.6989C40.8774 27.4254 41.1988 27.0241 41.426 26.495C41.6569 25.9659 41.7723 25.3161 41.7723 24.5455ZM52.5575 19.0909H54.864V26.1754C54.864 26.9709 54.674 27.6669 54.294 28.2635C53.9176 28.8601 53.3903 29.3253 52.712 29.6591C52.0337 29.9893 51.2436 30.1545 50.3416 30.1545C49.4361 30.1545 48.6442 29.9893 47.9659 29.6591C47.2876 29.3253 46.7603 28.8601 46.3839 28.2635C46.0075 27.6669 45.8192 26.9709 45.8192 26.1754V19.0909H48.1257V25.9783C48.1257 26.3938 48.2163 26.7631 48.3974 27.0863C48.582 27.4094 48.8413 27.6634 49.1751 27.848C49.5089 28.0327 49.8977 28.125 50.3416 28.125C50.7891 28.125 51.1779 28.0327 51.5082 27.848C51.842 27.6634 52.0994 27.4094 52.2805 27.0863C52.4652 26.7631 52.5575 26.3938 52.5575 25.9783V19.0909ZM56.3461 20.9925V19.0909H65.3057V20.9925H61.9658V30H59.686V20.9925H56.3461Z" fill="white"/>
<path d="M13.1985 57V46.0909H19.9634V47.5078H14.8445V50.8317H19.4787V52.2433H14.8445V57H13.1985ZM21.7572 57V48.8182H23.2966V50.1179H23.3818C23.531 49.6776 23.7938 49.3313 24.1702 49.0792C24.5502 48.8235 24.9798 48.6957 25.4593 48.6957C25.5587 48.6957 25.6759 48.6992 25.8108 48.7063C25.9493 48.7134 26.0576 48.7223 26.1357 48.733V50.2564C26.0718 50.2386 25.9582 50.2191 25.7948 50.1978C25.6315 50.1729 25.4681 50.1605 25.3048 50.1605C24.9284 50.1605 24.5928 50.2404 24.298 50.4002C24.0068 50.5565 23.776 50.7749 23.6056 51.0554C23.4351 51.3324 23.3499 51.6484 23.3499 52.0036V57H21.7572ZM30.6674 57.1651C29.9004 57.1651 29.231 56.9893 28.6593 56.6378C28.0875 56.2862 27.6436 55.7944 27.3276 55.1623C27.0115 54.5302 26.8535 53.7915 26.8535 52.9464C26.8535 52.0977 27.0115 51.3555 27.3276 50.7198C27.6436 50.0842 28.0875 49.5906 28.6593 49.239C29.231 48.8874 29.9004 48.7116 30.6674 48.7116C31.4345 48.7116 32.1039 48.8874 32.6756 49.239C33.2473 49.5906 33.6912 50.0842 34.0073 50.7198C34.3233 51.3555 34.4814 52.0977 34.4814 52.9464C34.4814 53.7915 34.3233 54.5302 34.0073 55.1623C33.6912 55.7944 33.2473 56.2862 32.6756 56.6378C32.1039 56.9893 31.4345 57.1651 30.6674 57.1651ZM30.6728 55.8281C31.1699 55.8281 31.5819 55.6967 31.9086 55.4339C32.2353 55.1712 32.4767 54.8214 32.633 54.3846C32.7928 53.9478 32.8727 53.4666 32.8727 52.9411C32.8727 52.419 32.7928 51.9396 32.633 51.5028C32.4767 51.0625 32.2353 50.7092 31.9086 50.4428C31.5819 50.1765 31.1699 50.0433 30.6728 50.0433C30.1721 50.0433 29.7566 50.1765 29.4263 50.4428C29.0996 50.7092 28.8564 51.0625 28.6966 51.5028C28.5403 51.9396 28.4622 52.419 28.4622 52.9411C28.4622 53.4666 28.5403 53.9478 28.6966 54.3846C28.8564 54.8214 29.0996 55.1712 29.4263 55.4339C29.7566 55.6967 30.1721 55.8281 30.6728 55.8281ZM37.8518 52.142V57H36.2591V48.8182H37.7879V50.1499H37.8891C38.0773 49.7166 38.3721 49.3686 38.7733 49.1058C39.1782 48.843 39.6878 48.7116 40.3021 48.7116C40.8596 48.7116 41.3479 48.8288 41.767 49.0632C42.186 49.294 42.5109 49.6385 42.7417 50.0966C42.9726 50.5547 43.088 51.1211 43.088 51.7958V57H41.4953V51.9876C41.4953 51.3945 41.3408 50.9311 41.0319 50.5973C40.7229 50.2599 40.2986 50.0913 39.7588 50.0913C39.3895 50.0913 39.061 50.1712 38.7733 50.331C38.4893 50.4908 38.2638 50.7251 38.0969 51.0341C37.9335 51.3395 37.8518 51.7088 37.8518 52.142ZM49.0432 48.8182V50.0966H44.5741V48.8182H49.0432ZM45.7726 46.858H47.3653V54.5977C47.3653 54.9066 47.4115 55.1392 47.5038 55.2955C47.5961 55.4482 47.7151 55.5529 47.8607 55.6097C48.0099 55.663 48.1714 55.6896 48.3454 55.6896C48.4733 55.6896 48.5851 55.6808 48.681 55.663C48.7769 55.6452 48.8515 55.631 48.9047 55.6204L49.1924 56.9361C49.1001 56.9716 48.9687 57.0071 48.7982 57.0426C48.6278 57.0817 48.4147 57.103 48.159 57.1065C47.74 57.1136 47.3493 57.0391 46.9871 56.8828C46.6249 56.7266 46.3319 56.4851 46.1082 56.1584C45.8845 55.8317 45.7726 55.4215 45.7726 54.9279V46.858ZM54.2434 57.1651C53.4373 57.1651 52.7431 56.9929 52.1607 56.6484C51.5819 56.3004 51.1344 55.8121 50.8184 55.1836C50.5059 54.5515 50.3496 53.8111 50.3496 52.9624C50.3496 52.1243 50.5059 51.3857 50.8184 50.7464C51.1344 50.1072 51.5748 49.6083 52.1394 49.2496C52.7076 48.891 53.3716 48.7116 54.1316 48.7116C54.5932 48.7116 55.0407 48.788 55.4739 48.9407C55.9071 49.0934 56.296 49.3331 56.6404 49.6598C56.9849 49.9865 57.2566 50.4109 57.4554 50.9329C57.6543 51.4513 57.7537 52.0817 57.7537 52.8239V53.3885H51.2498V52.1953H56.193C56.193 51.7763 56.1078 51.4052 55.9373 51.082C55.7669 50.7553 55.5272 50.4979 55.2182 50.3097C54.9128 50.1214 54.5542 50.0273 54.1422 50.0273C53.6948 50.0273 53.3042 50.1374 52.9703 50.3576C52.6401 50.5742 52.3844 50.8583 52.2033 51.2099C52.0257 51.5579 51.937 51.9361 51.937 52.3445V53.2766C51.937 53.8235 52.0328 54.2887 52.2246 54.6722C52.4199 55.0558 52.6916 55.3487 53.0396 55.5511C53.3876 55.75 53.7942 55.8494 54.2594 55.8494C54.5613 55.8494 54.8365 55.8068 55.085 55.7216C55.3336 55.6328 55.5485 55.5014 55.7296 55.3274C55.9107 55.1534 56.0492 54.9386 56.1451 54.6829L57.6525 54.9545C57.5318 55.3984 57.3152 55.7873 57.0027 56.1211C56.6937 56.4513 56.3049 56.7088 55.8361 56.8935C55.3709 57.0746 54.84 57.1651 54.2434 57.1651ZM61.1135 52.142V57H59.5209V48.8182H61.0496V50.1499H61.1508C61.339 49.7166 61.6338 49.3686 62.0351 49.1058C62.4399 48.843 62.9495 48.7116 63.5638 48.7116C64.1214 48.7116 64.6096 48.8288 65.0287 49.0632C65.4477 49.294 65.7726 49.6385 66.0035 50.0966C66.2343 50.5547 66.3497 51.1211 66.3497 51.7958V57H64.757V51.9876C64.757 51.3945 64.6025 50.9311 64.2936 50.5973C63.9846 50.2599 63.5603 50.0913 63.0205 50.0913C62.6512 50.0913 62.3227 50.1712 62.0351 50.331C61.751 50.4908 61.5255 50.7251 61.3586 51.0341C61.1952 51.3395 61.1135 51.7088 61.1135 52.142ZM71.5486 57.1598C70.8881 57.1598 70.2986 56.9911 69.7801 56.6538C69.2652 56.3129 68.8604 55.8281 68.5656 55.1996C68.2744 54.5675 68.1288 53.8093 68.1288 52.9251C68.1288 52.0408 68.2762 51.2844 68.5709 50.6559C68.8692 50.0273 69.2776 49.5462 69.7961 49.2124C70.3145 48.8786 70.9023 48.7116 71.5592 48.7116C72.067 48.7116 72.4754 48.7969 72.7844 48.9673C73.0969 49.1342 73.3383 49.3295 73.5088 49.5533C73.6828 49.777 73.8177 49.9741 73.9136 50.1445H74.0095V46.0909H75.6022V57H74.0468V55.7269H73.9136C73.8177 55.9009 73.6792 56.0998 73.4981 56.3235C73.3206 56.5472 73.0756 56.7425 72.7631 56.9094C72.4506 57.0763 72.0457 57.1598 71.5486 57.1598ZM71.9001 55.8015C72.3582 55.8015 72.7453 55.6808 73.0613 55.4393C73.3809 55.1942 73.6224 54.8551 73.7858 54.4219C73.9527 53.9886 74.0361 53.4844 74.0361 52.9091C74.0361 52.3409 73.9545 51.8437 73.7911 51.4176C73.6278 50.9915 73.3881 50.6594 73.072 50.4215C72.7559 50.1836 72.3653 50.0646 71.9001 50.0646C71.4207 50.0646 71.0212 50.1889 70.7016 50.4375C70.382 50.6861 70.1405 51.0252 69.9772 51.4549C69.8174 51.8846 69.7375 52.3693 69.7375 52.9091C69.7375 53.456 69.8192 53.9478 69.9825 54.3846C70.1459 54.8214 70.3873 55.1676 70.7069 55.4233C71.0301 55.6754 71.4278 55.8015 71.9001 55.8015ZM84.9079 57.1598C84.2474 57.1598 83.6579 56.9911 83.1395 56.6538C82.6246 56.3129 82.2197 55.8281 81.925 55.1996C81.6338 54.5675 81.4882 53.8093 81.4882 52.9251C81.4882 52.0408 81.6356 51.2844 81.9303 50.6559C82.2286 50.0273 82.637 49.5462 83.1555 49.2124C83.6739 48.8786 84.2616 48.7116 84.9186 48.7116C85.4264 48.7116 85.8348 48.7969 86.1437 48.9673C86.4562 49.1342 86.6977 49.3295 86.8682 49.5533C87.0422 49.777 87.1771 49.9741 87.273 50.1445H87.3689V46.0909H88.9616V57H87.4062V55.7269H87.273C87.1771 55.9009 87.0386 56.0998 86.8575 56.3235C86.68 56.5472 86.4349 56.7425 86.1224 56.9094C85.8099 57.0763 85.4051 57.1598 84.9079 57.1598ZM85.2595 55.8015C85.7176 55.8015 86.1047 55.6808 86.4207 55.4393C86.7403 55.1942 86.9818 54.8551 87.1452 54.4219C87.3121 53.9886 87.3955 53.4844 87.3955 52.9091C87.3955 52.3409 87.3138 51.8437 87.1505 51.4176C86.9871 50.9915 86.7474 50.6594 86.4314 50.4215C86.1153 50.1836 85.7247 50.0646 85.2595 50.0646C84.7801 50.0646 84.3806 50.1889 84.061 50.4375C83.7414 50.6861 83.4999 51.0252 83.3366 51.4549C83.1768 51.8846 83.0969 52.3693 83.0969 52.9091C83.0969 53.456 83.1785 53.9478 83.3419 54.3846C83.5052 54.8214 83.7467 55.1676 84.0663 55.4233C84.3895 55.6754 84.7872 55.8015 85.2595 55.8015ZM94.761 57.1651C93.9549 57.1651 93.2607 56.9929 92.6783 56.6484C92.0994 56.3004 91.652 55.8121 91.3359 55.1836C91.0234 54.5515 90.8672 53.8111 90.8672 52.9624C90.8672 52.1243 91.0234 51.3857 91.3359 50.7464C91.652 50.1072 92.0923 49.6083 92.657 49.2496C93.2251 48.891 93.8892 48.7116 94.6491 48.7116C95.1108 48.7116 95.5582 48.788 95.9915 48.9407C96.4247 49.0934 96.8136 49.3331 97.158 49.6598C97.5025 49.9865 97.7741 50.4109 97.973 50.9329C98.1719 51.4513 98.2713 52.0817 98.2713 52.8239V53.3885H91.7674V52.1953H96.7106C96.7106 51.7763 96.6254 51.4052 96.4549 51.082C96.2844 50.7553 96.0447 50.4979 95.7358 50.3097C95.4304 50.1214 95.0717 50.0273 94.6598 50.0273C94.2124 50.0273 93.8217 50.1374 93.4879 50.3576C93.1577 50.5742 92.902 50.8583 92.7209 51.2099C92.5433 51.5579 92.4545 51.9361 92.4545 52.3445V53.2766C92.4545 53.8235 92.5504 54.2887 92.7422 54.6722C92.9375 55.0558 93.2092 55.3487 93.5572 55.5511C93.9052 55.75 94.3118 55.8494 94.777 55.8494C95.0788 55.8494 95.354 55.8068 95.6026 55.7216C95.8512 55.6328 96.0661 55.5014 96.2472 55.3274C96.4283 55.1534 96.5668 54.9386 96.6626 54.6829L98.1701 54.9545C98.0494 55.3984 97.8327 55.7873 97.5202 56.1211C97.2113 56.4513 96.8224 56.7088 96.3537 56.8935C95.8885 57.0746 95.3576 57.1651 94.761 57.1651ZM106.803 48.8182L103.836 57H102.132L99.1595 48.8182H100.869L102.941 55.1143H103.027L105.093 48.8182H106.803ZM111.548 57.1651C110.742 57.1651 110.048 56.9929 109.465 56.6484C108.887 56.3004 108.439 55.8121 108.123 55.1836C107.811 54.5515 107.654 53.8111 107.654 52.9624C107.654 52.1243 107.811 51.3857 108.123 50.7464C108.439 50.1072 108.879 49.6083 109.444 49.2496C110.012 48.891 110.676 48.7116 111.436 48.7116C111.898 48.7116 112.345 48.788 112.779 48.9407C113.212 49.0934 113.601 49.3331 113.945 49.6598C114.29 49.9865 114.561 50.4109 114.76 50.9329C114.959 51.4513 115.058 52.0817 115.058 52.8239V53.3885H108.555V52.1953H113.498C113.498 51.7763 113.412 51.4052 113.242 51.082C113.072 50.7553 112.832 50.4979 112.523 50.3097C112.218 50.1214 111.859 50.0273 111.447 50.0273C110.999 50.0273 110.609 50.1374 110.275 50.3576C109.945 50.5742 109.689 50.8583 109.508 51.2099C109.33 51.5579 109.242 51.9361 109.242 52.3445V53.2766C109.242 53.8235 109.338 54.2887 109.529 54.6722C109.725 55.0558 109.996 55.3487 110.344 55.5511C110.692 55.75 111.099 55.8494 111.564 55.8494C111.866 55.8494 112.141 55.8068 112.39 55.7216C112.638 55.6328 112.853 55.5014 113.034 55.3274C113.215 55.1534 113.354 54.9386 113.45 54.6829L114.957 54.9545C114.836 55.3984 114.62 55.7873 114.307 56.1211C113.998 56.4513 113.61 56.7088 113.141 56.8935C112.676 57.0746 112.145 57.1651 111.548 57.1651ZM118.418 46.0909V57H116.826V46.0909H118.418ZM124.007 57.1651C123.24 57.1651 122.571 56.9893 121.999 56.6378C121.427 56.2862 120.983 55.7944 120.667 55.1623C120.351 54.5302 120.193 53.7915 120.193 52.9464C120.193 52.0977 120.351 51.3555 120.667 50.7198C120.983 50.0842 121.427 49.5906 121.999 49.239C122.571 48.8874 123.24 48.7116 124.007 48.7116C124.774 48.7116 125.444 48.8874 126.015 49.239C126.587 49.5906 127.031 50.0842 127.347 50.7198C127.663 51.3555 127.821 52.0977 127.821 52.9464C127.821 53.7915 127.663 54.5302 127.347 55.1623C127.031 55.7944 126.587 56.2862 126.015 56.6378C125.444 56.9893 124.774 57.1651 124.007 57.1651ZM124.013 55.8281C124.51 55.8281 124.922 55.6967 125.248 55.4339C125.575 55.1712 125.817 54.8214 125.973 54.3846C126.133 53.9478 126.213 53.4666 126.213 52.9411C126.213 52.419 126.133 51.9396 125.973 51.5028C125.817 51.0625 125.575 50.7092 125.248 50.4428C124.922 50.1765 124.51 50.0433 124.013 50.0433C123.512 50.0433 123.096 50.1765 122.766 50.4428C122.439 50.7092 122.196 51.0625 122.036 51.5028C121.88 51.9396 121.802 52.419 121.802 52.9411C121.802 53.4666 121.88 53.9478 122.036 54.3846C122.196 54.8214 122.439 55.1712 122.766 55.4339C123.096 55.6967 123.512 55.8281 124.013 55.8281ZM129.599 60.0682V48.8182H131.154V50.1445H131.288C131.38 49.9741 131.513 49.777 131.687 49.5533C131.861 49.3295 132.103 49.1342 132.411 48.9673C132.72 48.7969 133.129 48.7116 133.637 48.7116C134.297 48.7116 134.887 48.8786 135.405 49.2124C135.924 49.5462 136.33 50.0273 136.625 50.6559C136.923 51.2844 137.072 52.0408 137.072 52.9251C137.072 53.8093 136.925 54.5675 136.63 55.1996C136.335 55.8281 135.931 56.3129 135.416 56.6538C134.901 56.9911 134.313 57.1598 133.653 57.1598C133.155 57.1598 132.749 57.0763 132.433 56.9094C132.12 56.7425 131.875 56.5472 131.698 56.3235C131.52 56.0998 131.383 55.9009 131.288 55.7269H131.192V60.0682H129.599ZM131.16 52.9091C131.16 53.4844 131.243 53.9886 131.41 54.4219C131.577 54.8551 131.818 55.1942 132.134 55.4393C132.451 55.6808 132.838 55.8015 133.296 55.8015C133.772 55.8015 134.169 55.6754 134.489 55.4233C134.809 55.1676 135.05 54.8214 135.213 54.3846C135.38 53.9478 135.464 53.456 135.464 52.9091C135.464 52.3693 135.382 51.8846 135.219 51.4549C135.059 51.0252 134.817 50.6861 134.494 50.4375C134.175 50.1889 133.775 50.0646 133.296 50.0646C132.834 50.0646 132.443 50.1836 132.124 50.4215C131.808 50.6594 131.568 50.9915 131.405 51.4176C131.241 51.8437 131.16 52.3409 131.16 52.9091ZM142.383 57.1651C141.577 57.1651 140.883 56.9929 140.3 56.6484C139.722 56.3004 139.274 55.8121 138.958 55.1836C138.646 54.5515 138.489 53.8111 138.489 52.9624C138.489 52.1243 138.646 51.3857 138.958 50.7464C139.274 50.1072 139.714 49.6083 140.279 49.2496C140.847 48.891 141.511 48.7116 142.271 48.7116C142.733 48.7116 143.18 48.788 143.614 48.9407C144.047 49.0934 144.436 49.3331 144.78 49.6598C145.125 49.9865 145.396 50.4109 145.595 50.9329C145.794 51.4513 145.893 52.0817 145.893 52.8239V53.3885H139.389V52.1953H144.333C144.333 51.7763 144.247 51.4052 144.077 51.082C143.907 50.7553 143.667 50.4979 143.358 50.3097C143.052 50.1214 142.694 50.0273 142.282 50.0273C141.834 50.0273 141.444 50.1374 141.11 50.3576C140.78 50.5742 140.524 50.8583 140.343 51.2099C140.165 51.5579 140.077 51.9361 140.077 52.3445V53.2766C140.077 53.8235 140.172 54.2887 140.364 54.6722C140.56 55.0558 140.831 55.3487 141.179 55.5511C141.527 55.75 141.934 55.8494 142.399 55.8494C142.701 55.8494 142.976 55.8068 143.225 55.7216C143.473 55.6328 143.688 55.5014 143.869 55.3274C144.05 55.1534 144.189 54.9386 144.285 54.6829L145.792 54.9545C145.671 55.3984 145.455 55.7873 145.142 56.1211C144.833 56.4513 144.445 56.7088 143.976 56.8935C143.511 57.0746 142.98 57.1651 142.383 57.1651ZM147.661 57V48.8182H149.2V50.1179H149.285C149.434 49.6776 149.697 49.3313 150.074 49.0792C150.453 48.8235 150.883 48.6957 151.363 48.6957C151.462 48.6957 151.579 48.6992 151.714 48.7063C151.853 48.7134 151.961 48.7223 152.039 48.733V50.2564C151.975 50.2386 151.862 50.2191 151.698 50.1978C151.535 50.1729 151.371 50.1605 151.208 50.1605C150.832 50.1605 150.496 50.2404 150.201 50.4002C149.91 50.5565 149.679 50.7749 149.509 51.0554C149.338 51.3324 149.253 51.6484 149.253 52.0036V57H147.661ZM157.515 57V46.0909H159.108V50.1445H159.203C159.296 49.9741 159.429 49.777 159.603 49.5533C159.777 49.3295 160.018 49.1342 160.327 48.9673C160.636 48.7969 161.045 48.7116 161.553 48.7116C162.213 48.7116 162.803 48.8786 163.321 49.2124C163.839 49.5462 164.246 50.0273 164.541 50.6559C164.839 51.2844 164.988 52.0408 164.988 52.9251C164.988 53.8093 164.841 54.5675 164.546 55.1996C164.251 55.8281 163.847 56.3129 163.332 56.6538C162.817 56.9911 162.229 57.1598 161.569 57.1598C161.071 57.1598 160.665 57.0763 160.349 56.9094C160.036 56.7425 159.791 56.5472 159.614 56.3235C159.436 56.0998 159.299 55.9009 159.203 55.7269H159.07V57H157.515ZM159.076 52.9091C159.076 53.4844 159.159 53.9886 159.326 54.4219C159.493 54.8551 159.734 55.1942 160.05 55.4393C160.366 55.6808 160.754 55.8015 161.212 55.8015C161.688 55.8015 162.085 55.6754 162.405 55.4233C162.724 55.1676 162.966 54.8214 163.129 54.3846C163.296 53.9478 163.38 53.456 163.38 52.9091C163.38 52.3693 163.298 51.8846 163.135 51.4549C162.975 51.0252 162.733 50.6861 162.41 50.4375C162.091 50.1889 161.691 50.0646 161.212 50.0646C160.75 50.0646 160.359 50.1836 160.04 50.4215C159.724 50.6594 159.484 50.9915 159.321 51.4176C159.157 51.8437 159.076 52.3409 159.076 52.9091ZM171.96 53.6069V48.8182H173.558V57H171.992V55.5831H171.906C171.718 56.0199 171.416 56.3839 171.001 56.6751C170.589 56.9627 170.076 57.1065 169.461 57.1065C168.936 57.1065 168.471 56.9911 168.066 56.7603C167.665 56.5259 167.348 56.1797 167.118 55.7216C166.89 55.2635 166.777 54.6971 166.777 54.0224V48.8182H168.369V53.8306C168.369 54.3881 168.524 54.832 168.833 55.1623C169.142 55.4925 169.543 55.6577 170.037 55.6577C170.335 55.6577 170.631 55.5831 170.926 55.4339C171.225 55.2848 171.471 55.0593 171.667 54.7575C171.866 54.4556 171.963 54.0721 171.96 53.6069ZM175.698 57V48.8182H177.29V57H175.698ZM176.502 47.5558C176.225 47.5558 175.987 47.4634 175.788 47.2788C175.593 47.0906 175.495 46.8668 175.495 46.6076C175.495 46.3448 175.593 46.1211 175.788 45.9364C175.987 45.7482 176.225 45.6541 176.502 45.6541C176.779 45.6541 177.015 45.7482 177.21 45.9364C177.409 46.1211 177.509 46.3448 177.509 46.6076C177.509 46.8668 177.409 47.0906 177.21 47.2788C177.015 47.4634 176.779 47.5558 176.502 47.5558ZM181.026 46.0909V57H179.433V46.0909H181.026ZM186.231 57.1598C185.571 57.1598 184.981 56.9911 184.463 56.6538C183.948 56.3129 183.543 55.8281 183.248 55.1996C182.957 54.5675 182.811 53.8093 182.811 52.9251C182.811 52.0408 182.959 51.2844 183.254 50.6559C183.552 50.0273 183.96 49.5462 184.479 49.2124C184.997 48.8786 185.585 48.7116 186.242 48.7116C186.75 48.7116 187.158 48.7969 187.467 48.9673C187.779 49.1342 188.021 49.3295 188.191 49.5533C188.365 49.777 188.5 49.9741 188.596 50.1445H188.692V46.0909H190.285V57H188.729V55.7269H188.596C188.5 55.9009 188.362 56.0998 188.181 56.3235C188.003 56.5472 187.758 56.7425 187.446 56.9094C187.133 57.0763 186.728 57.1598 186.231 57.1598ZM186.583 55.8015C187.041 55.8015 187.428 55.6808 187.744 55.4393C188.064 55.1942 188.305 54.8551 188.468 54.4219C188.635 53.9886 188.719 53.4844 188.719 52.9091C188.719 52.3409 188.637 51.8437 188.474 51.4176C188.31 50.9915 188.071 50.6594 187.755 50.4215C187.439 50.1836 187.048 50.0646 186.583 50.0646C186.103 50.0646 185.704 50.1889 185.384 50.4375C185.065 50.6861 184.823 51.0252 184.66 51.4549C184.5 51.8846 184.42 52.3693 184.42 52.9091C184.42 53.456 184.502 53.9478 184.665 54.3846C184.828 54.8214 185.07 55.1676 185.39 55.4233C185.713 55.6754 186.11 55.8015 186.583 55.8015ZM192.558 57V48.8182H194.151V57H192.558ZM193.362 47.5558C193.085 47.5558 192.847 47.4634 192.649 47.2788C192.453 47.0906 192.356 46.8668 192.356 46.6076C192.356 46.3448 192.453 46.1211 192.649 45.9364C192.847 45.7482 193.085 45.6541 193.362 45.6541C193.639 45.6541 193.875 45.7482 194.071 45.9364C194.27 46.1211 194.369 46.3448 194.369 46.6076C194.369 46.8668 194.27 47.0906 194.071 47.2788C193.875 47.4634 193.639 47.5558 193.362 47.5558ZM197.886 52.142V57H196.293V48.8182H197.822V50.1499H197.923C198.112 49.7166 198.406 49.3686 198.808 49.1058C199.212 48.843 199.722 48.7116 200.336 48.7116C200.894 48.7116 201.382 48.8288 201.801 49.0632C202.22 49.294 202.545 49.6385 202.776 50.0966C203.007 50.5547 203.122 51.1211 203.122 51.7958V57H201.529V51.9876C201.529 51.3945 201.375 50.9311 201.066 50.5973C200.757 50.2599 200.333 50.0913 199.793 50.0913C199.424 50.0913 199.095 50.1712 198.808 50.331C198.523 50.4908 198.298 50.7251 198.131 51.0341C197.968 51.3395 197.886 51.7088 197.886 52.142ZM208.689 60.2386C208.039 60.2386 207.479 60.1534 207.011 59.983C206.545 59.8125 206.165 59.587 205.871 59.3065C205.576 59.0259 205.356 58.7188 205.21 58.3849L206.579 57.8203C206.675 57.9766 206.803 58.1417 206.963 58.3157C207.126 58.4933 207.346 58.6442 207.623 58.7685C207.904 58.8928 208.264 58.9549 208.705 58.9549C209.308 58.9549 209.807 58.8075 210.201 58.5128C210.596 58.2216 210.793 57.7564 210.793 57.1172V55.5085H210.691C210.596 55.6825 210.457 55.8761 210.276 56.0891C210.098 56.3022 209.853 56.4869 209.541 56.6431C209.228 56.7994 208.822 56.8775 208.321 56.8775C207.675 56.8775 207.092 56.7266 206.574 56.4247C206.059 56.1193 205.651 55.6701 205.349 55.0771C205.05 54.4805 204.901 53.7472 204.901 52.8771C204.901 52.0071 205.049 51.2614 205.343 50.6399C205.642 50.0185 206.05 49.5426 206.569 49.2124C207.087 48.8786 207.675 48.7116 208.332 48.7116C208.839 48.7116 209.25 48.7969 209.562 48.9673C209.875 49.1342 210.118 49.3295 210.292 49.5533C210.469 49.777 210.606 49.9741 210.702 50.1445H210.819V48.8182H212.38V57.1811C212.38 57.8842 212.217 58.4613 211.89 58.9123C211.563 59.3633 211.121 59.6971 210.564 59.9137C210.01 60.1303 209.385 60.2386 208.689 60.2386ZM208.673 55.5565C209.131 55.5565 209.518 55.4499 209.834 55.2369C210.153 55.0202 210.395 54.7113 210.558 54.31C210.725 53.9052 210.809 53.4205 210.809 52.8558C210.809 52.3054 210.727 51.8207 210.564 51.4016C210.4 50.9826 210.161 50.6559 209.844 50.4215C209.528 50.1836 209.138 50.0646 208.673 50.0646C208.193 50.0646 207.794 50.1889 207.474 50.4375C207.154 50.6825 206.913 51.0163 206.75 51.4389C206.59 51.8615 206.51 52.3338 206.51 52.8558C206.51 53.392 206.592 53.8626 206.755 54.2674C206.918 54.6722 207.16 54.9883 207.479 55.2156C207.803 55.4428 208.2 55.5565 208.673 55.5565ZM221.932 57.1651C221.14 57.1651 220.458 56.9858 219.887 56.6271C219.318 56.2649 218.882 55.766 218.576 55.1303C218.271 54.4947 218.118 53.7667 218.118 52.9464C218.118 52.1154 218.274 51.3821 218.587 50.7464C218.899 50.1072 219.34 49.6083 219.908 49.2496C220.476 48.891 221.146 48.7116 221.916 48.7116C222.538 48.7116 223.092 48.8271 223.578 49.0579C224.065 49.2852 224.457 49.6048 224.755 50.0167C225.057 50.4286 225.236 50.9098 225.293 51.4602H223.743C223.658 51.0767 223.463 50.7464 223.157 50.4695C222.855 50.1925 222.451 50.054 221.943 50.054C221.499 50.054 221.11 50.1712 220.776 50.4055C220.446 50.6364 220.188 50.9666 220.004 51.3963C219.819 51.8224 219.727 52.3267 219.727 52.9091C219.727 53.5057 219.817 54.0206 219.998 54.4538C220.18 54.8871 220.435 55.2227 220.766 55.4606C221.099 55.6985 221.492 55.8175 221.943 55.8175C222.245 55.8175 222.518 55.7624 222.763 55.6523C223.012 55.5387 223.219 55.3771 223.386 55.1676C223.557 54.9581 223.676 54.706 223.743 54.4112H225.293C225.236 54.9403 225.064 55.4126 224.777 55.8281C224.489 56.2436 224.104 56.5703 223.621 56.8082C223.141 57.0462 222.578 57.1651 221.932 57.1651ZM228.589 46.0909V57H226.996V46.0909H228.589ZM234.258 57.1651C233.452 57.1651 232.758 56.9929 232.175 56.6484C231.597 56.3004 231.149 55.8121 230.833 55.1836C230.521 54.5515 230.364 53.8111 230.364 52.9624C230.364 52.1243 230.521 51.3857 230.833 50.7464C231.149 50.1072 231.589 49.6083 232.154 49.2496C232.722 48.891 233.386 48.7116 234.146 48.7116C234.608 48.7116 235.055 48.788 235.489 48.9407C235.922 49.0934 236.311 49.3331 236.655 49.6598C237 49.9865 237.271 50.4109 237.47 50.9329C237.669 51.4513 237.768 52.0817 237.768 52.8239V53.3885H231.264V52.1953H236.208C236.208 51.7763 236.122 51.4052 235.952 51.082C235.782 50.7553 235.542 50.4979 235.233 50.3097C234.927 50.1214 234.569 50.0273 234.157 50.0273C233.709 50.0273 233.319 50.1374 232.985 50.3576C232.655 50.5742 232.399 50.8583 232.218 51.2099C232.04 51.5579 231.952 51.9361 231.952 52.3445V53.2766C231.952 53.8235 232.047 54.2887 232.239 54.6722C232.435 55.0558 232.706 55.3487 233.054 55.5511C233.402 55.75 233.809 55.8494 234.274 55.8494C234.576 55.8494 234.851 55.8068 235.1 55.7216C235.348 55.6328 235.563 55.5014 235.744 55.3274C235.925 55.1534 236.064 54.9386 236.16 54.6829L237.667 54.9545C237.546 55.3984 237.33 55.7873 237.017 56.1211C236.708 56.4513 236.32 56.7088 235.851 56.8935C235.386 57.0746 234.855 57.1651 234.258 57.1651ZM241.917 57.1811C241.398 57.1811 240.929 57.0852 240.51 56.8935C240.091 56.6982 239.759 56.4158 239.514 56.0465C239.273 55.6772 239.152 55.2244 239.152 54.6882C239.152 54.2266 239.241 53.8466 239.418 53.5483C239.596 53.25 239.836 53.0138 240.137 52.8398C240.439 52.6658 240.777 52.5344 241.15 52.4457C241.522 52.3569 241.902 52.2894 242.289 52.2433C242.779 52.1864 243.177 52.1403 243.483 52.1048C243.788 52.0657 244.01 52.0036 244.148 51.9183C244.287 51.8331 244.356 51.6946 244.356 51.5028V51.4656C244.356 51.0004 244.225 50.6399 243.962 50.3842C243.703 50.1286 243.316 50.0007 242.801 50.0007C242.265 50.0007 241.842 50.1197 241.533 50.3576C241.228 50.592 241.016 50.853 240.899 51.1406L239.402 50.7997C239.58 50.3026 239.839 49.9013 240.18 49.5959C240.525 49.2869 240.92 49.0632 241.368 48.9247C241.815 48.7827 242.286 48.7116 242.779 48.7116C243.106 48.7116 243.452 48.7507 243.818 48.8288C244.188 48.9034 244.532 49.0419 244.852 49.2443C245.175 49.4467 245.439 49.7362 245.645 50.1126C245.851 50.4854 245.954 50.9702 245.954 51.5668V57H244.399V55.8814H244.335C244.232 56.0874 244.077 56.2898 243.871 56.4886C243.665 56.6875 243.401 56.8526 243.078 56.984C242.755 57.1154 242.368 57.1811 241.917 57.1811ZM242.263 55.9027C242.703 55.9027 243.08 55.8157 243.392 55.6417C243.708 55.4677 243.948 55.2404 244.111 54.9599C244.278 54.6758 244.362 54.3722 244.362 54.049V52.9943C244.305 53.0511 244.195 53.1044 244.031 53.1541C243.871 53.2003 243.689 53.2411 243.483 53.2766C243.277 53.3086 243.076 53.3388 242.881 53.3672C242.685 53.392 242.522 53.4134 242.391 53.4311C242.082 53.4702 241.799 53.5359 241.544 53.6282C241.292 53.7205 241.089 53.8537 240.936 54.0277C240.787 54.1982 240.713 54.4254 240.713 54.7095C240.713 55.1037 240.858 55.402 241.15 55.6044C241.441 55.8033 241.812 55.9027 242.263 55.9027ZM249.668 52.142V57H248.076V48.8182H249.604V50.1499H249.706C249.894 49.7166 250.188 49.3686 250.59 49.1058C250.995 48.843 251.504 48.7116 252.119 48.7116C252.676 48.7116 253.164 48.8288 253.583 49.0632C254.002 49.294 254.327 49.6385 254.558 50.0966C254.789 50.5547 254.904 51.1211 254.904 51.7958V57H253.312V51.9876C253.312 51.3945 253.157 50.9311 252.848 50.5973C252.539 50.2599 252.115 50.0913 251.575 50.0913C251.206 50.0913 250.877 50.1712 250.59 50.331C250.306 50.4908 250.08 50.7251 249.913 51.0341C249.75 51.3395 249.668 51.7088 249.668 52.142ZM263.391 57.1811C262.873 57.1811 262.404 57.0852 261.985 56.8935C261.566 56.6982 261.234 56.4158 260.989 56.0465C260.747 55.6772 260.627 55.2244 260.627 54.6882C260.627 54.2266 260.715 53.8466 260.893 53.5483C261.07 53.25 261.31 53.0138 261.612 52.8398C261.914 52.6658 262.251 52.5344 262.624 52.4457C262.997 52.3569 263.377 52.2894 263.764 52.2433C264.254 52.1864 264.652 52.1403 264.957 52.1048C265.263 52.0657 265.485 52.0036 265.623 51.9183C265.762 51.8331 265.831 51.6946 265.831 51.5028V51.4656C265.831 51.0004 265.699 50.6399 265.437 50.3842C265.177 50.1286 264.79 50.0007 264.275 50.0007C263.739 50.0007 263.317 50.1197 263.008 50.3576C262.702 50.592 262.491 50.853 262.374 51.1406L260.877 50.7997C261.055 50.3026 261.314 49.9013 261.655 49.5959C261.999 49.2869 262.395 49.0632 262.843 48.9247C263.29 48.7827 263.76 48.7116 264.254 48.7116C264.581 48.7116 264.927 48.7507 265.293 48.8288C265.662 48.9034 266.007 49.0419 266.326 49.2443C266.649 49.4467 266.914 49.7362 267.12 50.1126C267.326 50.4854 267.429 50.9702 267.429 51.5668V57H265.873V55.8814H265.809C265.706 56.0874 265.552 56.2898 265.346 56.4886C265.14 56.6875 264.876 56.8526 264.552 56.984C264.229 57.1154 263.842 57.1811 263.391 57.1811ZM263.737 55.9027C264.178 55.9027 264.554 55.8157 264.867 55.6417C265.183 55.4677 265.422 55.2404 265.586 54.9599C265.753 54.6758 265.836 54.3722 265.836 54.049V52.9943C265.779 53.0511 265.669 53.1044 265.506 53.1541C265.346 53.2003 265.163 53.2411 264.957 53.2766C264.751 53.3086 264.551 53.3388 264.355 53.3672C264.16 53.392 263.997 53.4134 263.865 53.4311C263.556 53.4702 263.274 53.5359 263.018 53.6282C262.766 53.7205 262.564 53.8537 262.411 54.0277C262.262 54.1982 262.187 54.4254 262.187 54.7095C262.187 55.1037 262.333 55.402 262.624 55.6044C262.915 55.8033 263.286 55.9027 263.737 55.9027ZM271.143 52.142V57H269.55V48.8182H271.079V50.1499H271.18C271.368 49.7166 271.663 49.3686 272.064 49.1058C272.469 48.843 272.979 48.7116 273.593 48.7116C274.151 48.7116 274.639 48.8288 275.058 49.0632C275.477 49.294 275.802 49.6385 276.033 50.0966C276.264 50.5547 276.379 51.1211 276.379 51.7958V57H274.786V51.9876C274.786 51.3945 274.632 50.9311 274.323 50.5973C274.014 50.2599 273.59 50.0913 273.05 50.0913C272.68 50.0913 272.352 50.1712 272.064 50.331C271.78 50.4908 271.555 50.7251 271.388 51.0341C271.225 51.3395 271.143 51.7088 271.143 52.142ZM281.578 57.1598C280.917 57.1598 280.328 56.9911 279.809 56.6538C279.294 56.3129 278.89 55.8281 278.595 55.1996C278.304 54.5675 278.158 53.8093 278.158 52.9251C278.158 52.0408 278.305 51.2844 278.6 50.6559C278.899 50.0273 279.307 49.5462 279.825 49.2124C280.344 48.8786 280.932 48.7116 281.589 48.7116C282.096 48.7116 282.505 48.7969 282.814 48.9673C283.126 49.1342 283.368 49.3295 283.538 49.5533C283.712 49.777 283.847 49.9741 283.943 50.1445H284.039V46.0909H285.631V57H284.076V55.7269H283.943C283.847 55.9009 283.709 56.0998 283.527 56.3235C283.35 56.5472 283.105 56.7425 282.792 56.9094C282.48 57.0763 282.075 57.1598 281.578 57.1598ZM281.929 55.8015C282.388 55.8015 282.775 55.6808 283.091 55.4393C283.41 55.1942 283.652 54.8551 283.815 54.4219C283.982 53.9886 284.065 53.4844 284.065 52.9091C284.065 52.3409 283.984 51.8437 283.82 51.4176C283.657 50.9915 283.417 50.6594 283.101 50.4215C282.785 50.1836 282.395 50.0646 281.929 50.0646C281.45 50.0646 281.051 50.1889 280.731 50.4375C280.411 50.6861 280.17 51.0252 280.006 51.4549C279.847 51.8846 279.767 52.3693 279.767 52.9091C279.767 53.456 279.848 53.9478 280.012 54.3846C280.175 54.8214 280.417 55.1676 280.736 55.4233C281.059 55.6754 281.457 55.8015 281.929 55.8015ZM297.057 53.6069V48.8182H298.655V57H297.089V55.5831H297.004C296.816 56.0199 296.514 56.3839 296.098 56.6751C295.687 56.9627 295.173 57.1065 294.559 57.1065C294.033 57.1065 293.568 56.9911 293.163 56.7603C292.762 56.5259 292.446 56.1797 292.215 55.7216C291.988 55.2635 291.874 54.6971 291.874 54.0224V48.8182H293.467V53.8306C293.467 54.3881 293.622 54.832 293.93 55.1623C294.239 55.4925 294.641 55.6577 295.134 55.6577C295.433 55.6577 295.729 55.5831 296.024 55.4339C296.322 55.2848 296.569 55.0593 296.764 54.7575C296.963 54.4556 297.061 54.0721 297.057 53.6069ZM306.926 50.8157L305.483 51.0714C305.422 50.8867 305.327 50.7109 305.195 50.544C305.067 50.3771 304.893 50.2404 304.673 50.1339C304.453 50.0273 304.178 49.9741 303.847 49.9741C303.396 49.9741 303.02 50.0753 302.718 50.2777C302.416 50.4766 302.265 50.734 302.265 51.0501C302.265 51.3235 302.367 51.5437 302.569 51.7106C302.771 51.8775 303.098 52.0142 303.549 52.1207L304.849 52.419C305.602 52.593 306.163 52.8612 306.532 53.2234C306.901 53.5856 307.086 54.0561 307.086 54.6349C307.086 55.125 306.944 55.5618 306.66 55.9453C306.379 56.3253 305.987 56.6236 305.483 56.8402C304.982 57.0568 304.401 57.1651 303.741 57.1651C302.825 57.1651 302.077 56.9698 301.498 56.5792C300.92 56.185 300.564 55.6257 300.433 54.9013L301.972 54.6669C302.068 55.0682 302.265 55.3718 302.564 55.5778C302.862 55.7802 303.251 55.8814 303.73 55.8814C304.252 55.8814 304.67 55.7731 304.982 55.5565C305.295 55.3363 305.451 55.0682 305.451 54.7521C305.451 54.4964 305.355 54.2816 305.163 54.1076C304.975 53.9336 304.686 53.8022 304.295 53.7134L302.91 53.4098C302.146 53.2358 301.582 52.9588 301.216 52.5788C300.854 52.1989 300.673 51.7177 300.673 51.1353C300.673 50.6523 300.808 50.2298 301.078 49.8675C301.347 49.5053 301.72 49.223 302.196 49.0206C302.672 48.8146 303.217 48.7116 303.831 48.7116C304.716 48.7116 305.412 48.9034 305.92 49.2869C306.427 49.6669 306.763 50.1765 306.926 50.8157ZM312.364 57.1651C311.557 57.1651 310.863 56.9929 310.281 56.6484C309.702 56.3004 309.255 55.8121 308.938 55.1836C308.626 54.5515 308.47 53.8111 308.47 52.9624C308.47 52.1243 308.626 51.3857 308.938 50.7464C309.255 50.1072 309.695 49.6083 310.259 49.2496C310.828 48.891 311.492 48.7116 312.252 48.7116C312.713 48.7116 313.161 48.788 313.594 48.9407C314.027 49.0934 314.416 49.3331 314.761 49.6598C315.105 49.9865 315.377 50.4109 315.576 50.9329C315.774 51.4513 315.874 52.0817 315.874 52.8239V53.3885H309.37V52.1953H314.313C314.313 51.7763 314.228 51.4052 314.057 51.082C313.887 50.7553 313.647 50.4979 313.338 50.3097C313.033 50.1214 312.674 50.0273 312.262 50.0273C311.815 50.0273 311.424 50.1374 311.09 50.3576C310.76 50.5742 310.505 50.8583 310.323 51.2099C310.146 51.5579 310.057 51.9361 310.057 52.3445V53.2766C310.057 53.8235 310.153 54.2887 310.345 54.6722C310.54 55.0558 310.812 55.3487 311.16 55.5511C311.508 55.75 311.914 55.8494 312.38 55.8494C312.681 55.8494 312.957 55.8068 313.205 55.7216C313.454 55.6328 313.669 55.5014 313.85 55.3274C314.031 55.1534 314.169 54.9386 314.265 54.6829L315.773 54.9545C315.652 55.3984 315.435 55.7873 315.123 56.1211C314.814 56.4513 314.425 56.7088 313.956 56.8935C313.491 57.0746 312.96 57.1651 312.364 57.1651ZM317.641 57V48.8182H319.18V50.1179H319.266C319.415 49.6776 319.678 49.3313 320.054 49.0792C320.434 48.8235 320.864 48.6957 321.343 48.6957C321.442 48.6957 321.56 48.6992 321.695 48.7063C321.833 48.7134 321.941 48.7223 322.02 48.733V50.2564C321.956 50.2386 321.842 50.2191 321.679 50.1978C321.515 50.1729 321.352 50.1605 321.189 50.1605C320.812 50.1605 320.477 50.2404 320.182 50.4002C319.891 50.5565 319.66 50.7749 319.489 51.0554C319.319 51.3324 319.234 51.6484 319.234 52.0036V57H317.641ZM327.735 51.6999V53.0795H322.898V51.6999H327.735ZM333.752 48.8182V50.0966H329.128V48.8182H333.752ZM330.396 57V47.87C330.396 47.3587 330.508 46.9343 330.731 46.5969C330.955 46.256 331.252 46.0021 331.621 45.8352C331.99 45.6648 332.392 45.5795 332.825 45.5795C333.144 45.5795 333.418 45.6062 333.645 45.6594C333.872 45.7092 334.041 45.7553 334.151 45.7979L333.778 47.087C333.704 47.0657 333.608 47.0408 333.491 47.0124C333.373 46.9805 333.231 46.9645 333.064 46.9645C332.677 46.9645 332.4 47.0604 332.233 47.2521C332.07 47.4439 331.988 47.7209 331.988 48.0831V57H330.396ZM335.395 57V48.8182H336.934V50.1179H337.02C337.169 49.6776 337.431 49.3313 337.808 49.0792C338.188 48.8235 338.618 48.6957 339.097 48.6957C339.196 48.6957 339.314 48.6992 339.449 48.7063C339.587 48.7134 339.695 48.7223 339.773 48.733V50.2564C339.71 50.2386 339.596 50.2191 339.433 50.1978C339.269 50.1729 339.106 50.1605 338.942 50.1605C338.566 50.1605 338.23 50.2404 337.936 50.4002C337.645 50.5565 337.414 50.7749 337.243 51.0554C337.073 51.3324 336.988 51.6484 336.988 52.0036V57H335.395ZM341.152 57V48.8182H342.744V57H341.152ZM341.956 47.5558C341.679 47.5558 341.441 47.4634 341.242 47.2788C341.047 47.0906 340.949 46.8668 340.949 46.6076C340.949 46.3448 341.047 46.1211 341.242 45.9364C341.441 45.7482 341.679 45.6541 341.956 45.6541C342.233 45.6541 342.469 45.7482 342.665 45.9364C342.863 46.1211 342.963 46.3448 342.963 46.6076C342.963 46.8668 342.863 47.0906 342.665 47.2788C342.469 47.4634 342.233 47.5558 341.956 47.5558ZM348.413 57.1651C347.607 57.1651 346.913 56.9929 346.331 56.6484C345.752 56.3004 345.304 55.8121 344.988 55.1836C344.676 54.5515 344.52 53.8111 344.52 52.9624C344.52 52.1243 344.676 51.3857 344.988 50.7464C345.304 50.1072 345.745 49.6083 346.309 49.2496C346.877 48.891 347.542 48.7116 348.301 48.7116C348.763 48.7116 349.211 48.788 349.644 48.9407C350.077 49.0934 350.466 49.3331 350.81 49.6598C351.155 49.9865 351.426 50.4109 351.625 50.9329C351.824 51.4513 351.924 52.0817 351.924 52.8239V53.3885H345.42V52.1953H350.363C350.363 51.7763 350.278 51.4052 350.107 51.082C349.937 50.7553 349.697 50.4979 349.388 50.3097C349.083 50.1214 348.724 50.0273 348.312 50.0273C347.865 50.0273 347.474 50.1374 347.14 50.3576C346.81 50.5742 346.554 50.8583 346.373 51.2099C346.196 51.5579 346.107 51.9361 346.107 52.3445V53.2766C346.107 53.8235 346.203 54.2887 346.395 54.6722C346.59 55.0558 346.862 55.3487 347.21 55.5511C347.558 55.75 347.964 55.8494 348.429 55.8494C348.731 55.8494 349.006 55.8068 349.255 55.7216C349.504 55.6328 349.718 55.5014 349.9 55.3274C350.081 55.1534 350.219 54.9386 350.315 54.6829L351.822 54.9545C351.702 55.3984 351.485 55.7873 351.173 56.1211C350.864 56.4513 350.475 56.7088 350.006 56.8935C349.541 57.0746 349.01 57.1651 348.413 57.1651ZM355.283 52.142V57H353.691V48.8182H355.22V50.1499H355.321C355.509 49.7166 355.804 49.3686 356.205 49.1058C356.61 48.843 357.119 48.7116 357.734 48.7116C358.291 48.7116 358.78 48.8288 359.199 49.0632C359.618 49.294 359.943 49.6385 360.173 50.0966C360.404 50.5547 360.52 51.1211 360.52 51.7958V57H358.927V51.9876C358.927 51.3945 358.772 50.9311 358.464 50.5973C358.155 50.2599 357.73 50.0913 357.19 50.0913C356.821 50.0913 356.493 50.1712 356.205 50.331C355.921 50.4908 355.695 50.7251 355.528 51.0341C355.365 51.3395 355.283 51.7088 355.283 52.142ZM365.718 57.1598C365.058 57.1598 364.468 56.9911 363.95 56.6538C363.435 56.3129 363.03 55.8281 362.736 55.1996C362.444 54.5675 362.299 53.8093 362.299 52.9251C362.299 52.0408 362.446 51.2844 362.741 50.6559C363.039 50.0273 363.448 49.5462 363.966 49.2124C364.484 48.8786 365.072 48.7116 365.729 48.7116C366.237 48.7116 366.645 48.7969 366.954 48.9673C367.267 49.1342 367.508 49.3295 367.679 49.5533C367.853 49.777 367.988 49.9741 368.084 50.1445H368.179V46.0909H369.772V57H368.217V55.7269H368.084C367.988 55.9009 367.849 56.0998 367.668 56.3235C367.491 56.5472 367.245 56.7425 366.933 56.9094C366.62 57.0763 366.216 57.1598 365.718 57.1598ZM366.07 55.8015C366.528 55.8015 366.915 55.6808 367.231 55.4393C367.551 55.1942 367.792 54.8551 367.956 54.4219C368.123 53.9886 368.206 53.4844 368.206 52.9091C368.206 52.3409 368.124 51.8437 367.961 51.4176C367.798 50.9915 367.558 50.6594 367.242 50.4215C366.926 50.1836 366.535 50.0646 366.07 50.0646C365.591 50.0646 365.191 50.1889 364.872 50.4375C364.552 50.6861 364.31 51.0252 364.147 51.4549C363.987 51.8846 363.907 52.3693 363.907 52.9091C363.907 53.456 363.989 53.9478 364.152 54.3846C364.316 54.8214 364.557 55.1676 364.877 55.4233C365.2 55.6754 365.598 55.8015 366.07 55.8015ZM373.638 46.0909V57H372.045V46.0909H373.638ZM376.787 60.0682C376.549 60.0682 376.333 60.0487 376.138 60.0096C375.942 59.9741 375.797 59.935 375.701 59.8924L376.084 58.5874C376.375 58.6655 376.635 58.6992 376.862 58.6886C377.089 58.6779 377.29 58.5927 377.464 58.4329C377.641 58.2731 377.798 58.0121 377.933 57.6499L378.13 57.1065L375.136 48.8182H376.841L378.913 55.1676H378.998L381.07 48.8182H382.78L379.408 58.092C379.252 58.5181 379.053 58.8786 378.812 59.1733C378.57 59.4716 378.282 59.6953 377.949 59.8445C377.615 59.9936 377.228 60.0682 376.787 60.0682ZM13.0707 80V71.8182H14.6634V80H13.0707ZM13.875 70.5558C13.598 70.5558 13.3601 70.4634 13.1612 70.2788C12.9659 70.0906 12.8683 69.8668 12.8683 69.6076C12.8683 69.3448 12.9659 69.1211 13.1612 68.9364C13.3601 68.7482 13.598 68.6541 13.875 68.6541C14.152 68.6541 14.3881 68.7482 14.5835 68.9364C14.7823 69.1211 14.8817 69.3448 14.8817 69.6076C14.8817 69.8668 14.7823 70.0906 14.5835 70.2788C14.3881 70.4634 14.152 70.5558 13.875 70.5558ZM18.3987 75.142V80H16.806V71.8182H18.3348V73.1499H18.436C18.6242 72.7166 18.9189 72.3686 19.3202 72.1058C19.7251 71.843 20.2346 71.7116 20.849 71.7116C21.4065 71.7116 21.8948 71.8288 22.3138 72.0632C22.7329 72.294 23.0578 72.6385 23.2886 73.0966C23.5194 73.5547 23.6349 74.1211 23.6349 74.7958V80H22.0422V74.9876C22.0422 74.3945 21.8877 73.9311 21.5787 73.5973C21.2698 73.2599 20.8454 73.0913 20.3057 73.0913C19.9363 73.0913 19.6079 73.1712 19.3202 73.331C19.0361 73.4908 18.8106 73.7251 18.6437 74.0341C18.4804 74.3395 18.3987 74.7088 18.3987 75.142ZM29.5901 71.8182V73.0966H25.121V71.8182H29.5901ZM26.3195 69.858H27.9122V77.5977C27.9122 77.9066 27.9584 78.1392 28.0507 78.2955C28.143 78.4482 28.262 78.5529 28.4076 78.6097C28.5567 78.663 28.7183 78.6896 28.8923 78.6896C29.0202 78.6896 29.132 78.6808 29.2279 78.663C29.3238 78.6452 29.3983 78.631 29.4516 78.6204L29.7393 79.9361C29.6469 79.9716 29.5155 80.0071 29.3451 80.0426C29.1746 80.0817 28.9616 80.103 28.7059 80.1065C28.2868 80.1136 27.8962 80.0391 27.534 79.8828C27.1718 79.7266 26.8788 79.4851 26.6551 79.1584C26.4314 78.8317 26.3195 78.4215 26.3195 77.9279V69.858ZM34.7903 80.1651C33.9842 80.1651 33.29 79.9929 32.7076 79.6484C32.1287 79.3004 31.6813 78.8121 31.3652 78.1836C31.0527 77.5515 30.8965 76.8111 30.8965 75.9624C30.8965 75.1243 31.0527 74.3857 31.3652 73.7464C31.6813 73.1072 32.1216 72.6083 32.6863 72.2496C33.2544 71.891 33.9185 71.7116 34.6784 71.7116C35.1401 71.7116 35.5875 71.788 36.0208 71.9407C36.454 72.0934 36.8429 72.3331 37.1873 72.6598C37.5318 72.9865 37.8034 73.4109 38.0023 73.9329C38.2012 74.4513 38.3006 75.0817 38.3006 75.8239V76.3885H31.7967V75.1953H36.7399C36.7399 74.7763 36.6547 74.4052 36.4842 74.082C36.3137 73.7553 36.074 73.4979 35.7651 73.3097C35.4597 73.1214 35.101 73.0273 34.6891 73.0273C34.2417 73.0273 33.851 73.1374 33.5172 73.3576C33.187 73.5742 32.9313 73.8583 32.7502 74.2099C32.5726 74.5579 32.4838 74.9361 32.4838 75.3445V76.2766C32.4838 76.8235 32.5797 77.2887 32.7715 77.6722C32.9668 78.0558 33.2385 78.3487 33.5865 78.5511C33.9345 78.75 34.3411 78.8494 34.8063 78.8494C35.1081 78.8494 35.3833 78.8068 35.6319 78.7216C35.8805 78.6328 36.0953 78.5014 36.2765 78.3274C36.4576 78.1534 36.5961 77.9386 36.6919 77.6829L38.1994 77.9545C38.0787 78.3984 37.862 78.7873 37.5495 79.1211C37.2406 79.4513 36.8517 79.7088 36.383 79.8935C35.9178 80.0746 35.3869 80.1651 34.7903 80.1651ZM40.0677 80V71.8182H41.6072V73.1179H41.6924C41.8415 72.6776 42.1043 72.3313 42.4807 72.0792C42.8607 71.8235 43.2904 71.6957 43.7698 71.6957C43.8692 71.6957 43.9864 71.6992 44.1214 71.7063C44.2599 71.7134 44.3682 71.7223 44.4463 71.733V73.2564C44.3824 73.2386 44.2687 73.2191 44.1054 73.1978C43.942 73.1729 43.7787 73.1605 43.6153 73.1605C43.2389 73.1605 42.9033 73.2404 42.6086 73.4002C42.3174 73.5565 42.0866 73.7749 41.9161 74.0554C41.7456 74.3324 41.6604 74.6484 41.6604 75.0036V80H40.0677ZM50.2018 71.8182V73.0966H45.5782V71.8182H50.2018ZM46.846 80V70.87C46.846 70.3587 46.9578 69.9343 47.1816 69.5969C47.4053 69.256 47.7018 69.0021 48.0711 68.8352C48.4404 68.6648 48.8417 68.5795 49.2749 68.5795C49.5945 68.5795 49.868 68.6062 50.0953 68.6594C50.3225 68.7092 50.4912 68.7553 50.6013 68.7979L50.2284 70.087C50.1539 70.0657 50.058 70.0408 49.9408 70.0124C49.8236 69.9805 49.6816 69.9645 49.5146 69.9645C49.1276 69.9645 48.8506 70.0604 48.6837 70.2521C48.5203 70.4439 48.4387 70.7209 48.4387 71.0831V80H46.846ZM53.9771 80.1811C53.4586 80.1811 52.9899 80.0852 52.5708 79.8935C52.1518 79.6982 51.8198 79.4158 51.5748 79.0465C51.3333 78.6772 51.2125 78.2244 51.2125 77.6882C51.2125 77.2266 51.3013 76.8466 51.4789 76.5483C51.6564 76.25 51.8961 76.0138 52.198 75.8398C52.4998 75.6658 52.8372 75.5344 53.21 75.4457C53.5829 75.3569 53.9629 75.2894 54.35 75.2433C54.84 75.1864 55.2377 75.1403 55.5431 75.1048C55.8485 75.0657 56.0705 75.0036 56.209 74.9183C56.3475 74.8331 56.4167 74.6946 56.4167 74.5028V74.4656C56.4167 74.0004 56.2853 73.6399 56.0225 73.3842C55.7633 73.1286 55.3762 73.0007 54.8613 73.0007C54.3251 73.0007 53.9025 73.1197 53.5936 73.3576C53.2882 73.592 53.0769 73.853 52.9597 74.1406L51.4629 73.7997C51.6404 73.3026 51.8997 72.9013 52.2406 72.5959C52.585 72.2869 52.981 72.0632 53.4284 71.9247C53.8759 71.7827 54.3464 71.7116 54.84 71.7116C55.1667 71.7116 55.513 71.7507 55.8787 71.8288C56.248 71.9034 56.5925 72.0419 56.9121 72.2443C57.2353 72.4467 57.4998 72.7362 57.7058 73.1126C57.9118 73.4854 58.0147 73.9702 58.0147 74.5668V80H56.4593V78.8814H56.3954C56.2924 79.0874 56.138 79.2898 55.932 79.4886C55.726 79.6875 55.4615 79.8526 55.1383 79.984C54.8152 80.1154 54.4281 80.1811 53.9771 80.1811ZM54.3233 78.9027C54.7637 78.9027 55.1401 78.8157 55.4526 78.6417C55.7686 78.4677 56.0083 78.2404 56.1717 77.9599C56.3386 77.6758 56.4221 77.3722 56.4221 77.049V75.9943C56.3652 76.0511 56.2551 76.1044 56.0918 76.1541C55.932 76.2003 55.7491 76.2411 55.5431 76.2766C55.3372 76.3086 55.1365 76.3388 54.9412 76.3672C54.7459 76.392 54.5826 76.4134 54.4512 76.4311C54.1422 76.4702 53.8599 76.5359 53.6042 76.6282C53.3521 76.7205 53.1497 76.8537 52.997 77.0277C52.8478 77.1982 52.7733 77.4254 52.7733 77.7095C52.7733 78.1037 52.9189 78.402 53.21 78.6044C53.5012 78.8033 53.8723 78.9027 54.3233 78.9027ZM63.5825 80.1651C62.7906 80.1651 62.1088 79.9858 61.537 79.6271C60.9688 79.2649 60.532 78.766 60.2267 78.1303C59.9213 77.4947 59.7686 76.7667 59.7686 75.9464C59.7686 75.1154 59.9248 74.3821 60.2373 73.7464C60.5498 73.1072 60.9901 72.6083 61.5583 72.2496C62.1265 71.891 62.7959 71.7116 63.5665 71.7116C64.1879 71.7116 64.7419 71.8271 65.2284 72.0579C65.7149 72.2852 66.1073 72.6048 66.4056 73.0167C66.7075 73.4286 66.8868 73.9098 66.9436 74.4602H65.3936C65.3083 74.0767 65.113 73.7464 64.8076 73.4695C64.5058 73.1925 64.1009 73.054 63.5931 73.054C63.1492 73.054 62.7604 73.1712 62.4266 73.4055C62.0963 73.6364 61.8389 73.9666 61.6542 74.3963C61.4695 74.8224 61.3772 75.3267 61.3772 75.9091C61.3772 76.5057 61.4678 77.0206 61.6489 77.4538C61.83 77.8871 62.0857 78.2227 62.4159 78.4606C62.7497 78.6985 63.1421 78.8175 63.5931 78.8175C63.895 78.8175 64.1684 78.7624 64.4134 78.6523C64.662 78.5387 64.8698 78.3771 65.0367 78.1676C65.2071 77.9581 65.3261 77.706 65.3936 77.4112H66.9436C66.8868 77.9403 66.7146 78.4126 66.4269 78.8281C66.1393 79.2436 65.754 79.5703 65.271 79.8082C64.7916 80.0462 64.2288 80.1651 63.5825 80.1651ZM72.1731 80.1651C71.367 80.1651 70.6728 79.9929 70.0904 79.6484C69.5115 79.3004 69.0641 78.8121 68.748 78.1836C68.4355 77.5515 68.2793 76.8111 68.2793 75.9624C68.2793 75.1243 68.4355 74.3857 68.748 73.7464C69.0641 73.1072 69.5044 72.6083 70.0691 72.2496C70.6373 71.891 71.3013 71.7116 72.0613 71.7116C72.5229 71.7116 72.9703 71.788 73.4036 71.9407C73.8368 72.0934 74.2257 72.3331 74.5701 72.6598C74.9146 72.9865 75.1863 73.4109 75.3851 73.9329C75.584 74.4513 75.6834 75.0817 75.6834 75.8239V76.3885H69.1795V75.1953H74.1227C74.1227 74.7763 74.0375 74.4052 73.867 74.082C73.6966 73.7553 73.4569 73.4979 73.1479 73.3097C72.8425 73.1214 72.4838 73.0273 72.0719 73.0273C71.6245 73.0273 71.2338 73.1374 70.9 73.3576C70.5698 73.5742 70.3141 73.8583 70.133 74.2099C69.9554 74.5579 69.8667 74.9361 69.8667 75.3445V76.2766C69.8667 76.8235 69.9625 77.2887 70.1543 77.6722C70.3496 78.0558 70.6213 78.3487 70.9693 78.5511C71.3173 78.75 71.7239 78.8494 72.1891 78.8494C72.4909 78.8494 72.7662 78.8068 73.0147 78.7216C73.2633 78.6328 73.4782 78.5014 73.6593 78.3274C73.8404 78.1534 73.9789 77.9386 74.0748 77.6829L75.5822 77.9545C75.4615 78.3984 75.2449 78.7873 74.9324 79.1211C74.6234 79.4513 74.2346 79.7088 73.7658 79.8935C73.3006 80.0746 72.7697 80.1651 72.1731 80.1651ZM83.5816 73.8157L82.1381 74.0714C82.0777 73.8867 81.9818 73.7109 81.8504 73.544C81.7226 73.3771 81.5486 73.2404 81.3284 73.1339C81.1082 73.0273 80.833 72.9741 80.5028 72.9741C80.0518 72.9741 79.6753 73.0753 79.3735 73.2777C79.0716 73.4766 78.9207 73.734 78.9207 74.0501C78.9207 74.3235 79.0219 74.5437 79.2243 74.7106C79.4268 74.8775 79.7535 75.0142 80.2045 75.1207L81.5042 75.419C82.257 75.593 82.8181 75.8612 83.1874 76.2234C83.5567 76.5856 83.7414 77.0561 83.7414 77.6349C83.7414 78.125 83.5993 78.5618 83.3153 78.9453C83.0347 79.3253 82.6423 79.6236 82.1381 79.8402C81.6373 80.0568 81.0567 80.1651 80.3962 80.1651C79.48 80.1651 78.7325 79.9698 78.1537 79.5792C77.5748 79.185 77.2197 78.6257 77.0883 77.9013L78.6278 77.6669C78.7236 78.0682 78.9207 78.3718 79.219 78.5778C79.5173 78.7802 79.9062 78.8814 80.3856 78.8814C80.9076 78.8814 81.3248 78.7731 81.6373 78.5565C81.9498 78.3363 82.1061 78.0682 82.1061 77.7521C82.1061 77.4964 82.0102 77.2816 81.8184 77.1076C81.6302 76.9336 81.3408 76.8022 80.9502 76.7134L79.5653 76.4098C78.8018 76.2358 78.2371 75.9588 77.8714 75.5788C77.5091 75.1989 77.328 74.7177 77.328 74.1353C77.328 73.6523 77.463 73.2298 77.7329 72.8675C78.0028 72.5053 78.3756 72.223 78.8515 72.0206C79.3273 71.8146 79.8724 71.7116 80.4868 71.7116C81.371 71.7116 82.067 71.9034 82.5748 72.2869C83.0827 72.6669 83.4182 73.1765 83.5816 73.8157ZM86.5419 80.1012C86.2507 80.1012 86.0004 79.9982 85.7908 79.7923C85.5813 79.5827 85.4766 79.3306 85.4766 79.0359C85.4766 78.7447 85.5813 78.4961 85.7908 78.2901C86.0004 78.0806 86.2507 77.9759 86.5419 77.9759C86.8331 77.9759 87.0835 78.0806 87.293 78.2901C87.5025 78.4961 87.6072 78.7447 87.6072 79.0359C87.6072 79.2312 87.5575 79.4105 87.4581 79.5739C87.3622 79.7337 87.2344 79.8615 87.0746 79.9574C86.9148 80.0533 86.7372 80.1012 86.5419 80.1012ZM94.5839 80H92.8367L96.7625 69.0909H98.6642L102.59 80H100.843L97.7586 71.0724H97.6734L94.5839 80ZM94.8769 75.728H100.544V77.1129H94.8769V75.728ZM105.63 69.0909V80H104.037V69.0909H105.63ZM109.547 80L107.139 71.8182H108.785L110.388 77.8267H110.468L112.077 71.8182H113.723L115.321 77.8001H115.401L116.993 71.8182H118.639L116.237 80H114.612L112.95 74.0927H112.828L111.166 80H109.547ZM122.532 80.1811C122.013 80.1811 121.545 80.0852 121.126 79.8935C120.706 79.6982 120.374 79.4158 120.129 79.0465C119.888 78.6772 119.767 78.2244 119.767 77.6882C119.767 77.2266 119.856 76.8466 120.034 76.5483C120.211 76.25 120.451 76.0138 120.753 75.8398C121.055 75.6658 121.392 75.5344 121.765 75.4457C122.138 75.3569 122.518 75.2894 122.905 75.2433C123.395 75.1864 123.792 75.1403 124.098 75.1048C124.403 75.0657 124.625 75.0036 124.764 74.9183C124.902 74.8331 124.971 74.6946 124.971 74.5028V74.4656C124.971 74.0004 124.84 73.6399 124.577 73.3842C124.318 73.1286 123.931 73.0007 123.416 73.0007C122.88 73.0007 122.457 73.1197 122.148 73.3576C121.843 73.592 121.632 73.853 121.514 74.1406L120.018 73.7997C120.195 73.3026 120.454 72.9013 120.795 72.5959C121.14 72.2869 121.536 72.0632 121.983 71.9247C122.431 71.7827 122.901 71.7116 123.395 71.7116C123.721 71.7116 124.068 71.7507 124.433 71.8288C124.803 71.9034 125.147 72.0419 125.467 72.2443C125.79 72.4467 126.055 72.7362 126.26 73.1126C126.466 73.4854 126.569 73.9702 126.569 74.5668V80H125.014V78.8814H124.95C124.847 79.0874 124.693 79.2898 124.487 79.4886C124.281 79.6875 124.016 79.8526 123.693 79.984C123.37 80.1154 122.983 80.1811 122.532 80.1811ZM122.878 78.9027C123.318 78.9027 123.695 78.8157 124.007 78.6417C124.323 78.4677 124.563 78.2404 124.726 77.9599C124.893 77.6758 124.977 77.3722 124.977 77.049V75.9943C124.92 76.0511 124.81 76.1044 124.646 76.1541C124.487 76.2003 124.304 76.2411 124.098 76.2766C123.892 76.3086 123.691 76.3388 123.496 76.3672C123.301 76.392 123.137 76.4134 123.006 76.4311C122.697 76.4702 122.415 76.5359 122.159 76.6282C121.907 76.7205 121.704 76.8537 121.552 77.0277C121.403 77.1982 121.328 77.4254 121.328 77.7095C121.328 78.1037 121.474 78.402 121.765 78.6044C122.056 78.8033 122.427 78.9027 122.878 78.9027ZM129.405 83.0682C129.167 83.0682 128.95 83.0487 128.755 83.0096C128.559 82.9741 128.414 82.935 128.318 82.8924L128.701 81.5874C128.993 81.6655 129.252 81.6992 129.479 81.6886C129.706 81.6779 129.907 81.5927 130.081 81.4329C130.259 81.2731 130.415 81.0121 130.55 80.6499L130.747 80.1065L127.753 71.8182H129.458L131.53 78.1676H131.615L133.687 71.8182H135.397L132.025 81.092C131.869 81.5181 131.67 81.8786 131.429 82.1733C131.187 82.4716 130.9 82.6953 130.566 82.8445C130.232 82.9936 129.845 83.0682 129.405 83.0682ZM143.025 73.8157L141.581 74.0714C141.521 73.8867 141.425 73.7109 141.294 73.544C141.166 73.3771 140.992 73.2404 140.772 73.1339C140.552 73.0273 140.276 72.9741 139.946 72.9741C139.495 72.9741 139.119 73.0753 138.817 73.2777C138.515 73.4766 138.364 73.734 138.364 74.0501C138.364 74.3235 138.465 74.5437 138.668 74.7106C138.87 74.8775 139.197 75.0142 139.648 75.1207L140.948 75.419C141.7 75.593 142.261 75.8612 142.631 76.2234C143 76.5856 143.185 77.0561 143.185 77.6349C143.185 78.125 143.043 78.5618 142.759 78.9453C142.478 79.3253 142.086 79.6236 141.581 79.8402C141.081 80.0568 140.5 80.1651 139.84 80.1651C138.923 80.1651 138.176 79.9698 137.597 79.5792C137.018 79.185 136.663 78.6257 136.532 77.9013L138.071 77.6669C138.167 78.0682 138.364 78.3718 138.662 78.5778C138.961 78.7802 139.35 78.8814 139.829 78.8814C140.351 78.8814 140.768 78.7731 141.081 78.5565C141.393 78.3363 141.549 78.0682 141.549 77.7521C141.549 77.4964 141.454 77.2816 141.262 77.1076C141.074 76.9336 140.784 76.8022 140.394 76.7134L139.009 76.4098C138.245 76.2358 137.68 75.9588 137.315 75.5788C136.953 75.1989 136.771 74.7177 136.771 74.1353C136.771 73.6523 136.906 73.2298 137.176 72.8675C137.446 72.5053 137.819 72.223 138.295 72.0206C138.771 71.8146 139.316 71.7116 139.93 71.7116C140.814 71.7116 141.51 71.9034 142.018 72.2869C142.526 72.6669 142.862 73.1765 143.025 73.8157ZM148.906 80V71.8182H150.498V80H148.906ZM149.71 70.5558C149.433 70.5558 149.195 70.4634 148.996 70.2788C148.801 70.0906 148.703 69.8668 148.703 69.6076C148.703 69.3448 148.801 69.1211 148.996 68.9364C149.195 68.7482 149.433 68.6541 149.71 68.6541C149.987 68.6541 150.223 68.7482 150.418 68.9364C150.617 69.1211 150.717 69.3448 150.717 69.6076C150.717 69.8668 150.617 70.0906 150.418 70.2788C150.223 70.4634 149.987 70.5558 149.71 70.5558ZM152.641 80V71.8182H154.17V73.1499H154.271C154.441 72.6989 154.72 72.3473 155.107 72.0952C155.494 71.8395 155.958 71.7116 156.498 71.7116C157.044 71.7116 157.502 71.8395 157.872 72.0952C158.245 72.3509 158.52 72.7024 158.697 73.1499H158.783C158.978 72.7131 159.289 72.3651 159.715 72.1058C160.141 71.843 160.649 71.7116 161.238 71.7116C161.98 71.7116 162.586 71.9442 163.055 72.4094C163.527 72.8746 163.763 73.576 163.763 74.5135V80H162.17V74.6626C162.17 74.1087 162.02 73.7074 161.718 73.4588C161.416 73.2102 161.055 73.0859 160.636 73.0859C160.118 73.0859 159.715 73.2457 159.427 73.5653C159.14 73.8814 158.996 74.288 158.996 74.7852V80H157.408V74.5614C157.408 74.1175 157.27 73.7607 156.993 73.4908C156.716 73.2209 156.355 73.0859 155.912 73.0859C155.61 73.0859 155.331 73.1658 155.075 73.3256C154.823 73.4819 154.619 73.7003 154.463 73.9808C154.31 74.2614 154.234 74.5863 154.234 74.9556V80H152.641ZM165.898 83.0682V71.8182H167.453V73.1445H167.586C167.679 72.9741 167.812 72.777 167.986 72.5533C168.16 72.3295 168.401 72.1342 168.71 71.9673C169.019 71.7969 169.428 71.7116 169.935 71.7116C170.596 71.7116 171.185 71.8786 171.704 72.2124C172.222 72.5462 172.629 73.0273 172.924 73.6559C173.222 74.2844 173.371 75.0408 173.371 75.9251C173.371 76.8093 173.224 77.5675 172.929 78.1996C172.634 78.8281 172.229 79.3129 171.715 79.6538C171.2 79.9911 170.612 80.1598 169.951 80.1598C169.454 80.1598 169.048 80.0763 168.732 79.9094C168.419 79.7425 168.174 79.5472 167.997 79.3235C167.819 79.0998 167.682 78.9009 167.586 78.7269H167.491V83.0682H165.898ZM167.459 75.9091C167.459 76.4844 167.542 76.9886 167.709 77.4219C167.876 77.8551 168.117 78.1942 168.433 78.4393C168.749 78.6808 169.136 78.8015 169.595 78.8015C170.07 78.8015 170.468 78.6754 170.788 78.4233C171.107 78.1676 171.349 77.8214 171.512 77.3846C171.679 76.9478 171.763 76.456 171.763 75.9091C171.763 75.3693 171.681 74.8846 171.517 74.4549C171.358 74.0252 171.116 73.6861 170.793 73.4375C170.473 73.1889 170.074 73.0646 169.595 73.0646C169.133 73.0646 168.742 73.1836 168.423 73.4215C168.107 73.6594 167.867 73.9915 167.704 74.4176C167.54 74.8437 167.459 75.3409 167.459 75.9091ZM175.156 80V71.8182H176.695V73.1179H176.78C176.929 72.6776 177.192 72.3313 177.569 72.0792C177.949 71.8235 178.378 71.6957 178.858 71.6957C178.957 71.6957 179.074 71.6992 179.209 71.7063C179.348 71.7134 179.456 71.7223 179.534 71.733V73.2564C179.47 73.2386 179.357 73.2191 179.193 73.1978C179.03 73.1729 178.867 73.1605 178.703 73.1605C178.327 73.1605 177.991 73.2404 177.696 73.4002C177.405 73.5565 177.174 73.7749 177.004 74.0554C176.834 74.3324 176.748 74.6484 176.748 75.0036V80H175.156ZM184.066 80.1651C183.299 80.1651 182.629 79.9893 182.058 79.6378C181.486 79.2862 181.042 78.7944 180.726 78.1623C180.41 77.5302 180.252 76.7915 180.252 75.9464C180.252 75.0977 180.41 74.3555 180.726 73.7198C181.042 73.0842 181.486 72.5906 182.058 72.239C182.629 71.8874 183.299 71.7116 184.066 71.7116C184.833 71.7116 185.502 71.8874 186.074 72.239C186.646 72.5906 187.09 73.0842 187.406 73.7198C187.722 74.3555 187.88 75.0977 187.88 75.9464C187.88 76.7915 187.722 77.5302 187.406 78.1623C187.09 78.7944 186.646 79.2862 186.074 79.6378C185.502 79.9893 184.833 80.1651 184.066 80.1651ZM184.071 78.8281C184.568 78.8281 184.98 78.6967 185.307 78.4339C185.634 78.1712 185.875 77.8214 186.031 77.3846C186.191 76.9478 186.271 76.4666 186.271 75.9411C186.271 75.419 186.191 74.9396 186.031 74.5028C185.875 74.0625 185.634 73.7092 185.307 73.4428C184.98 73.1765 184.568 73.0433 184.071 73.0433C183.57 73.0433 183.155 73.1765 182.825 73.4428C182.498 73.7092 182.255 74.0625 182.095 74.5028C181.939 74.9396 181.861 75.419 181.861 75.9411C181.861 76.4666 181.939 76.9478 182.095 77.3846C182.255 77.8214 182.498 78.1712 182.825 78.4339C183.155 78.6967 183.57 78.8281 184.071 78.8281ZM196.379 71.8182L193.412 80H191.707L188.735 71.8182H190.445L192.517 78.1143H192.602L194.669 71.8182H196.379ZM197.875 80V71.8182H199.468V80H197.875ZM198.68 70.5558C198.403 70.5558 198.165 70.4634 197.966 70.2788C197.771 70.0906 197.673 69.8668 197.673 69.6076C197.673 69.3448 197.771 69.1211 197.966 68.9364C198.165 68.7482 198.403 68.6541 198.68 68.6541C198.957 68.6541 199.193 68.7482 199.388 68.9364C199.587 69.1211 199.686 69.3448 199.686 69.6076C199.686 69.8668 199.587 70.0906 199.388 70.2788C199.193 70.4634 198.957 70.5558 198.68 70.5558ZM203.203 75.142V80H201.611V71.8182H203.139V73.1499H203.241C203.429 72.7166 203.724 72.3686 204.125 72.1058C204.53 71.843 205.039 71.7116 205.654 71.7116C206.211 71.7116 206.699 71.8288 207.119 72.0632C207.538 72.294 207.862 72.6385 208.093 73.0966C208.324 73.5547 208.44 74.1211 208.44 74.7958V80H206.847V74.9876C206.847 74.3945 206.692 73.9311 206.383 73.5973C206.074 73.2599 205.65 73.0913 205.11 73.0913C204.741 73.0913 204.413 73.1712 204.125 73.331C203.841 73.4908 203.615 73.7251 203.448 74.0341C203.285 74.3395 203.203 74.7088 203.203 75.142ZM214.006 83.2386C213.356 83.2386 212.797 83.1534 212.328 82.983C211.863 82.8125 211.483 82.587 211.188 82.3065C210.893 82.0259 210.673 81.7188 210.528 81.3849L211.897 80.8203C211.992 80.9766 212.12 81.1417 212.28 81.3157C212.443 81.4933 212.664 81.6442 212.941 81.7685C213.221 81.8928 213.582 81.9549 214.022 81.9549C214.626 81.9549 215.125 81.8075 215.519 81.5128C215.913 81.2216 216.11 80.7564 216.11 80.1172V78.5085H216.009C215.913 78.6825 215.774 78.8761 215.593 79.0891C215.416 79.3022 215.171 79.4869 214.858 79.6431C214.546 79.7994 214.139 79.8775 213.638 79.8775C212.992 79.8775 212.41 79.7266 211.891 79.4247C211.376 79.1193 210.968 78.6701 210.666 78.0771C210.368 77.4805 210.219 76.7472 210.219 75.8771C210.219 75.0071 210.366 74.2614 210.661 73.6399C210.959 73.0185 211.367 72.5426 211.886 72.2124C212.404 71.8786 212.992 71.7116 213.649 71.7116C214.157 71.7116 214.567 71.7969 214.88 71.9673C215.192 72.1342 215.435 72.3295 215.609 72.5533C215.787 72.777 215.924 72.9741 216.019 73.1445H216.137V71.8182H217.697V80.1811C217.697 80.8842 217.534 81.4613 217.207 81.9123C216.881 82.3633 216.438 82.6971 215.881 82.9137C215.327 83.1303 214.702 83.2386 214.006 83.2386ZM213.99 78.5565C214.448 78.5565 214.835 78.4499 215.151 78.2369C215.471 78.0202 215.712 77.7113 215.876 77.31C216.043 76.9052 216.126 76.4205 216.126 75.8558C216.126 75.3054 216.044 74.8207 215.881 74.4016C215.718 73.9826 215.478 73.6559 215.162 73.4215C214.846 73.1836 214.455 73.0646 213.99 73.0646C213.511 73.0646 213.111 73.1889 212.791 73.4375C212.472 73.6825 212.23 74.0163 212.067 74.4389C211.907 74.8615 211.827 75.3338 211.827 75.8558C211.827 76.392 211.909 76.8626 212.072 77.2674C212.236 77.6722 212.477 77.9883 212.797 78.2156C213.12 78.4428 213.518 78.5565 213.99 78.5565ZM226.184 80.1811C225.666 80.1811 225.197 80.0852 224.778 79.8935C224.359 79.6982 224.027 79.4158 223.782 79.0465C223.54 78.6772 223.42 78.2244 223.42 77.6882C223.42 77.2266 223.508 76.8466 223.686 76.5483C223.863 76.25 224.103 76.0138 224.405 75.8398C224.707 75.6658 225.044 75.5344 225.417 75.4457C225.79 75.3569 226.17 75.2894 226.557 75.2433C227.047 75.1864 227.445 75.1403 227.75 75.1048C228.056 75.0657 228.278 75.0036 228.416 74.9183C228.555 74.8331 228.624 74.6946 228.624 74.5028V74.4656C228.624 74.0004 228.492 73.6399 228.23 73.3842C227.97 73.1286 227.583 73.0007 227.068 73.0007C226.532 73.0007 226.11 73.1197 225.801 73.3576C225.495 73.592 225.284 73.853 225.167 74.1406L223.67 73.7997C223.847 73.3026 224.107 72.9013 224.448 72.5959C224.792 72.2869 225.188 72.0632 225.635 71.9247C226.083 71.7827 226.553 71.7116 227.047 71.7116C227.374 71.7116 227.72 71.7507 228.086 71.8288C228.455 71.9034 228.8 72.0419 229.119 72.2443C229.442 72.4467 229.707 72.7362 229.913 73.1126C230.119 73.4854 230.222 73.9702 230.222 74.5668V80H228.666V78.8814H228.602C228.499 79.0874 228.345 79.2898 228.139 79.4886C227.933 79.6875 227.669 79.8526 227.345 79.984C227.022 80.1154 226.635 80.1811 226.184 80.1811ZM226.53 78.9027C226.971 78.9027 227.347 78.8157 227.66 78.6417C227.976 78.4677 228.215 78.2404 228.379 77.9599C228.546 77.6758 228.629 77.3722 228.629 77.049V75.9943C228.572 76.0511 228.462 76.1044 228.299 76.1541C228.139 76.2003 227.956 76.2411 227.75 76.2766C227.544 76.3086 227.344 76.3388 227.148 76.3672C226.953 76.392 226.79 76.4134 226.658 76.4311C226.349 76.4702 226.067 76.5359 225.811 76.6282C225.559 76.7205 225.357 76.8537 225.204 77.0277C225.055 77.1982 224.98 77.4254 224.98 77.7095C224.98 78.1037 225.126 78.402 225.417 78.6044C225.708 78.8033 226.079 78.9027 226.53 78.9027ZM233.936 75.142V80H232.343V71.8182H233.872V73.1499H233.973C234.161 72.7166 234.456 72.3686 234.857 72.1058C235.262 71.843 235.772 71.7116 236.386 71.7116C236.944 71.7116 237.432 71.8288 237.851 72.0632C238.27 72.294 238.595 72.6385 238.826 73.0966C239.057 73.5547 239.172 74.1211 239.172 74.7958V80H237.579V74.9876C237.579 74.3945 237.425 73.9311 237.116 73.5973C236.807 73.2599 236.383 73.0913 235.843 73.0913C235.473 73.0913 235.145 73.1712 234.857 73.331C234.573 73.4908 234.348 73.7251 234.181 74.0341C234.017 74.3395 233.936 74.7088 233.936 75.142ZM244.371 80.1598C243.71 80.1598 243.121 79.9911 242.602 79.6538C242.087 79.3129 241.683 78.8281 241.388 78.1996C241.097 77.5675 240.951 76.8093 240.951 75.9251C240.951 75.0408 241.098 74.2844 241.393 73.6559C241.691 73.0273 242.1 72.5462 242.618 72.2124C243.137 71.8786 243.725 71.7116 244.381 71.7116C244.889 71.7116 245.298 71.7969 245.607 71.9673C245.919 72.1342 246.161 72.3295 246.331 72.5533C246.505 72.777 246.64 72.9741 246.736 73.1445H246.832V69.0909H248.424V80H246.869V78.7269H246.736C246.64 78.9009 246.502 79.0998 246.32 79.3235C246.143 79.5472 245.898 79.7425 245.585 79.9094C245.273 80.0763 244.868 80.1598 244.371 80.1598ZM244.722 78.8015C245.18 78.8015 245.568 78.6808 245.884 78.4393C246.203 78.1942 246.445 77.8551 246.608 77.4219C246.775 76.9886 246.858 76.4844 246.858 75.9091C246.858 75.3409 246.777 74.8437 246.613 74.4176C246.45 73.9915 246.21 73.6594 245.894 73.4215C245.578 73.1836 245.188 73.0646 244.722 73.0646C244.243 73.0646 243.843 73.1889 243.524 73.4375C243.204 73.6861 242.963 74.0252 242.799 74.4549C242.64 74.8846 242.56 75.3693 242.56 75.9091C242.56 76.456 242.641 76.9478 242.805 77.3846C242.968 77.8214 243.21 78.1676 243.529 78.4233C243.852 78.6754 244.25 78.8015 244.722 78.8015ZM254.667 80V71.8182H256.207V73.1179H256.292C256.441 72.6776 256.704 72.3313 257.08 72.0792C257.46 71.8235 257.89 71.6957 258.369 71.6957C258.469 71.6957 258.586 71.6992 258.721 71.7063C258.859 71.7134 258.968 71.7223 259.046 71.733V73.2564C258.982 73.2386 258.868 73.2191 258.705 73.1978C258.542 73.1729 258.378 73.1605 258.215 73.1605C257.839 73.1605 257.503 73.2404 257.208 73.4002C256.917 73.5565 256.686 73.7749 256.516 74.0554C256.345 74.3324 256.26 74.6484 256.26 75.0036V80H254.667ZM263.657 80.1651C262.851 80.1651 262.157 79.9929 261.575 79.6484C260.996 79.3004 260.548 78.8121 260.232 78.1836C259.92 77.5515 259.764 76.8111 259.764 75.9624C259.764 75.1243 259.92 74.3857 260.232 73.7464C260.548 73.1072 260.989 72.6083 261.553 72.2496C262.122 71.891 262.786 71.7116 263.546 71.7116C264.007 71.7116 264.455 71.788 264.888 71.9407C265.321 72.0934 265.71 72.3331 266.055 72.6598C266.399 72.9865 266.671 73.4109 266.869 73.9329C267.068 74.4513 267.168 75.0817 267.168 75.8239V76.3885H260.664V75.1953H265.607C265.607 74.7763 265.522 74.4052 265.351 74.082C265.181 73.7553 264.941 73.4979 264.632 73.3097C264.327 73.1214 263.968 73.0273 263.556 73.0273C263.109 73.0273 262.718 73.1374 262.384 73.3576C262.054 73.5742 261.798 73.8583 261.617 74.2099C261.44 74.5579 261.351 74.9361 261.351 75.3445V76.2766C261.351 76.8235 261.447 77.2887 261.639 77.6722C261.834 78.0558 262.106 78.3487 262.454 78.5511C262.802 78.75 263.208 78.8494 263.673 78.8494C263.975 78.8494 264.251 78.8068 264.499 78.7216C264.748 78.6328 264.963 78.5014 265.144 78.3274C265.325 78.1534 265.463 77.9386 265.559 77.6829L267.067 77.9545C266.946 78.3984 266.729 78.7873 266.417 79.1211C266.108 79.4513 265.719 79.7088 265.25 79.8935C264.785 80.0746 264.254 80.1651 263.657 80.1651ZM272.829 71.8182V73.0966H268.205V71.8182H272.829ZM269.473 80V70.87C269.473 70.3587 269.585 69.9343 269.809 69.5969C270.032 69.256 270.329 69.0021 270.698 68.8352C271.067 68.6648 271.469 68.5795 271.902 68.5795C272.222 68.5795 272.495 68.6062 272.722 68.6594C272.949 68.7092 273.118 68.7553 273.228 68.7979L272.855 70.087C272.781 70.0657 272.685 70.0408 272.568 70.0124C272.451 69.9805 272.309 69.9645 272.142 69.9645C271.755 69.9645 271.478 70.0604 271.311 70.2521C271.147 70.4439 271.066 70.7209 271.066 71.0831V80H269.473ZM274.472 80V71.8182H276.065V80H274.472ZM275.276 70.5558C274.999 70.5558 274.761 70.4634 274.563 70.2788C274.367 70.0906 274.27 69.8668 274.27 69.6076C274.27 69.3448 274.367 69.1211 274.563 68.9364C274.761 68.7482 274.999 68.6541 275.276 68.6541C275.553 68.6541 275.79 68.7482 275.985 68.9364C276.184 69.1211 276.283 69.3448 276.283 69.6076C276.283 69.8668 276.184 70.0906 275.985 70.2788C275.79 70.4634 275.553 70.5558 275.276 70.5558ZM279.8 75.142V80H278.207V71.8182H279.736V73.1499H279.837C280.026 72.7166 280.32 72.3686 280.722 72.1058C281.126 71.843 281.636 71.7116 282.25 71.7116C282.808 71.7116 283.296 71.8288 283.715 72.0632C284.134 72.294 284.459 72.6385 284.69 73.0966C284.921 73.5547 285.036 74.1211 285.036 74.7958V80H283.444V74.9876C283.444 74.3945 283.289 73.9311 282.98 73.5973C282.671 73.2599 282.247 73.0913 281.707 73.0913C281.338 73.0913 281.009 73.1712 280.722 73.331C280.438 73.4908 280.212 73.7251 280.045 74.0341C279.882 74.3395 279.8 74.7088 279.8 75.142ZM287.172 80V71.8182H288.765V80H287.172ZM287.977 70.5558C287.7 70.5558 287.462 70.4634 287.263 70.2788C287.067 70.0906 286.97 69.8668 286.97 69.6076C286.97 69.3448 287.067 69.1211 287.263 68.9364C287.462 68.7482 287.7 68.6541 287.977 68.6541C288.254 68.6541 288.49 68.7482 288.685 68.9364C288.884 69.1211 288.983 69.3448 288.983 69.6076C288.983 69.8668 288.884 70.0906 288.685 70.2788C288.49 70.4634 288.254 70.5558 287.977 70.5558ZM292.5 75.142V80H290.908V71.8182H292.436V73.1499H292.538C292.726 72.7166 293.021 72.3686 293.422 72.1058C293.827 71.843 294.336 71.7116 294.951 71.7116C295.508 71.7116 295.996 71.8288 296.415 72.0632C296.834 72.294 297.159 72.6385 297.39 73.0966C297.621 73.5547 297.736 74.1211 297.736 74.7958V80H296.144V74.9876C296.144 74.3945 295.989 73.9311 295.68 73.5973C295.371 73.2599 294.947 73.0913 294.407 73.0913C294.038 73.0913 293.709 73.1712 293.422 73.331C293.138 73.4908 292.912 73.7251 292.745 74.0341C292.582 74.3395 292.5 74.7088 292.5 75.142ZM303.303 83.2386C302.653 83.2386 302.094 83.1534 301.625 82.983C301.16 82.8125 300.78 82.587 300.485 82.3065C300.19 82.0259 299.97 81.7188 299.824 81.3849L301.193 80.8203C301.289 80.9766 301.417 81.1417 301.577 81.3157C301.74 81.4933 301.96 81.6442 302.237 81.7685C302.518 81.8928 302.878 81.9549 303.319 81.9549C303.922 81.9549 304.421 81.8075 304.816 81.5128C305.21 81.2216 305.407 80.7564 305.407 80.1172V78.5085H305.306C305.21 78.6825 305.071 78.8761 304.89 79.0891C304.713 79.3022 304.468 79.4869 304.155 79.6431C303.843 79.7994 303.436 79.8775 302.935 79.8775C302.289 79.8775 301.707 79.7266 301.188 79.4247C300.673 79.1193 300.265 78.6701 299.963 78.0771C299.665 77.4805 299.516 76.7472 299.516 75.8771C299.516 75.0071 299.663 74.2614 299.958 73.6399C300.256 73.0185 300.664 72.5426 301.183 72.2124C301.701 71.8786 302.289 71.7116 302.946 71.7116C303.454 71.7116 303.864 71.7969 304.176 71.9673C304.489 72.1342 304.732 72.3295 304.906 72.5533C305.084 72.777 305.22 72.9741 305.316 73.1445H305.434V71.8182H306.994V80.1811C306.994 80.8842 306.831 81.4613 306.504 81.9123C306.177 82.3633 305.735 82.6971 305.178 82.9137C304.624 83.1303 303.999 83.2386 303.303 83.2386ZM303.287 78.5565C303.745 78.5565 304.132 78.4499 304.448 78.2369C304.768 78.0202 305.009 77.7113 305.172 77.31C305.339 76.9052 305.423 76.4205 305.423 75.8558C305.423 75.3054 305.341 74.8207 305.178 74.4016C305.014 73.9826 304.775 73.6559 304.459 73.4215C304.143 73.1836 303.752 73.0646 303.287 73.0646C302.807 73.0646 302.408 73.1889 302.088 73.4375C301.769 73.6825 301.527 74.0163 301.364 74.4389C301.204 74.8615 301.124 75.3338 301.124 75.8558C301.124 76.392 301.206 76.8626 301.369 77.2674C301.533 77.6722 301.774 77.9883 302.094 78.2156C302.417 78.4428 302.815 78.5565 303.287 78.5565ZM313.1 80V71.8182H314.629V73.1499H314.73C314.9 72.6989 315.179 72.3473 315.566 72.0952C315.953 71.8395 316.417 71.7116 316.956 71.7116C317.503 71.7116 317.961 71.8395 318.331 72.0952C318.704 72.3509 318.979 72.7024 319.156 73.1499H319.242C319.437 72.7131 319.748 72.3651 320.174 72.1058C320.6 71.843 321.108 71.7116 321.697 71.7116C322.439 71.7116 323.045 71.9442 323.514 72.4094C323.986 72.8746 324.222 73.576 324.222 74.5135V80H322.629V74.6626C322.629 74.1087 322.479 73.7074 322.177 73.4588C321.875 73.2102 321.514 73.0859 321.095 73.0859C320.577 73.0859 320.174 73.2457 319.886 73.5653C319.599 73.8814 319.455 74.288 319.455 74.7852V80H317.867V74.5614C317.867 74.1175 317.729 73.7607 317.452 73.4908C317.175 73.2209 316.814 73.0859 316.371 73.0859C316.069 73.0859 315.79 73.1658 315.534 73.3256C315.282 73.4819 315.078 73.7003 314.922 73.9808C314.769 74.2614 314.693 74.5863 314.693 74.9556V80H313.1ZM327.071 83.0682C326.833 83.0682 326.616 83.0487 326.421 83.0096C326.225 82.9741 326.08 82.935 325.984 82.8924L326.367 81.5874C326.659 81.6655 326.918 81.6992 327.145 81.6886C327.372 81.6779 327.573 81.5927 327.747 81.4329C327.925 81.2731 328.081 81.0121 328.216 80.6499L328.413 80.1065L325.419 71.8182H327.124L329.196 78.1676H329.281L331.353 71.8182H333.063L329.691 81.092C329.535 81.5181 329.336 81.8786 329.095 82.1733C328.853 82.4716 328.566 82.6953 328.232 82.8445C327.898 82.9936 327.511 83.0682 327.071 83.0682ZM341.976 80.1651C341.184 80.1651 340.502 79.9858 339.931 79.6271C339.362 79.2649 338.926 78.766 338.62 78.1303C338.315 77.4947 338.162 76.7667 338.162 75.9464C338.162 75.1154 338.318 74.3821 338.631 73.7464C338.943 73.1072 339.384 72.6083 339.952 72.2496C340.52 71.891 341.189 71.7116 341.96 71.7116C342.581 71.7116 343.135 71.8271 343.622 72.0579C344.108 72.2852 344.501 72.6048 344.799 73.0167C345.101 73.4286 345.28 73.9098 345.337 74.4602H343.787C343.702 74.0767 343.507 73.7464 343.201 73.4695C342.899 73.1925 342.494 73.054 341.987 73.054C341.543 73.054 341.154 73.1712 340.82 73.4055C340.49 73.6364 340.232 73.9666 340.048 74.3963C339.863 74.8224 339.771 75.3267 339.771 75.9091C339.771 76.5057 339.861 77.0206 340.042 77.4538C340.224 77.8871 340.479 78.2227 340.809 78.4606C341.143 78.6985 341.536 78.8175 341.987 78.8175C342.289 78.8175 342.562 78.7624 342.807 78.6523C343.056 78.5387 343.263 78.3771 343.43 78.1676C343.601 77.9581 343.72 77.706 343.787 77.4112H345.337C345.28 77.9403 345.108 78.4126 344.82 78.8281C344.533 79.2436 344.148 79.5703 343.665 79.8082C343.185 80.0462 342.622 80.1651 341.976 80.1651ZM347.04 80V71.8182H348.58V73.1179H348.665C348.814 72.6776 349.077 72.3313 349.453 72.0792C349.833 71.8235 350.263 71.6957 350.742 71.6957C350.842 71.6957 350.959 71.6992 351.094 71.7063C351.233 71.7134 351.341 71.7223 351.419 71.733V73.2564C351.355 73.2386 351.241 73.2191 351.078 73.1978C350.915 73.1729 350.751 73.1605 350.588 73.1605C350.212 73.1605 349.876 73.2404 349.581 73.4002C349.29 73.5565 349.059 73.7749 348.889 74.0554C348.718 74.3324 348.633 74.6484 348.633 75.0036V80H347.04ZM355.105 80.1811C354.587 80.1811 354.118 80.0852 353.699 79.8935C353.28 79.6982 352.948 79.4158 352.703 79.0465C352.461 78.6772 352.34 78.2244 352.34 77.6882C352.34 77.2266 352.429 76.8466 352.607 76.5483C352.784 76.25 353.024 76.0138 353.326 75.8398C353.628 75.6658 353.965 75.5344 354.338 75.4457C354.711 75.3569 355.091 75.2894 355.478 75.2433C355.968 75.1864 356.366 75.1403 356.671 75.1048C356.976 75.0657 357.198 75.0036 357.337 74.9183C357.475 74.8331 357.545 74.6946 357.545 74.5028V74.4656C357.545 74.0004 357.413 73.6399 357.15 73.3842C356.891 73.1286 356.504 73.0007 355.989 73.0007C355.453 73.0007 355.03 73.1197 354.722 73.3576C354.416 73.592 354.205 73.853 354.088 74.1406L352.591 73.7997C352.768 73.3026 353.028 72.9013 353.369 72.5959C353.713 72.2869 354.109 72.0632 354.556 71.9247C355.004 71.7827 355.474 71.7116 355.968 71.7116C356.295 71.7116 356.641 71.7507 357.007 71.8288C357.376 71.9034 357.72 72.0419 358.04 72.2443C358.363 72.4467 358.628 72.7362 358.834 73.1126C359.04 73.4854 359.143 73.9702 359.143 74.5668V80H357.587V78.8814H357.523C357.42 79.0874 357.266 79.2898 357.06 79.4886C356.854 79.6875 356.589 79.8526 356.266 79.984C355.943 80.1154 355.556 80.1811 355.105 80.1811ZM355.451 78.9027C355.892 78.9027 356.268 78.8157 356.581 78.6417C356.897 78.4677 357.136 78.2404 357.3 77.9599C357.467 77.6758 357.55 77.3722 357.55 77.049V75.9943C357.493 76.0511 357.383 76.1044 357.22 76.1541C357.06 76.2003 356.877 76.2411 356.671 76.2766C356.465 76.3086 356.264 76.3388 356.069 76.3672C355.874 76.392 355.71 76.4134 355.579 76.4311C355.27 76.4702 354.988 76.5359 354.732 76.6282C354.48 76.7205 354.278 76.8537 354.125 77.0277C353.976 77.1982 353.901 77.4254 353.901 77.7095C353.901 78.1037 354.047 78.402 354.338 78.6044C354.629 78.8033 355 78.9027 355.451 78.9027ZM365.158 71.8182V73.0966H360.534V71.8182H365.158ZM361.802 80V70.87C361.802 70.3587 361.914 69.9343 362.138 69.5969C362.361 69.256 362.658 69.0021 363.027 68.8352C363.396 68.6648 363.798 68.5795 364.231 68.5795C364.551 68.5795 364.824 68.6062 365.051 68.6594C365.279 68.7092 365.447 68.7553 365.557 68.7979L365.184 70.087C365.11 70.0657 365.014 70.0408 364.897 70.0124C364.78 69.9805 364.638 69.9645 364.471 69.9645C364.084 69.9645 363.807 70.0604 363.64 70.2521C363.476 70.4439 363.395 70.7209 363.395 71.0831V80H361.802ZM370.62 71.8182V73.0966H366.151V71.8182H370.62ZM367.35 69.858H368.942V77.5977C368.942 77.9066 368.989 78.1392 369.081 78.2955C369.173 78.4482 369.292 78.5529 369.438 78.6097C369.587 78.663 369.749 78.6896 369.923 78.6896C370.05 78.6896 370.162 78.6808 370.258 78.663C370.354 78.6452 370.429 78.631 370.482 78.6204L370.77 79.9361C370.677 79.9716 370.546 80.0071 370.375 80.0426C370.205 80.0817 369.992 80.103 369.736 80.1065C369.317 80.1136 368.926 80.0391 368.564 79.8828C368.202 79.7266 367.909 79.4851 367.685 79.1584C367.462 78.8317 367.35 78.4215 367.35 77.9279V69.858ZM373.432 80.1012C373.14 80.1012 372.89 79.9982 372.68 79.7923C372.471 79.5827 372.366 79.3306 372.366 79.0359C372.366 78.7447 372.471 78.4961 372.68 78.2901C372.89 78.0806 373.14 77.9759 373.432 77.9759C373.723 77.9759 373.973 78.0806 374.183 78.2901C374.392 78.4961 374.497 78.7447 374.497 79.0359C374.497 79.2312 374.447 79.4105 374.348 79.5739C374.252 79.7337 374.124 79.8615 373.964 79.9574C373.804 80.0533 373.627 80.1012 373.432 80.1012Z" fill="#5C6477"/>
<defs>
<linearGradient id="paint0_linear_1_6" x1="0" y1="70" x2="400" y2="70" gradientUnits="userSpaceOnUse">
<stop stop-color="#5C6477" stop-opacity="0.4"/>
<stop offset="1" stop-color="#5C6477"/>
</linearGradient>
</defs>
</svg>
