<svg width="400" height="120" viewBox="0 0 400 120" fill="none" xmlns="http://www.w3.org/2000/svg">
<rect x="0.5" y="0.5" width="399" height="119" rx="11.5" stroke="url(#paint0_linear_1_6)"/>
<path d="M14.8285 30H12.3569L16.1229 19.0909H19.0952L22.8558 30H20.3842L17.6516 21.5838H17.5664L14.8285 30ZM14.674 25.712H20.5121V27.5124H14.674V25.712ZM24.1689 30V19.0909H28.5368C29.3393 19.0909 30.0087 19.2099 30.5449 19.4478C31.0811 19.6857 31.4842 20.016 31.7541 20.4386C32.024 20.8576 32.1589 21.3406 32.1589 21.8874C32.1589 22.3136 32.0737 22.6882 31.9032 23.0114C31.7328 23.331 31.4984 23.5937 31.2001 23.7997C30.9054 24.0021 30.568 24.146 30.188 24.2312V24.3377C30.6035 24.3555 30.9924 24.4727 31.3546 24.6893C31.7203 24.9059 32.0169 25.2095 32.2441 25.6001C32.4714 25.9872 32.5851 26.4489 32.5851 26.9851C32.5851 27.5639 32.4412 28.0806 32.1536 28.5352C31.8695 28.9862 31.4487 29.343 30.8912 29.6058C30.3336 29.8686 29.6465 30 28.8297 30H24.1689ZM26.4753 28.1143H28.3556C28.9984 28.1143 29.4672 27.9918 29.7619 27.7468C30.0566 27.4982 30.204 27.168 30.204 26.756C30.204 26.4542 30.1312 26.1879 29.9856 25.957C29.84 25.7262 29.6323 25.5451 29.3624 25.4137C29.0961 25.2823 28.7782 25.2166 28.4089 25.2166H26.4753V28.1143ZM26.4753 23.6559H28.1852C28.5012 23.6559 28.7818 23.6009 29.0268 23.4908C29.2754 23.3771 29.4707 23.2173 29.6127 23.0114C29.7583 22.8054 29.8311 22.5586 29.8311 22.271C29.8311 21.8768 29.6909 21.5589 29.4103 21.3175C29.1333 21.076 28.7392 20.9553 28.2278 20.9553H26.4753V23.6559ZM44.1107 24.5455C44.1107 25.7351 43.8852 26.7472 43.4342 27.5817C42.9868 28.4162 42.376 29.0536 41.6018 29.494C40.8312 29.9308 39.9648 30.1491 39.0024 30.1491C38.0329 30.1491 37.1629 29.929 36.3923 29.4886C35.6217 29.0483 35.0127 28.4109 34.5653 27.5763C34.1178 26.7418 33.8941 25.7315 33.8941 24.5455C33.8941 23.3558 34.1178 22.3438 34.5653 21.5092C35.0127 20.6747 35.6217 20.0391 36.3923 19.6023C37.1629 19.1619 38.0329 18.9418 39.0024 18.9418C39.9648 18.9418 40.8312 19.1619 41.6018 19.6023C42.376 20.0391 42.9868 20.6747 43.4342 21.5092C43.8852 22.3438 44.1107 23.3558 44.1107 24.5455ZM41.7723 24.5455C41.7723 23.7749 41.6569 23.125 41.426 22.5959C41.1988 22.0668 40.8774 21.6655 40.4619 21.392C40.0464 21.1186 39.5599 20.9819 39.0024 20.9819C38.4449 20.9819 37.9584 21.1186 37.5429 21.392C37.1274 21.6655 36.8042 22.0668 36.5734 22.5959C36.3461 23.125 36.2325 23.7749 36.2325 24.5455C36.2325 25.3161 36.3461 25.9659 36.5734 26.495C36.8042 27.0241 37.1274 27.4254 37.5429 27.6989C37.9584 27.9723 38.4449 28.109 39.0024 28.109C39.5599 28.109 40.0464 27.9723 40.4619 27.6989C40.8774 27.4254 41.1988 27.0241 41.426 26.495C41.6569 25.9659 41.7723 25.3161 41.7723 24.5455ZM52.5575 19.0909H54.864V26.1754C54.864 26.9709 54.674 27.6669 54.294 28.2635C53.9176 28.8601 53.3903 29.3253 52.712 29.6591C52.0337 29.9893 51.2436 30.1545 50.3416 30.1545C49.4361 30.1545 48.6442 29.9893 47.9659 29.6591C47.2876 29.3253 46.7603 28.8601 46.3839 28.2635C46.0075 27.6669 45.8192 26.9709 45.8192 26.1754V19.0909H48.1257V25.9783C48.1257 26.3938 48.2163 26.7631 48.3974 27.0863C48.582 27.4094 48.8413 27.6634 49.1751 27.848C49.5089 28.0327 49.8977 28.125 50.3416 28.125C50.7891 28.125 51.1779 28.0327 51.5082 27.848C51.842 27.6634 52.0994 27.4094 52.2805 27.0863C52.4652 26.7631 52.5575 26.3938 52.5575 25.9783V19.0909ZM56.3461 20.9925V19.0909H65.3057V20.9925H61.9658V30H59.686V20.9925H56.3461Z" fill="white"/>
<path d="M13.1985 57V46.0909H19.9634V47.5078H14.8445V50.8317H19.4787V52.2433H14.8445V57H13.1985ZM21.7572 57V48.8182H23.2966V50.1179H23.3818C23.531 49.6776 23.7938 49.3313 24.1702 49.0792C24.5502 48.8235 24.9798 48.6957 25.4593 48.6957C25.5587 48.6957 25.6759 48.6992 25.8108 48.7063C25.9493 48.7134 26.0576 48.7223 26.1357 48.733V50.2564C26.0718 50.2386 25.9582 50.2191 25.7948 50.1978C25.6315 50.1729 25.4681 50.1605 25.3048 50.1605C24.9284 50.1605 24.5928 50.2404 24.298 50.4002C24.0068 50.5565 23.776 50.7749 23.6056 51.0554C23.4351 51.3324 23.3499 51.6484 23.3499 52.0036V57H21.7572ZM30.6674 57.1651C29.9004 57.1651 29.231 56.9893 28.6593 56.6378C28.0875 56.2862 27.6436 55.7944 27.3276 55.1623C27.0115 54.5302 26.8535 53.7915 26.8535 52.9464C26.8535 52.0977 27.0115 51.3555 27.3276 50.7198C27.6436 50.0842 28.0875 49.5906 28.6593 49.239C29.231 48.8874 29.9004 48.7116 30.6674 48.7116C31.4345 48.7116 32.1039 48.8874 32.6756 49.239C33.2473 49.5906 33.6912 50.0842 34.0073 50.7198C34.3233 51.3555 34.4814 52.0977 34.4814 52.9464C34.4814 53.7915 34.3233 54.5302 34.0073 55.1623C33.6912 55.7944 33.2473 56.2862 32.6756 56.6378C32.1039 56.9893 31.4345 57.1651 30.6674 57.1651ZM30.6728 55.8281C31.1699 55.8281 31.5819 55.6967 31.9086 55.4339C32.2353 55.1712 32.4767 54.8214 32.633 54.3846C32.7928 53.9478 32.8727 53.4666 32.8727 52.9411C32.8727 52.419 32.7928 51.9396 32.633 51.5028C32.4767 51.0625 32.2353 50.7092 31.9086 50.4428C31.5819 50.1765 31.1699 50.0433 30.6728 50.0433C30.1721 50.0433 29.7566 50.1765 29.4263 50.4428C29.0996 50.7092 28.8564 51.0625 28.6966 51.5028C28.5403 51.9396 28.4622 52.419 28.4622 52.9411C28.4622 53.4666 28.5403 53.9478 28.6966 54.3846C28.8564 54.8214 29.0996 55.1712 29.4263 55.4339C29.7566 55.6967 30.1721 55.8281 30.6728 55.8281ZM37.8518 52.142V57H36.2591V48.8182H37.7879V50.1499H37.8891C38.0773 49.7166 38.3721 49.3686 38.7733 49.1058C39.1782 48.843 39.6878 48.7116 40.3021 48.7116C40.8596 48.7116 41.3479 48.8288 41.767 49.0632C42.186 49.294 42.5109 49.6385 42.7417 50.0966C42.9726 50.5547 43.088 51.1211 43.088 51.7958V57H41.4953V51.9876C41.4953 51.3945 41.3408 50.9311 41.0319 50.5973C40.7229 50.2599 40.2986 50.0913 39.7588 50.0913C39.3895 50.0913 39.061 50.1712 38.7733 50.331C38.4893 50.4908 38.2638 50.7251 38.0969 51.0341C37.9335 51.3395 37.8518 51.7088 37.8518 52.142ZM49.0432 48.8182V50.0966H44.5741V48.8182H49.0432ZM45.7726 46.858H47.3653V54.5977C47.3653 54.9066 47.4115 55.1392 47.5038 55.2955C47.5961 55.4482 47.7151 55.5529 47.8607 55.6097C48.0099 55.663 48.1714 55.6896 48.3454 55.6896C48.4733 55.6896 48.5851 55.6808 48.681 55.663C48.7769 55.6452 48.8515 55.631 48.9047 55.6204L49.1924 56.9361C49.1001 56.9716 48.9687 57.0071 48.7982 57.0426C48.6278 57.0817 48.4147 57.103 48.159 57.1065C47.74 57.1136 47.3493 57.0391 46.9871 56.8828C46.6249 56.7266 46.3319 56.4851 46.1082 56.1584C45.8845 55.8317 45.7726 55.4215 45.7726 54.9279V46.858ZM54.2434 57.1651C53.4373 57.1651 52.7431 56.9929 52.1607 56.6484C51.5819 56.3004 51.1344 55.8121 50.8184 55.1836C50.5059 54.5515 50.3496 53.8111 50.3496 52.9624C50.3496 52.1243 50.5059 51.3857 50.8184 50.7464C51.1344 50.1072 51.5748 49.6083 52.1394 49.2496C52.7076 48.891 53.3716 48.7116 54.1316 48.7116C54.5932 48.7116 55.0407 48.788 55.4739 48.9407C55.9071 49.0934 56.296 49.3331 56.6404 49.6598C56.9849 49.9865 57.2566 50.4109 57.4554 50.9329C57.6543 51.4513 57.7537 52.0817 57.7537 52.8239V53.3885H51.2498V52.1953H56.193C56.193 51.7763 56.1078 51.4052 55.9373 51.082C55.7669 50.7553 55.5272 50.4979 55.2182 50.3097C54.9128 50.1214 54.5542 50.0273 54.1422 50.0273C53.6948 50.0273 53.3042 50.1374 52.9703 50.3576C52.6401 50.5742 52.3844 50.8583 52.2033 51.2099C52.0257 51.5579 51.937 51.9361 51.937 52.3445V53.2766C51.937 53.8235 52.0328 54.2887 52.2246 54.6722C52.4199 55.0558 52.6916 55.3487 53.0396 55.5511C53.3876 55.75 53.7942 55.8494 54.2594 55.8494C54.5613 55.8494 54.8365 55.8068 55.085 55.7216C55.3336 55.6328 55.5485 55.5014 55.7296 55.3274C55.9107 55.1534 56.0492 54.9386 56.1451 54.6829L57.6525 54.9545C57.5318 55.3984 57.3152 55.7873 57.0027 56.1211C56.6937 56.4513 56.3049 56.7088 55.8361 56.8935C55.3709 57.0746 54.84 57.1651 54.2434 57.1651ZM61.1135 52.142V57H59.5209V48.8182H61.0496V50.1499H61.1508C61.339 49.7166 61.6338 49.3686 62.0351 49.1058C62.4399 48.843 62.9495 48.7116 63.5638 48.7116C64.1214 48.7116 64.6096 48.8288 65.0287 49.0632C65.4477 49.294 65.7726 49.6385 66.0035 50.0966C66.2343 50.5547 66.3497 51.1211 66.3497 51.7958V57H64.757V51.9876C64.757 51.3945 64.6025 50.9311 64.2936 50.5973C63.9846 50.2599 63.5603 50.0913 63.0205 50.0913C62.6512 50.0913 62.3227 50.1712 62.0351 50.331C61.751 50.4908 61.5255 50.7251 61.3586 51.0341C61.1952 51.3395 61.1135 51.7088 61.1135 52.142ZM71.5486 57.1598C70.8881 57.1598 70.2986 56.9911 69.7801 56.6538C69.2652 56.3129 68.8604 55.8281 68.5656 55.1996C68.2744 54.5675 68.1288 53.8093 68.1288 52.9251C68.1288 52.0408 68.2762 51.2844 68.5709 50.6559C68.8692 50.0273 69.2776 49.5462 69.7961 49.2124C70.3145 48.8786 70.9023 48.7116 71.5592 48.7116C72.067 48.7116 72.4754 48.7969 72.7844 48.9673C73.0969 49.1342 73.3383 49.3295 73.5088 49.5533C73.6828 49.777 73.8177 49.9741 73.9136 50.1445H74.0095V46.0909H75.6022V57H74.0468V55.7269H73.9136C73.8177 55.9009 73.6792 56.0998 73.4981 56.3235C73.3206 56.5472 73.0756 56.7425 72.7631 56.9094C72.4506 57.0763 72.0457 57.1598 71.5486 57.1598ZM71.9001 55.8015C72.3582 55.8015 72.7453 55.6808 73.0613 55.4393C73.3809 55.1942 73.6224 54.8551 73.7858 54.4219C73.9527 53.9886 74.0361 53.4844 74.0361 52.9091C74.0361 52.3409 73.9545 51.8437 73.7911 51.4176C73.6278 50.9915 73.3881 50.6594 73.072 50.4215C72.7559 50.1836 72.3653 50.0646 71.9001 50.0646C71.4207 50.0646 71.0212 50.1889 70.7016 50.4375C70.382 50.6861 70.1405 51.0252 69.9772 51.4549C69.8174 51.8846 69.7375 52.3693 69.7375 52.9091C69.7375 53.456 69.8192 53.9478 69.9825 54.3846C70.1459 54.8214 70.3873 55.1676 70.7069 55.4233C71.0301 55.6754 71.4278 55.8015 71.9001 55.8015ZM84.9079 57.1598C84.2474 57.1598 83.6579 56.9911 83.1395 56.6538C82.6246 56.3129 82.2197 55.8281 81.925 55.1996C81.6338 54.5675 81.4882 53.8093 81.4882 52.9251C81.4882 52.0408 81.6356 51.2844 81.9303 50.6559C82.2286 50.0273 82.637 49.5462 83.1555 49.2124C83.6739 48.8786 84.2616 48.7116 84.9186 48.7116C85.4264 48.7116 85.8348 48.7969 86.1437 48.9673C86.4562 49.1342 86.6977 49.3295 86.8682 49.5533C87.0422 49.777 87.1771 49.9741 87.273 50.1445H87.3689V46.0909H88.9616V57H87.4062V55.7269H87.273C87.1771 55.9009 87.0386 56.0998 86.8575 56.3235C86.68 56.5472 86.4349 56.7425 86.1224 56.9094C85.8099 57.0763 85.4051 57.1598 84.9079 57.1598ZM85.2595 55.8015C85.7176 55.8015 86.1047 55.6808 86.4207 55.4393C86.7403 55.1942 86.9818 54.8551 87.1452 54.4219C87.3121 53.9886 87.3955 53.4844 87.3955 52.9091C87.3955 52.3409 87.3138 51.8437 87.1505 51.4176C86.9871 50.9915 86.7474 50.6594 86.4314 50.4215C86.1153 50.1836 85.7247 50.0646 85.2595 50.0646C84.7801 50.0646 84.3806 50.1889 84.061 50.4375C83.7414 50.6861 83.4999 51.0252 83.3366 51.4549C83.1768 51.8846 83.0969 52.3693 83.0969 52.9091C83.0969 53.456 83.1785 53.9478 83.3419 54.3846C83.5052 54.8214 83.7467 55.1676 84.0663 55.4233C84.3895 55.6754 84.7872 55.8015 85.2595 55.8015ZM94.761 57.1651C93.9549 57.1651 93.2607 56.9929 92.6783 56.6484C92.0994 56.3004 91.652 55.8121 91.3359 55.1836C91.0234 54.5515 90.8672 53.8111 90.8672 52.9624C90.8672 52.1243 91.0234 51.3857 91.3359 50.7464C91.652 50.1072 92.0923 49.6083 92.657 49.2496C93.2251 48.891 93.8892 48.7116 94.6491 48.7116C95.1108 48.7116 95.5582 48.788 95.9915 48.9407C96.4247 49.0934 96.8136 49.3331 97.158 49.6598C97.5025 49.9865 97.7741 50.4109 97.973 50.9329C98.1719 51.4513 98.2713 52.0817 98.2713 52.8239V53.3885H91.7674V52.1953H96.7106C96.7106 51.7763 96.6254 51.4052 96.4549 51.082C96.2844 50.7553 96.0447 50.4979 95.7358 50.3097C95.4304 50.1214 95.0717 50.0273 94.6598 50.0273C94.2124 50.0273 93.8217 50.1374 93.4879 50.3576C93.1577 50.5742 92.902 50.8583 92.7209 51.2099C92.5433 51.5579 92.4545 51.9361 92.4545 52.3445V53.2766C92.4545 53.8235 92.5504 54.2887 92.7422 54.6722C92.9375 55.0558 93.2092 55.3487 93.5572 55.5511C93.9052 55.75 94.3118 55.8494 94.777 55.8494C95.0788 55.8494 95.354 55.8068 95.6026 55.7216C95.8512 55.6328 96.0661 55.5014 96.2472 55.3274C96.4283 55.1534 96.5668 54.9386 96.6626 54.6829L98.1701 54.9545C98.0494 55.3984 97.8327 55.7873 97.5202 56.1211C97.2113 56.4513 96.8224 56.7088 96.3537 56.8935C95.8885 57.0746 95.3576 57.1651 94.761 57.1651ZM106.803 48.8182L103.836 57H102.132L99.1595 48.8182H100.869L102.941 55.1143H103.027L105.093 48.8182H106.803ZM111.548 57.1651C110.742 57.1651 110.048 56.9929 109.465 56.6484C108.887 56.3004 108.439 55.8121 108.123 55.1836C107.811 54.5515 107.654 53.8111 107.654 52.9624C107.654 52.1243 107.811 51.3857 108.123 50.7464C108.439 50.1072 108.879 49.6083 109.444 49.2496C110.012 48.891 110.676 48.7116 111.436 48.7116C111.898 48.7116 112.345 48.788 112.779 48.9407C113.212 49.0934 113.601 49.3331 113.945 49.6598C114.29 49.9865 114.561 50.4109 114.76 50.9329C114.959 51.4513 115.058 52.0817 115.058 52.8239V53.3885H108.555V52.1953H113.498C113.498 51.7763 113.412 51.4052 113.242 51.082C113.072 50.7553 112.832 50.4979 112.523 50.3097C112.218 50.1214 111.859 50.0273 111.447 50.0273C110.999 50.0273 110.609 50.1374 110.275 50.3576C109.945 50.5742 109.689 50.8583 109.508 51.2099C109.33 51.5579 109.242 51.9361 109.242 52.3445V53.2766C109.242 53.8235 109.338 54.2887 109.529 54.6722C109.725 55.0558 109.996 55.3487 110.344 55.5511C110.692 55.75 111.099 55.8494 111.564 55.8494C111.866 55.8494 112.141 55.8068 112.39 55.7216C112.638 55.6328 112.853 55.5014 113.034 55.3274C113.215 55.1534 113.354 54.9386 113.45 54.6829L114.957 54.9545C114.836 55.3984 114.62 55.7873 114.307 56.1211C113.998 56.4513 113.61 56.7088 113.141 56.8935C112.676 57.0746 112.145 57.1651 111.548 57.1651ZM118.418 46.0909V57H116.826V46.0909H118.418ZM124.007 57.1651C123.24 57.1651 122.571 56.9893 121.999 56.6378C121.427 56.2862 120.983 55.7944 120.667 55.1623C120.351 54.5302 120.193 53.7915 120.193 52.9464C120.193 52.0977 120.351 51.3555 120.667 50.7198C120.983 50.0842 121.427 49.5906 121.999 49.239C122.571 48.8874 123.24 48.7116 124.007 48.7116C124.774 48.7116 125.444 48.8874 126.015 49.239C126.587 49.5906 127.031 50.0842 127.347 50.7198C127.663 51.3555 127.821 52.0977 127.821 52.9464C127.821 53.7915 127.663 54.5302 127.347 55.1623C127.031 55.7944 126.587 56.2862 126.015 56.6378C125.444 56.9893 124.774 57.1651 124.007 57.1651ZM124.013 55.8281C124.51 55.8281 124.922 55.6967 125.248 55.4339C125.575 55.1712 125.817 54.8214 125.973 54.3846C126.133 53.9478 126.213 53.4666 126.213 52.9411C126.213 52.419 126.133 51.9396 125.973 51.5028C125.817 51.0625 125.575 50.7092 125.248 50.4428C124.922 50.1765 124.51 50.0433 124.013 50.0433C123.512 50.0433 123.096 50.1765 122.766 50.4428C122.439 50.7092 122.196 51.0625 122.036 51.5028C121.88 51.9396 121.802 52.419 121.802 52.9411C121.802 53.4666 121.88 53.9478 122.036 54.3846C122.196 54.8214 122.439 55.1712 122.766 55.4339C123.096 55.6967 123.512 55.8281 124.013 55.8281ZM129.599 60.0682V48.8182H131.154V50.1445H131.288C131.38 49.9741 131.513 49.777 131.687 49.5533C131.861 49.3295 132.103 49.1342 132.411 48.9673C132.72 48.7969 133.129 48.7116 133.637 48.7116C134.297 48.7116 134.887 48.8786 135.405 49.2124C135.924 49.5462 136.33 50.0273 136.625 50.6559C136.923 51.2844 137.072 52.0408 137.072 52.9251C137.072 53.8093 136.925 54.5675 136.63 55.1996C136.335 55.8281 135.931 56.3129 135.416 56.6538C134.901 56.9911 134.313 57.1598 133.653 57.1598C133.155 57.1598 132.749 57.0763 132.433 56.9094C132.12 56.7425 131.875 56.5472 131.698 56.3235C131.52 56.0998 131.383 55.9009 131.288 55.7269H131.192V60.0682H129.599ZM131.16 52.9091C131.16 53.4844 131.243 53.9886 131.41 54.4219C131.577 54.8551 131.818 55.1942 132.134 55.4393C132.451 55.6808 132.838 55.8015 133.296 55.8015C133.772 55.8015 134.169 55.6754 134.489 55.4233C134.809 55.1676 135.05 54.8214 135.213 54.3846C135.38 53.9478 135.464 53.456 135.464 52.9091C135.464 52.3693 135.382 51.8846 135.219 51.4549C135.059 51.0252 134.817 50.6861 134.494 50.4375C134.175 50.1889 133.775 50.0646 133.296 50.0646C132.834 50.0646 132.443 50.1836 132.124 50.4215C131.808 50.6594 131.568 50.9915 131.405 51.4176C131.241 51.8437 131.16 52.3409 131.16 52.9091ZM142.383 57.1651C141.577 57.1651 140.883 56.9929 140.3 56.6484C139.722 56.3004 139.274 55.8121 138.958 55.1836C138.646 54.5515 138.489 53.8111 138.489 52.9624C138.489 52.1243 138.646 51.3857 138.958 50.7464C139.274 50.1072 139.714 49.6083 140.279 49.2496C140.847 48.891 141.511 48.7116 142.271 48.7116C142.733 48.7116 143.18 48.788 143.614 48.9407C144.047 49.0934 144.436 49.3331 144.78 49.6598C145.125 49.9865 145.396 50.4109 145.595 50.9329C145.794 51.4513 145.893 52.0817 145.893 52.8239V53.3885H139.389V52.1953H144.333C144.333 51.7763 144.247 51.4052 144.077 51.082C143.907 50.7553 143.667 50.4979 143.358 50.3097C143.052 50.1214 142.694 50.0273 142.282 50.0273C141.834 50.0273 141.444 50.1374 141.11 50.3576C140.78 50.5742 140.524 50.8583 140.343 51.2099C140.165 51.5579 140.077 51.9361 140.077 52.3445V53.2766C140.077 53.8235 140.172 54.2887 140.364 54.6722C140.56 55.0558 140.831 55.3487 141.179 55.5511C141.527 55.75 141.934 55.8494 142.399 55.8494C142.701 55.8494 142.976 55.8068 143.225 55.7216C143.473 55.6328 143.688 55.5014 143.869 55.3274C144.05 55.1534 144.189 54.9386 144.285 54.6829L145.792 54.9545C145.671 55.3984 145.455 55.7873 145.142 56.1211C144.833 56.4513 144.445 56.7088 143.976 56.8935C143.511 57.0746 142.98 57.1651 142.383 57.1651ZM147.661 57V48.8182H149.2V50.1179H149.285C149.434 49.6776 149.697 49.3313 150.074 49.0792C150.453 48.8235 150.883 48.6957 151.363 48.6957C151.462 48.6957 151.579 48.6992 151.714 48.7063C151.853 48.7134 151.961 48.7223 152.039 48.733V50.2564C151.975 50.2386 151.862 50.2191 151.698 50.1978C151.535 50.1729 151.371 50.1605 151.208 50.1605C150.832 50.1605 150.496 50.2404 150.201 50.4002C149.91 50.5565 149.679 50.7749 149.509 51.0554C149.338 51.3324 149.253 51.6484 149.253 52.0036V57H147.661ZM161.281 48.8182V50.0966H156.657V48.8182H161.281ZM157.925 57V47.87C157.925 47.3587 158.037 46.9343 158.261 46.5969C158.484 46.256 158.781 46.0021 159.15 45.8352C159.52 45.6648 159.921 45.5795 160.354 45.5795C160.674 45.5795 160.947 45.6062 161.174 45.6594C161.402 45.7092 161.57 45.7553 161.68 45.7979L161.308 47.087C161.233 47.0657 161.137 47.0408 161.02 47.0124C160.903 46.9805 160.761 46.9645 160.594 46.9645C160.207 46.9645 159.93 47.0604 159.763 47.2521C159.599 47.4439 159.518 47.7209 159.518 48.0831V57H157.925ZM166.048 57.1651C165.281 57.1651 164.612 56.9893 164.04 56.6378C163.468 56.2862 163.025 55.7944 162.708 55.1623C162.392 54.5302 162.234 53.7915 162.234 52.9464C162.234 52.0977 162.392 51.3555 162.708 50.7198C163.025 50.0842 163.468 49.5906 164.04 49.239C164.612 48.8874 165.281 48.7116 166.048 48.7116C166.815 48.7116 167.485 48.8874 168.056 49.239C168.628 49.5906 169.072 50.0842 169.388 50.7198C169.704 51.3555 169.862 52.0977 169.862 52.9464C169.862 53.7915 169.704 54.5302 169.388 55.1623C169.072 55.7944 168.628 56.2862 168.056 56.6378C167.485 56.9893 166.815 57.1651 166.048 57.1651ZM166.054 55.8281C166.551 55.8281 166.963 55.6967 167.289 55.4339C167.616 55.1712 167.858 54.8214 168.014 54.3846C168.174 53.9478 168.254 53.4666 168.254 52.9411C168.254 52.419 168.174 51.9396 168.014 51.5028C167.858 51.0625 167.616 50.7092 167.289 50.4428C166.963 50.1765 166.551 50.0433 166.054 50.0433C165.553 50.0433 165.137 50.1765 164.807 50.4428C164.48 50.7092 164.237 51.0625 164.077 51.5028C163.921 51.9396 163.843 52.419 163.843 52.9411C163.843 53.4666 163.921 53.9478 164.077 54.3846C164.237 54.8214 164.48 55.1712 164.807 55.4339C165.137 55.6967 165.553 55.8281 166.054 55.8281ZM175.086 57.1651C174.294 57.1651 173.613 56.9858 173.041 56.6271C172.473 56.2649 172.036 55.766 171.731 55.1303C171.425 54.4947 171.272 53.7667 171.272 52.9464C171.272 52.1154 171.429 51.3821 171.741 50.7464C172.054 50.1072 172.494 49.6083 173.062 49.2496C173.63 48.891 174.3 48.7116 175.07 48.7116C175.692 48.7116 176.246 48.8271 176.732 49.0579C177.219 49.2852 177.611 49.6048 177.91 50.0167C178.211 50.4286 178.391 50.9098 178.448 51.4602H176.897C176.812 51.0767 176.617 50.7464 176.312 50.4695C176.01 50.1925 175.605 50.054 175.097 50.054C174.653 50.054 174.264 50.1712 173.93 50.4055C173.6 50.6364 173.343 50.9666 173.158 51.3963C172.973 51.8224 172.881 52.3267 172.881 52.9091C172.881 53.5057 172.972 54.0206 173.153 54.4538C173.334 54.8871 173.59 55.2227 173.92 55.4606C174.254 55.6985 174.646 55.8175 175.097 55.8175C175.399 55.8175 175.672 55.7624 175.917 55.6523C176.166 55.5387 176.374 55.3771 176.541 55.1676C176.711 54.9581 176.83 54.706 176.897 54.4112H178.448C178.391 54.9403 178.218 55.4126 177.931 55.8281C177.643 56.2436 177.258 56.5703 176.775 56.8082C176.296 57.0462 175.733 57.1651 175.086 57.1651ZM185.334 53.6069V48.8182H186.932V57H185.366V55.5831H185.28C185.092 56.0199 184.79 56.3839 184.375 56.6751C183.963 56.9627 183.45 57.1065 182.835 57.1065C182.31 57.1065 181.845 56.9911 181.44 56.7603C181.039 56.5259 180.722 56.1797 180.492 55.7216C180.264 55.2635 180.151 54.6971 180.151 54.0224V48.8182H181.743V53.8306C181.743 54.3881 181.898 54.832 182.207 55.1623C182.516 55.4925 182.917 55.6577 183.411 55.6577C183.709 55.6577 184.006 55.5831 184.3 55.4339C184.599 55.2848 184.845 55.0593 185.041 54.7575C185.24 54.4556 185.337 54.0721 185.334 53.6069ZM195.203 50.8157L193.759 51.0714C193.699 50.8867 193.603 50.7109 193.472 50.544C193.344 50.3771 193.17 50.2404 192.949 50.1339C192.729 50.0273 192.454 49.9741 192.124 49.9741C191.673 49.9741 191.296 50.0753 190.995 50.2777C190.693 50.4766 190.542 50.734 190.542 51.0501C190.542 51.3235 190.643 51.5437 190.845 51.7106C191.048 51.8775 191.375 52.0142 191.826 52.1207L193.125 52.419C193.878 52.593 194.439 52.8612 194.809 53.2234C195.178 53.5856 195.362 54.0561 195.362 54.6349C195.362 55.125 195.22 55.5618 194.936 55.9453C194.656 56.3253 194.263 56.6236 193.759 56.8402C193.258 57.0568 192.678 57.1651 192.017 57.1651C191.101 57.1651 190.354 56.9698 189.775 56.5792C189.196 56.185 188.841 55.6257 188.709 54.9013L190.249 54.6669C190.345 55.0682 190.542 55.3718 190.84 55.5778C191.138 55.7802 191.527 55.8814 192.007 55.8814C192.529 55.8814 192.946 55.7731 193.258 55.5565C193.571 55.3363 193.727 55.0682 193.727 54.7521C193.727 54.4964 193.631 54.2816 193.44 54.1076C193.251 53.9336 192.962 53.8022 192.571 53.7134L191.186 53.4098C190.423 53.2358 189.858 52.9588 189.492 52.5788C189.13 52.1989 188.949 51.7177 188.949 51.1353C188.949 50.6523 189.084 50.2298 189.354 49.8675C189.624 49.5053 189.997 49.223 190.473 49.0206C190.948 48.8146 191.494 48.7116 192.108 48.7116C192.992 48.7116 193.688 48.9034 194.196 49.2869C194.704 49.6669 195.039 50.1765 195.203 50.8157ZM200.64 57.1651C199.834 57.1651 199.14 56.9929 198.557 56.6484C197.978 56.3004 197.531 55.8121 197.215 55.1836C196.902 54.5515 196.746 53.8111 196.746 52.9624C196.746 52.1243 196.902 51.3857 197.215 50.7464C197.531 50.1072 197.971 49.6083 198.536 49.2496C199.104 48.891 199.768 48.7116 200.528 48.7116C200.99 48.7116 201.437 48.788 201.87 48.9407C202.304 49.0934 202.692 49.3331 203.037 49.6598C203.381 49.9865 203.653 50.4109 203.852 50.9329C204.051 51.4513 204.15 52.0817 204.15 52.8239V53.3885H197.646V52.1953H202.589C202.589 51.7763 202.504 51.4052 202.334 51.082C202.163 50.7553 201.924 50.4979 201.615 50.3097C201.309 50.1214 200.951 50.0273 200.539 50.0273C200.091 50.0273 199.701 50.1374 199.367 50.3576C199.037 50.5742 198.781 50.8583 198.6 51.2099C198.422 51.5579 198.333 51.9361 198.333 52.3445V53.2766C198.333 53.8235 198.429 54.2887 198.621 54.6722C198.816 55.0558 199.088 55.3487 199.436 55.5511C199.784 55.75 200.191 55.8494 200.656 55.8494C200.958 55.8494 201.233 55.8068 201.482 55.7216C201.73 55.6328 201.945 55.5014 202.126 55.3274C202.307 55.1534 202.446 54.9386 202.542 54.6829L204.049 54.9545C203.928 55.3984 203.712 55.7873 203.399 56.1211C203.09 56.4513 202.701 56.7088 202.233 56.8935C201.767 57.0746 201.237 57.1651 200.64 57.1651ZM208.98 57.1598C208.32 57.1598 207.73 56.9911 207.212 56.6538C206.697 56.3129 206.292 55.8281 205.997 55.1996C205.706 54.5675 205.56 53.8093 205.56 52.9251C205.56 52.0408 205.708 51.2844 206.003 50.6559C206.301 50.0273 206.709 49.5462 207.228 49.2124C207.746 48.8786 208.334 48.7116 208.991 48.7116C209.499 48.7116 209.907 48.7969 210.216 48.9673C210.528 49.1342 210.77 49.3295 210.94 49.5533C211.114 49.777 211.249 49.9741 211.345 50.1445H211.441V46.0909H213.034V57H211.478V55.7269H211.345C211.249 55.9009 211.111 56.0998 210.93 56.3235C210.752 56.5472 210.507 56.7425 210.195 56.9094C209.882 57.0763 209.477 57.1598 208.98 57.1598ZM209.332 55.8015C209.79 55.8015 210.177 55.6808 210.493 55.4393C210.813 55.1942 211.054 54.8551 211.217 54.4219C211.384 53.9886 211.468 53.4844 211.468 52.9091C211.468 52.3409 211.386 51.8437 211.223 51.4176C211.059 50.9915 210.82 50.6594 210.504 50.4215C210.188 50.1836 209.797 50.0646 209.332 50.0646C208.852 50.0646 208.453 50.1889 208.133 50.4375C207.814 50.6861 207.572 51.0252 207.409 51.4549C207.249 51.8846 207.169 52.3693 207.169 52.9091C207.169 53.456 207.251 53.9478 207.414 54.3846C207.578 54.8214 207.819 55.1676 208.139 55.4233C208.462 55.6754 208.859 55.8015 209.332 55.8015ZM222.723 57.1651C221.956 57.1651 221.287 56.9893 220.715 56.6378C220.143 56.2862 219.699 55.7944 219.383 55.1623C219.067 54.5302 218.909 53.7915 218.909 52.9464C218.909 52.0977 219.067 51.3555 219.383 50.7198C219.699 50.0842 220.143 49.5906 220.715 49.239C221.287 48.8874 221.956 48.7116 222.723 48.7116C223.49 48.7116 224.16 48.8874 224.731 49.239C225.303 49.5906 225.747 50.0842 226.063 50.7198C226.379 51.3555 226.537 52.0977 226.537 52.9464C226.537 53.7915 226.379 54.5302 226.063 55.1623C225.747 55.7944 225.303 56.2862 224.731 56.6378C224.16 56.9893 223.49 57.1651 222.723 57.1651ZM222.728 55.8281C223.226 55.8281 223.638 55.6967 223.964 55.4339C224.291 55.1712 224.532 54.8214 224.689 54.3846C224.848 53.9478 224.928 53.4666 224.928 52.9411C224.928 52.419 224.848 51.9396 224.689 51.5028C224.532 51.0625 224.291 50.7092 223.964 50.4428C223.638 50.1765 223.226 50.0433 222.728 50.0433C222.228 50.0433 221.812 50.1765 221.482 50.4428C221.155 50.7092 220.912 51.0625 220.752 51.5028C220.596 51.9396 220.518 52.419 220.518 52.9411C220.518 53.4666 220.596 53.9478 220.752 54.3846C220.912 54.8214 221.155 55.1712 221.482 55.4339C221.812 55.6967 222.228 55.8281 222.728 55.8281ZM229.907 52.142V57H228.315V48.8182H229.844V50.1499H229.945C230.133 49.7166 230.428 49.3686 230.829 49.1058C231.234 48.843 231.743 48.7116 232.358 48.7116C232.915 48.7116 233.404 48.8288 233.823 49.0632C234.242 49.294 234.567 49.6385 234.797 50.0966C235.028 50.5547 235.144 51.1211 235.144 51.7958V57H233.551V51.9876C233.551 51.3945 233.396 50.9311 233.088 50.5973C232.779 50.2599 232.354 50.0913 231.814 50.0913C231.445 50.0913 231.117 50.1712 230.829 50.331C230.545 50.4908 230.319 50.7251 230.153 51.0341C229.989 51.3395 229.907 51.7088 229.907 52.142ZM244.696 57.1651C243.904 57.1651 243.222 56.9858 242.65 56.6271C242.082 56.2649 241.645 55.766 241.34 55.1303C241.035 54.4947 240.882 53.7667 240.882 52.9464C240.882 52.1154 241.038 51.3821 241.351 50.7464C241.663 50.1072 242.103 49.6083 242.672 49.2496C243.24 48.891 243.909 48.7116 244.68 48.7116C245.301 48.7116 245.855 48.8271 246.342 49.0579C246.828 49.2852 247.221 49.6048 247.519 50.0167C247.821 50.4286 248 50.9098 248.057 51.4602H246.507C246.422 51.0767 246.226 50.7464 245.921 50.4695C245.619 50.1925 245.214 50.054 244.706 50.054C244.263 50.054 243.874 50.1712 243.54 50.4055C243.21 50.6364 242.952 50.9666 242.767 51.3963C242.583 51.8224 242.491 52.3267 242.491 52.9091C242.491 53.5057 242.581 54.0206 242.762 54.4538C242.943 54.8871 243.199 55.2227 243.529 55.4606C243.863 55.6985 244.255 55.8175 244.706 55.8175C245.008 55.8175 245.282 55.7624 245.527 55.6523C245.775 55.5387 245.983 55.3771 246.15 55.1676C246.32 54.9581 246.439 54.706 246.507 54.4112H248.057C248 54.9403 247.828 55.4126 247.54 55.8281C247.253 56.2436 246.867 56.5703 246.384 56.8082C245.905 57.0462 245.342 57.1651 244.696 57.1651ZM251.353 46.0909V57H249.76V46.0909H251.353ZM257.022 57.1651C256.216 57.1651 255.521 56.9929 254.939 56.6484C254.36 56.3004 253.913 55.8121 253.597 55.1836C253.284 54.5515 253.128 53.8111 253.128 52.9624C253.128 52.1243 253.284 51.3857 253.597 50.7464C253.913 50.1072 254.353 49.6083 254.918 49.2496C255.486 48.891 256.15 48.7116 256.91 48.7116C257.372 48.7116 257.819 48.788 258.252 48.9407C258.685 49.0934 259.074 49.3331 259.419 49.6598C259.763 49.9865 260.035 50.4109 260.234 50.9329C260.433 51.4513 260.532 52.0817 260.532 52.8239V53.3885H254.028V52.1953H258.971C258.971 51.7763 258.886 51.4052 258.716 51.082C258.545 50.7553 258.305 50.4979 257.997 50.3097C257.691 50.1214 257.332 50.0273 256.921 50.0273C256.473 50.0273 256.082 50.1374 255.749 50.3576C255.418 50.5742 255.163 50.8583 254.982 51.2099C254.804 51.5579 254.715 51.9361 254.715 52.3445V53.2766C254.715 53.8235 254.811 54.2887 255.003 54.6722C255.198 55.0558 255.47 55.3487 255.818 55.5511C256.166 55.75 256.573 55.8494 257.038 55.8494C257.34 55.8494 257.615 55.8068 257.863 55.7216C258.112 55.6328 258.327 55.5014 258.508 55.3274C258.689 55.1534 258.828 54.9386 258.923 54.6829L260.431 54.9545C260.31 55.3984 260.093 55.7873 259.781 56.1211C259.472 56.4513 259.083 56.7088 258.614 56.8935C258.149 57.0746 257.618 57.1651 257.022 57.1651ZM264.68 57.1811C264.162 57.1811 263.693 57.0852 263.274 56.8935C262.855 56.6982 262.523 56.4158 262.278 56.0465C262.036 55.6772 261.916 55.2244 261.916 54.6882C261.916 54.2266 262.004 53.8466 262.182 53.5483C262.36 53.25 262.599 53.0138 262.901 52.8398C263.203 52.6658 263.54 52.5344 263.913 52.4457C264.286 52.3569 264.666 52.2894 265.053 52.2433C265.543 52.1864 265.941 52.1403 266.246 52.1048C266.552 52.0657 266.774 52.0036 266.912 51.9183C267.051 51.8331 267.12 51.6946 267.12 51.5028V51.4656C267.12 51.0004 266.988 50.6399 266.726 50.3842C266.466 50.1286 266.079 50.0007 265.564 50.0007C265.028 50.0007 264.606 50.1197 264.297 50.3576C263.991 50.592 263.78 50.853 263.663 51.1406L262.166 50.7997C262.344 50.3026 262.603 49.9013 262.944 49.5959C263.288 49.2869 263.684 49.0632 264.132 48.9247C264.579 48.7827 265.05 48.7116 265.543 48.7116C265.87 48.7116 266.216 48.7507 266.582 48.8288C266.951 48.9034 267.296 49.0419 267.615 49.2443C267.938 49.4467 268.203 49.7362 268.409 50.1126C268.615 50.4854 268.718 50.9702 268.718 51.5668V57H267.162V55.8814H267.099C266.996 56.0874 266.841 56.2898 266.635 56.4886C266.429 56.6875 266.165 56.8526 265.841 56.984C265.518 57.1154 265.131 57.1811 264.68 57.1811ZM265.026 55.9027C265.467 55.9027 265.843 55.8157 266.156 55.6417C266.472 55.4677 266.711 55.2404 266.875 54.9599C267.042 54.6758 267.125 54.3722 267.125 54.049V52.9943C267.068 53.0511 266.958 53.1044 266.795 53.1541C266.635 53.2003 266.452 53.2411 266.246 53.2766C266.04 53.3086 265.84 53.3388 265.644 53.3672C265.449 53.392 265.286 53.4134 265.154 53.4311C264.845 53.4702 264.563 53.5359 264.307 53.6282C264.055 53.7205 263.853 53.8537 263.7 54.0277C263.551 54.1982 263.476 54.4254 263.476 54.7095C263.476 55.1037 263.622 55.402 263.913 55.6044C264.204 55.8033 264.575 55.9027 265.026 55.9027ZM272.432 52.142V57H270.839V48.8182H272.368V50.1499H272.469C272.657 49.7166 272.952 49.3686 273.353 49.1058C273.758 48.843 274.268 48.7116 274.882 48.7116C275.44 48.7116 275.928 48.8288 276.347 49.0632C276.766 49.294 277.091 49.6385 277.322 50.0966C277.553 50.5547 277.668 51.1211 277.668 51.7958V57H276.075V51.9876C276.075 51.3945 275.921 50.9311 275.612 50.5973C275.303 50.2599 274.879 50.0913 274.339 50.0913C273.97 50.0913 273.641 50.1712 273.353 50.331C273.069 50.4908 272.844 50.7251 272.677 51.0341C272.514 51.3395 272.432 51.7088 272.432 52.142ZM281.876 55.5085L281.796 56.0891C281.743 56.5153 281.652 56.9592 281.525 57.4208C281.4 57.886 281.271 58.3175 281.136 58.7152C281.004 59.1129 280.896 59.429 280.811 59.6634H279.682C279.728 59.4432 279.792 59.1449 279.873 58.7685C279.955 58.3956 280.035 57.9783 280.113 57.5167C280.191 57.055 280.25 56.5845 280.289 56.1051L280.342 55.5085H281.876ZM294.05 50.8157L292.607 51.0714C292.546 50.8867 292.451 50.7109 292.319 50.544C292.191 50.3771 292.017 50.2404 291.797 50.1339C291.577 50.0273 291.302 49.9741 290.972 49.9741C290.521 49.9741 290.144 50.0753 289.842 50.2777C289.54 50.4766 289.389 50.734 289.389 51.0501C289.389 51.3235 289.491 51.5437 289.693 51.7106C289.896 51.8775 290.222 52.0142 290.673 52.1207L291.973 52.419C292.726 52.593 293.287 52.8612 293.656 53.2234C294.025 53.5856 294.21 54.0561 294.21 54.6349C294.21 55.125 294.068 55.5618 293.784 55.9453C293.503 56.3253 293.111 56.6236 292.607 56.8402C292.106 57.0568 291.525 57.1651 290.865 57.1651C289.949 57.1651 289.201 56.9698 288.622 56.5792C288.044 56.185 287.688 55.6257 287.557 54.9013L289.097 54.6669C289.192 55.0682 289.389 55.3718 289.688 55.5778C289.986 55.7802 290.375 55.8814 290.854 55.8814C291.376 55.8814 291.794 55.7731 292.106 55.5565C292.419 55.3363 292.575 55.0682 292.575 54.7521C292.575 54.4964 292.479 54.2816 292.287 54.1076C292.099 53.9336 291.81 53.8022 291.419 53.7134L290.034 53.4098C289.271 53.2358 288.706 52.9588 288.34 52.5788C287.978 52.1989 287.797 51.7177 287.797 51.1353C287.797 50.6523 287.932 50.2298 288.202 49.8675C288.472 49.5053 288.844 49.223 289.32 49.0206C289.796 48.8146 290.341 48.7116 290.956 48.7116C291.84 48.7116 292.536 48.9034 293.044 49.2869C293.551 49.6669 293.887 50.1765 294.05 50.8157ZM299.781 48.8182V50.0966H295.311V48.8182H299.781ZM296.51 46.858H298.103V54.5977C298.103 54.9066 298.149 55.1392 298.241 55.2955C298.333 55.4482 298.452 55.5529 298.598 55.6097C298.747 55.663 298.909 55.6896 299.083 55.6896C299.211 55.6896 299.322 55.6808 299.418 55.663C299.514 55.6452 299.589 55.631 299.642 55.6204L299.93 56.9361C299.837 56.9716 299.706 57.0071 299.536 57.0426C299.365 57.0817 299.152 57.103 298.896 57.1065C298.477 57.1136 298.087 57.0391 297.724 56.8828C297.362 56.7266 297.069 56.4851 296.846 56.1584C296.622 55.8317 296.51 55.4215 296.51 54.9279V46.858ZM301.542 57V48.8182H303.082V50.1179H303.167C303.316 49.6776 303.579 49.3313 303.955 49.0792C304.335 48.8235 304.765 48.6957 305.244 48.6957C305.344 48.6957 305.461 48.6992 305.596 48.7063C305.734 48.7134 305.843 48.7223 305.921 48.733V50.2564C305.857 50.2386 305.743 50.2191 305.58 50.1978C305.417 50.1729 305.253 50.1605 305.09 50.1605C304.714 50.1605 304.378 50.2404 304.083 50.4002C303.792 50.5565 303.561 50.7749 303.391 51.0554C303.22 51.3324 303.135 51.6484 303.135 52.0036V57H301.542ZM312.482 53.6069V48.8182H314.08V57H312.514V55.5831H312.429C312.241 56.0199 311.939 56.3839 311.523 56.6751C311.111 56.9627 310.598 57.1065 309.984 57.1065C309.458 57.1065 308.993 56.9911 308.588 56.7603C308.187 56.5259 307.871 56.1797 307.64 55.7216C307.413 55.2635 307.299 54.6971 307.299 54.0224V48.8182H308.892V53.8306C308.892 54.3881 309.046 54.832 309.355 55.1623C309.664 55.4925 310.066 55.6577 310.559 55.6577C310.857 55.6577 311.154 55.5831 311.449 55.4339C311.747 55.2848 311.994 55.0593 312.189 54.7575C312.388 54.4556 312.486 54.0721 312.482 53.6069ZM319.666 57.1651C318.875 57.1651 318.193 56.9858 317.621 56.6271C317.053 56.2649 316.616 55.766 316.311 55.1303C316.005 54.4947 315.853 53.7667 315.853 52.9464C315.853 52.1154 316.009 51.3821 316.321 50.7464C316.634 50.1072 317.074 49.6083 317.642 49.2496C318.21 48.891 318.88 48.7116 319.65 48.7116C320.272 48.7116 320.826 48.8271 321.312 49.0579C321.799 49.2852 322.191 49.6048 322.49 50.0167C322.791 50.4286 322.971 50.9098 323.028 51.4602H321.478C321.392 51.0767 321.197 50.7464 320.892 50.4695C320.59 50.1925 320.185 50.054 319.677 50.054C319.233 50.054 318.844 50.1712 318.511 50.4055C318.18 50.6364 317.923 50.9666 317.738 51.3963C317.554 51.8224 317.461 52.3267 317.461 52.9091C317.461 53.5057 317.552 54.0206 317.733 54.4538C317.914 54.8871 318.17 55.2227 318.5 55.4606C318.834 55.6985 319.226 55.8175 319.677 55.8175C319.979 55.8175 320.252 55.7624 320.497 55.6523C320.746 55.5387 320.954 55.3771 321.121 55.1676C321.291 54.9581 321.41 54.706 321.478 54.4112H323.028C322.971 54.9403 322.799 55.4126 322.511 55.8281C322.223 56.2436 321.838 56.5703 321.355 56.8082C320.876 57.0462 320.313 57.1651 319.666 57.1651ZM328.55 48.8182V50.0966H324.081V48.8182H328.55ZM325.279 46.858H326.872V54.5977C326.872 54.9066 326.918 55.1392 327.011 55.2955C327.103 55.4482 327.222 55.5529 327.368 55.6097C327.517 55.663 327.678 55.6896 327.852 55.6896C327.98 55.6896 328.092 55.6808 328.188 55.663C328.284 55.6452 328.358 55.631 328.412 55.6204L328.699 56.9361C328.607 56.9716 328.475 57.0071 328.305 57.0426C328.135 57.0817 327.922 57.103 327.666 57.1065C327.247 57.1136 326.856 57.0391 326.494 56.8828C326.132 56.7266 325.839 56.4851 325.615 56.1584C325.391 55.8317 325.279 55.4215 325.279 54.9279V46.858ZM335.495 53.6069V48.8182H337.093V57H335.527V55.5831H335.441C335.253 56.0199 334.951 56.3839 334.536 56.6751C334.124 56.9627 333.611 57.1065 332.997 57.1065C332.471 57.1065 332.006 56.9911 331.601 56.7603C331.2 56.5259 330.884 56.1797 330.653 55.7216C330.426 55.2635 330.312 54.6971 330.312 54.0224V48.8182H331.905V53.8306C331.905 54.3881 332.059 54.832 332.368 55.1623C332.677 55.4925 333.078 55.6577 333.572 55.6577C333.87 55.6577 334.167 55.5831 334.461 55.4339C334.76 55.2848 335.006 55.0593 335.202 54.7575C335.401 54.4556 335.498 54.0721 335.495 53.6069ZM339.233 57V48.8182H340.772V50.1179H340.857C341.007 49.6776 341.269 49.3313 341.646 49.0792C342.026 48.8235 342.455 48.6957 342.935 48.6957C343.034 48.6957 343.151 48.6992 343.286 48.7063C343.425 48.7134 343.533 48.7223 343.611 48.733V50.2564C343.547 50.2386 343.434 50.2191 343.27 50.1978C343.107 50.1729 342.944 50.1605 342.78 50.1605C342.404 50.1605 342.068 50.2404 341.774 50.4002C341.482 50.5565 341.252 50.7749 341.081 51.0554C340.911 51.3324 340.825 51.6484 340.825 52.0036V57H339.233ZM348.223 57.1651C347.417 57.1651 346.723 56.9929 346.14 56.6484C345.561 56.3004 345.114 55.8121 344.798 55.1836C344.485 54.5515 344.329 53.8111 344.329 52.9624C344.329 52.1243 344.485 51.3857 344.798 50.7464C345.114 50.1072 345.554 49.6083 346.119 49.2496C346.687 48.891 347.351 48.7116 348.111 48.7116C348.573 48.7116 349.02 48.788 349.453 48.9407C349.887 49.0934 350.275 49.3331 350.62 49.6598C350.964 49.9865 351.236 50.4109 351.435 50.9329C351.634 51.4513 351.733 52.0817 351.733 52.8239V53.3885H345.229V52.1953H350.172C350.172 51.7763 350.087 51.4052 349.917 51.082C349.746 50.7553 349.507 50.4979 349.198 50.3097C348.892 50.1214 348.534 50.0273 348.122 50.0273C347.674 50.0273 347.284 50.1374 346.95 50.3576C346.62 50.5742 346.364 50.8583 346.183 51.2099C346.005 51.5579 345.916 51.9361 345.916 52.3445V53.2766C345.916 53.8235 346.012 54.2887 346.204 54.6722C346.399 55.0558 346.671 55.3487 347.019 55.5511C347.367 55.75 347.774 55.8494 348.239 55.8494C348.541 55.8494 348.816 55.8068 349.065 55.7216C349.313 55.6328 349.528 55.5014 349.709 55.3274C349.89 55.1534 350.029 54.9386 350.125 54.6829L351.632 54.9545C351.511 55.3984 351.295 55.7873 350.982 56.1211C350.673 56.4513 350.284 56.7088 349.816 56.8935C349.35 57.0746 348.82 57.1651 348.223 57.1651ZM356.563 57.1598C355.903 57.1598 355.313 56.9911 354.795 56.6538C354.28 56.3129 353.875 55.8281 353.58 55.1996C353.289 54.5675 353.143 53.8093 353.143 52.9251C353.143 52.0408 353.291 51.2844 353.586 50.6559C353.884 50.0273 354.292 49.5462 354.811 49.2124C355.329 48.8786 355.917 48.7116 356.574 48.7116C357.082 48.7116 357.49 48.7969 357.799 48.9673C358.112 49.1342 358.353 49.3295 358.523 49.5533C358.697 49.777 358.832 49.9741 358.928 50.1445H359.024V46.0909H360.617V57H359.061V55.7269H358.928C358.832 55.9009 358.694 56.0998 358.513 56.3235C358.335 56.5472 358.09 56.7425 357.778 56.9094C357.465 57.0763 357.06 57.1598 356.563 57.1598ZM356.915 55.8015C357.373 55.8015 357.76 55.6808 358.076 55.4393C358.396 55.1942 358.637 54.8551 358.8 54.4219C358.967 53.9886 359.051 53.4844 359.051 52.9091C359.051 52.3409 358.969 51.8437 358.806 51.4176C358.642 50.9915 358.403 50.6594 358.087 50.4215C357.771 50.1836 357.38 50.0646 356.915 50.0646C356.435 50.0646 356.036 50.1889 355.716 50.4375C355.397 50.6861 355.155 51.0252 354.992 51.4549C354.832 51.8846 354.752 52.3693 354.752 52.9091C354.752 53.456 354.834 53.9478 354.997 54.3846C355.161 54.8214 355.402 55.1676 355.722 55.4233C356.045 55.6754 356.442 55.8015 356.915 55.8015ZM364.962 55.5085L364.882 56.0891C364.829 56.5153 364.738 56.9592 364.611 57.4208C364.486 57.886 364.357 58.3175 364.222 58.7152C364.09 59.1129 363.982 59.429 363.897 59.6634H362.767C362.814 59.4432 362.878 59.1449 362.959 58.7685C363.041 58.3956 363.121 57.9783 363.199 57.5167C363.277 57.055 363.336 56.5845 363.375 56.1051L363.428 55.5085H364.962ZM18.2536 76.6069V71.8182H19.8516V80H18.2855V78.5831H18.2003C18.0121 79.0199 17.7102 79.3839 17.2947 79.6751C16.8828 79.9627 16.3697 80.1065 15.7553 80.1065C15.2298 80.1065 14.7646 79.9911 14.3597 79.7603C13.9585 79.5259 13.6424 79.1797 13.4116 78.7216C13.1843 78.2635 13.0707 77.6971 13.0707 77.0224V71.8182H14.6634V76.8306C14.6634 77.3881 14.8178 77.832 15.1268 78.1623C15.4357 78.4925 15.837 78.6577 16.3306 78.6577C16.6289 78.6577 16.9254 78.5831 17.2202 78.4339C17.5185 78.2848 17.7653 78.0593 17.9606 77.7575C18.1594 77.4556 18.2571 77.0721 18.2536 76.6069ZM28.1226 73.8157L26.6791 74.0714C26.6187 73.8867 26.5228 73.7109 26.3914 73.544C26.2636 73.3771 26.0896 73.2404 25.8694 73.1339C25.6492 73.0273 25.374 72.9741 25.0438 72.9741C24.5928 72.9741 24.2164 73.0753 23.9145 73.2777C23.6127 73.4766 23.4617 73.734 23.4617 74.0501C23.4617 74.3235 23.5629 74.5437 23.7654 74.7106C23.9678 74.8775 24.2945 75.0142 24.7455 75.1207L26.0452 75.419C26.798 75.593 27.3591 75.8612 27.7284 76.2234C28.0977 76.5856 28.2824 77.0561 28.2824 77.6349C28.2824 78.125 28.1404 78.5618 27.8563 78.9453C27.5757 79.3253 27.1833 79.6236 26.6791 79.8402C26.1784 80.0568 25.5977 80.1651 24.9372 80.1651C24.021 80.1651 23.2735 79.9698 22.6947 79.5792C22.1159 79.185 21.7607 78.6257 21.6294 77.9013L23.1688 77.6669C23.2646 78.0682 23.4617 78.3718 23.76 78.5778C24.0583 78.7802 24.4472 78.8814 24.9266 78.8814C25.4486 78.8814 25.8659 78.7731 26.1784 78.5565C26.4909 78.3363 26.6471 78.0682 26.6471 77.7521C26.6471 77.4964 26.5512 77.2816 26.3595 77.1076C26.1713 76.9336 25.8818 76.8022 25.4912 76.7134L24.1063 76.4098C23.3428 76.2358 22.7781 75.9588 22.4124 75.5788C22.0502 75.1989 21.8691 74.7177 21.8691 74.1353C21.8691 73.6523 22.004 73.2298 22.2739 72.8675C22.5438 72.5053 22.9166 72.223 23.3925 72.0206C23.8683 71.8146 24.4134 71.7116 25.0278 71.7116C25.912 71.7116 26.608 71.9034 27.1159 72.2869C27.6237 72.6669 27.9593 73.1765 28.1226 73.8157ZM33.5598 80.1651C32.7537 80.1651 32.0595 79.9929 31.4771 79.6484C30.8983 79.3004 30.4508 78.8121 30.1348 78.1836C29.8223 77.5515 29.666 76.8111 29.666 75.9624C29.666 75.1243 29.8223 74.3857 30.1348 73.7464C30.4508 73.1072 30.8912 72.6083 31.4558 72.2496C32.024 71.891 32.688 71.7116 33.448 71.7116C33.9096 71.7116 34.3571 71.788 34.7903 71.9407C35.2235 72.0934 35.6124 72.3331 35.9569 72.6598C36.3013 72.9865 36.573 73.4109 36.7718 73.9329C36.9707 74.4513 37.0701 75.0817 37.0701 75.8239V76.3885H30.5662V75.1953H35.5094C35.5094 74.7763 35.4242 74.4052 35.2537 74.082C35.0833 73.7553 34.8436 73.4979 34.5346 73.3097C34.2292 73.1214 33.8706 73.0273 33.4586 73.0273C33.0112 73.0273 32.6206 73.1374 32.2868 73.3576C31.9565 73.5742 31.7008 73.8583 31.5197 74.2099C31.3422 74.5579 31.2534 74.9361 31.2534 75.3445V76.2766C31.2534 76.8235 31.3493 77.2887 31.541 77.6722C31.7363 78.0558 32.008 78.3487 32.356 78.5511C32.704 78.75 33.1106 78.8494 33.5758 78.8494C33.8777 78.8494 34.1529 78.8068 34.4015 78.7216C34.65 78.6328 34.8649 78.5014 35.046 78.3274C35.2271 78.1534 35.3656 77.9386 35.4615 77.6829L36.9689 77.9545C36.8482 78.3984 36.6316 78.7873 36.3191 79.1211C36.0101 79.4513 35.6213 79.7088 35.1525 79.8935C34.6873 80.0746 34.1564 80.1651 33.5598 80.1651ZM38.8373 80V71.8182H40.3767V73.1179H40.4619C40.6111 72.6776 40.8738 72.3313 41.2503 72.0792C41.6302 71.8235 42.0599 71.6957 42.5393 71.6957C42.6388 71.6957 42.7559 71.6992 42.8909 71.7063C43.0294 71.7134 43.1377 71.7223 43.2158 71.733V73.2564C43.1519 73.2386 43.0383 73.2191 42.8749 73.1978C42.7116 73.1729 42.5482 73.1605 42.3849 73.1605C42.0084 73.1605 41.6729 73.2404 41.3781 73.4002C41.0869 73.5565 40.8561 73.7749 40.6856 74.0554C40.5152 74.3324 40.43 74.6484 40.43 75.0036V80H38.8373ZM48.9314 74.6999V76.0795H44.0947V74.6999H48.9314ZM54.9479 71.8182V73.0966H50.3243V71.8182H54.9479ZM51.5921 80V70.87C51.5921 70.3587 51.7039 69.9343 51.9276 69.5969C52.1514 69.256 52.4479 69.0021 52.8172 68.8352C53.1865 68.6648 53.5878 68.5795 54.021 68.5795C54.3406 68.5795 54.6141 68.6062 54.8414 68.6594C55.0686 68.7092 55.2373 68.7553 55.3474 68.7979L54.9745 70.087C54.8999 70.0657 54.8041 70.0408 54.6869 70.0124C54.5697 69.9805 54.4276 69.9645 54.2607 69.9645C53.8737 69.9645 53.5967 70.0604 53.4298 70.2521C53.2664 70.4439 53.1847 70.7209 53.1847 71.0831V80H51.5921ZM56.5912 80V71.8182H58.1306V73.1179H58.2158C58.365 72.6776 58.6278 72.3313 59.0042 72.0792C59.3841 71.8235 59.8138 71.6957 60.2932 71.6957C60.3927 71.6957 60.5099 71.6992 60.6448 71.7063C60.7833 71.7134 60.8916 71.7223 60.9697 71.733V73.2564C60.9058 73.2386 60.7922 73.2191 60.6288 73.1978C60.4655 73.1729 60.3021 73.1605 60.1388 73.1605C59.7623 73.1605 59.4268 73.2404 59.132 73.4002C58.8408 73.5565 58.61 73.7749 58.4395 74.0554C58.2691 74.3324 58.1839 74.6484 58.1839 75.0036V80H56.5912ZM62.348 80V71.8182H63.9407V80H62.348ZM63.1523 70.5558C62.8754 70.5558 62.6374 70.4634 62.4386 70.2788C62.2433 70.0906 62.1456 69.8668 62.1456 69.6076C62.1456 69.3448 62.2433 69.1211 62.4386 68.9364C62.6374 68.7482 62.8754 68.6541 63.1523 68.6541C63.4293 68.6541 63.6655 68.7482 63.8608 68.9364C64.0597 69.1211 64.1591 69.3448 64.1591 69.6076C64.1591 69.8668 64.0597 70.0906 63.8608 70.2788C63.6655 70.4634 63.4293 70.5558 63.1523 70.5558ZM69.6096 80.1651C68.8035 80.1651 68.1093 79.9929 67.5269 79.6484C66.9481 79.3004 66.5006 78.8121 66.1846 78.1836C65.8721 77.5515 65.7158 76.8111 65.7158 75.9624C65.7158 75.1243 65.8721 74.3857 66.1846 73.7464C66.5006 73.1072 66.941 72.6083 67.5056 72.2496C68.0738 71.891 68.7378 71.7116 69.4978 71.7116C69.9594 71.7116 70.4069 71.788 70.8401 71.9407C71.2733 72.0934 71.6622 72.3331 72.0067 72.6598C72.3511 72.9865 72.6228 73.4109 72.8216 73.9329C73.0205 74.4513 73.1199 75.0817 73.1199 75.8239V76.3885H66.616V75.1953H71.5592C71.5592 74.7763 71.474 74.4052 71.3035 74.082C71.1331 73.7553 70.8934 73.4979 70.5844 73.3097C70.279 73.1214 69.9204 73.0273 69.5084 73.0273C69.061 73.0273 68.6704 73.1374 68.3366 73.3576C68.0063 73.5742 67.7506 73.8583 67.5695 74.2099C67.392 74.5579 67.3032 74.9361 67.3032 75.3445V76.2766C67.3032 76.8235 67.3991 77.2887 67.5908 77.6722C67.7861 78.0558 68.0578 78.3487 68.4058 78.5511C68.7538 78.75 69.1604 78.8494 69.6256 78.8494C69.9275 78.8494 70.2027 78.8068 70.4513 78.7216C70.6998 78.6328 70.9147 78.5014 71.0958 78.3274C71.2769 78.1534 71.4154 77.9386 71.5113 77.6829L73.0187 77.9545C72.898 78.3984 72.6814 78.7873 72.3689 79.1211C72.0599 79.4513 71.6711 79.7088 71.2023 79.8935C70.7371 80.0746 70.2062 80.1651 69.6096 80.1651ZM76.4798 75.142V80H74.8871V71.8182H76.4158V73.1499H76.517C76.7053 72.7166 77 72.3686 77.4013 72.1058C77.8061 71.843 78.3157 71.7116 78.93 71.7116C79.4876 71.7116 79.9759 71.8288 80.3949 72.0632C80.8139 72.294 81.1388 72.6385 81.3697 73.0966C81.6005 73.5547 81.7159 74.1211 81.7159 74.7958V80H80.1232V74.9876C80.1232 74.3945 79.9688 73.9311 79.6598 73.5973C79.3509 73.2599 78.9265 73.0913 78.3867 73.0913C78.0174 73.0913 77.6889 73.1712 77.4013 73.331C77.1172 73.4908 76.8917 73.7251 76.7248 74.0341C76.5614 74.3395 76.4798 74.7088 76.4798 75.142ZM86.9148 80.1598C86.2543 80.1598 85.6648 79.9911 85.1463 79.6538C84.6314 79.3129 84.2266 78.8281 83.9318 78.1996C83.6406 77.5675 83.495 76.8093 83.495 75.9251C83.495 75.0408 83.6424 74.2844 83.9371 73.6559C84.2354 73.0273 84.6438 72.5462 85.1623 72.2124C85.6808 71.8786 86.2685 71.7116 86.9254 71.7116C87.4332 71.7116 87.8416 71.7969 88.1506 71.9673C88.4631 72.1342 88.7045 72.3295 88.875 72.5533C89.049 72.777 89.1839 72.9741 89.2798 73.1445H89.3757V69.0909H90.9684V80H89.413V78.7269H89.2798C89.1839 78.9009 89.0455 79.0998 88.8643 79.3235C88.6868 79.5472 88.4418 79.7425 88.1293 79.9094C87.8168 80.0763 87.4119 80.1598 86.9148 80.1598ZM87.2663 78.8015C87.7244 78.8015 88.1115 78.6808 88.4276 78.4393C88.7472 78.1942 88.9886 77.8551 89.152 77.4219C89.3189 76.9886 89.4023 76.4844 89.4023 75.9091C89.4023 75.3409 89.3207 74.8437 89.1573 74.4176C88.994 73.9915 88.7543 73.6594 88.4382 73.4215C88.1222 73.1836 87.7315 73.0646 87.2663 73.0646C86.7869 73.0646 86.3874 73.1889 86.0678 73.4375C85.7482 73.6861 85.5067 74.0252 85.3434 74.4549C85.1836 74.8846 85.1037 75.3693 85.1037 75.9091C85.1037 76.456 85.1854 76.9478 85.3487 77.3846C85.5121 77.8214 85.7536 78.1676 86.0732 78.4233C86.3963 78.6754 86.794 78.8015 87.2663 78.8015ZM94.8343 69.0909V80H93.2416V69.0909H94.8343ZM97.9837 83.0682C97.7457 83.0682 97.5291 83.0487 97.3338 83.0096C97.1385 82.9741 96.9929 82.935 96.897 82.8924L97.2805 81.5874C97.5717 81.6655 97.831 81.6992 98.0582 81.6886C98.2855 81.6779 98.4862 81.5927 98.6602 81.4329C98.8377 81.2731 98.994 81.0121 99.1289 80.6499L99.326 80.1065L96.3324 71.8182H98.0369L100.109 78.1676H100.194L102.266 71.8182H103.976L100.604 81.092C100.448 81.5181 100.249 81.8786 100.008 82.1733C99.7663 82.4716 99.4787 82.6953 99.1449 82.8445C98.8111 82.9936 98.424 83.0682 97.9837 83.0682ZM109.443 80V71.8182H111.035V80H109.443ZM110.247 70.5558C109.97 70.5558 109.732 70.4634 109.533 70.2788C109.338 70.0906 109.24 69.8668 109.24 69.6076C109.24 69.3448 109.338 69.1211 109.533 68.9364C109.732 68.7482 109.97 68.6541 110.247 68.6541C110.524 68.6541 110.76 68.7482 110.956 68.9364C111.154 69.1211 111.254 69.3448 111.254 69.6076C111.254 69.8668 111.154 70.0906 110.956 70.2788C110.76 70.4634 110.524 70.5558 110.247 70.5558ZM114.771 75.142V80H113.178V71.8182H114.707V73.1499H114.808C114.996 72.7166 115.291 72.3686 115.692 72.1058C116.097 71.843 116.607 71.7116 117.221 71.7116C117.779 71.7116 118.267 71.8288 118.686 72.0632C119.105 72.294 119.43 72.6385 119.661 73.0966C119.892 73.5547 120.007 74.1211 120.007 74.7958V80H118.414V74.9876C118.414 74.3945 118.26 73.9311 117.951 73.5973C117.642 73.2599 117.218 73.0913 116.678 73.0913C116.308 73.0913 115.98 73.1712 115.692 73.331C115.408 73.4908 115.183 73.7251 115.016 74.0341C114.852 74.3395 114.771 74.7088 114.771 75.142ZM125.962 71.8182V73.0966H121.493V71.8182H125.962ZM122.692 69.858H124.284V77.5977C124.284 77.9066 124.33 78.1392 124.423 78.2955C124.515 78.4482 124.634 78.5529 124.78 78.6097C124.929 78.663 125.09 78.6896 125.264 78.6896C125.392 78.6896 125.504 78.6808 125.6 78.663C125.696 78.6452 125.77 78.631 125.824 78.6204L126.111 79.9361C126.019 79.9716 125.888 80.0071 125.717 80.0426C125.547 80.0817 125.334 80.103 125.078 80.1065C124.659 80.1136 124.268 80.0391 123.906 79.8828C123.544 79.7266 123.251 79.4851 123.027 79.1584C122.803 78.8317 122.692 78.4215 122.692 77.9279V69.858ZM131.162 80.1651C130.356 80.1651 129.662 79.9929 129.08 79.6484C128.501 79.3004 128.053 78.8121 127.737 78.1836C127.425 77.5515 127.269 76.8111 127.269 75.9624C127.269 75.1243 127.425 74.3857 127.737 73.7464C128.053 73.1072 128.494 72.6083 129.058 72.2496C129.627 71.891 130.291 71.7116 131.051 71.7116C131.512 71.7116 131.96 71.788 132.393 71.9407C132.826 72.0934 133.215 72.3331 133.559 72.6598C133.904 72.9865 134.176 73.4109 134.374 73.9329C134.573 74.4513 134.673 75.0817 134.673 75.8239V76.3885H128.169V75.1953H133.112C133.112 74.7763 133.027 74.4052 132.856 74.082C132.686 73.7553 132.446 73.4979 132.137 73.3097C131.832 73.1214 131.473 73.0273 131.061 73.0273C130.614 73.0273 130.223 73.1374 129.889 73.3576C129.559 73.5742 129.303 73.8583 129.122 74.2099C128.945 74.5579 128.856 74.9361 128.856 75.3445V76.2766C128.856 76.8235 128.952 77.2887 129.144 77.6722C129.339 78.0558 129.611 78.3487 129.959 78.5511C130.307 78.75 130.713 78.8494 131.178 78.8494C131.48 78.8494 131.755 78.8068 132.004 78.7216C132.253 78.6328 132.467 78.5014 132.649 78.3274C132.83 78.1534 132.968 77.9386 133.064 77.6829L134.571 77.9545C134.451 78.3984 134.234 78.7873 133.922 79.1211C133.613 79.4513 133.224 79.7088 132.755 79.8935C132.29 80.0746 131.759 80.1651 131.162 80.1651ZM136.44 80V71.8182H137.979V73.1179H138.064C138.214 72.6776 138.476 72.3313 138.853 72.0792C139.233 71.8235 139.662 71.6957 140.142 71.6957C140.241 71.6957 140.358 71.6992 140.493 71.7063C140.632 71.7134 140.74 71.7223 140.818 71.733V73.2564C140.754 73.2386 140.641 73.2191 140.477 73.1978C140.314 73.1729 140.151 73.1605 139.987 73.1605C139.611 73.1605 139.275 73.2404 138.981 73.4002C138.689 73.5565 138.459 73.7749 138.288 74.0554C138.118 74.3324 138.032 74.6484 138.032 75.0036V80H136.44ZM146.574 71.8182V73.0966H141.95V71.8182H146.574ZM143.218 80V70.87C143.218 70.3587 143.33 69.9343 143.554 69.5969C143.777 69.256 144.074 69.0021 144.443 68.8352C144.813 68.6648 145.214 68.5795 145.647 68.5795C145.967 68.5795 146.24 68.6062 146.467 68.6594C146.695 68.7092 146.863 68.7553 146.973 68.7979L146.6 70.087C146.526 70.0657 146.43 70.0408 146.313 70.0124C146.196 69.9805 146.054 69.9645 145.887 69.9645C145.5 69.9645 145.223 70.0604 145.056 70.2521C144.892 70.4439 144.811 70.7209 144.811 71.0831V80H143.218ZM150.349 80.1811C149.831 80.1811 149.362 80.0852 148.943 79.8935C148.524 79.6982 148.192 79.4158 147.947 79.0465C147.705 78.6772 147.585 78.2244 147.585 77.6882C147.585 77.2266 147.673 76.8466 147.851 76.5483C148.028 76.25 148.268 76.0138 148.57 75.8398C148.872 75.6658 149.209 75.5344 149.582 75.4457C149.955 75.3569 150.335 75.2894 150.722 75.2433C151.212 75.1864 151.61 75.1403 151.915 75.1048C152.221 75.0657 152.443 75.0036 152.581 74.9183C152.72 74.8331 152.789 74.6946 152.789 74.5028V74.4656C152.789 74.0004 152.657 73.6399 152.395 73.3842C152.135 73.1286 151.748 73.0007 151.233 73.0007C150.697 73.0007 150.275 73.1197 149.966 73.3576C149.66 73.592 149.449 73.853 149.332 74.1406L147.835 73.7997C148.013 73.3026 148.272 72.9013 148.613 72.5959C148.957 72.2869 149.353 72.0632 149.801 71.9247C150.248 71.7827 150.718 71.7116 151.212 71.7116C151.539 71.7116 151.885 71.7507 152.251 71.8288C152.62 71.9034 152.965 72.0419 153.284 72.2443C153.607 72.4467 153.872 72.7362 154.078 73.1126C154.284 73.4854 154.387 73.9702 154.387 74.5668V80H152.831V78.8814H152.767C152.665 79.0874 152.51 79.2898 152.304 79.4886C152.098 79.6875 151.834 79.8526 151.51 79.984C151.187 80.1154 150.8 80.1811 150.349 80.1811ZM150.695 78.9027C151.136 78.9027 151.512 78.8157 151.825 78.6417C152.141 78.4677 152.38 78.2404 152.544 77.9599C152.711 77.6758 152.794 77.3722 152.794 77.049V75.9943C152.737 76.0511 152.627 76.1044 152.464 76.1541C152.304 76.2003 152.121 76.2411 151.915 76.2766C151.709 76.3086 151.509 76.3388 151.313 76.3672C151.118 76.392 150.955 76.4134 150.823 76.4311C150.514 76.4702 150.232 76.5359 149.976 76.6282C149.724 76.7205 149.522 76.8537 149.369 77.0277C149.22 77.1982 149.145 77.4254 149.145 77.7095C149.145 78.1037 149.291 78.402 149.582 78.6044C149.873 78.8033 150.244 78.9027 150.695 78.9027ZM159.955 80.1651C159.163 80.1651 158.481 79.9858 157.909 79.6271C157.341 79.2649 156.904 78.766 156.599 78.1303C156.293 77.4947 156.141 76.7667 156.141 75.9464C156.141 75.1154 156.297 74.3821 156.609 73.7464C156.922 73.1072 157.362 72.6083 157.93 72.2496C158.499 71.891 159.168 71.7116 159.939 71.7116C160.56 71.7116 161.114 71.8271 161.6 72.0579C162.087 72.2852 162.479 72.6048 162.778 73.0167C163.08 73.4286 163.259 73.9098 163.316 74.4602H161.766C161.68 74.0767 161.485 73.7464 161.18 73.4695C160.878 73.1925 160.473 73.054 159.965 73.054C159.521 73.054 159.132 73.1712 158.799 73.4055C158.468 73.6364 158.211 73.9666 158.026 74.3963C157.842 74.8224 157.749 75.3267 157.749 75.9091C157.749 76.5057 157.84 77.0206 158.021 77.4538C158.202 77.8871 158.458 78.2227 158.788 78.4606C159.122 78.6985 159.514 78.8175 159.965 78.8175C160.267 78.8175 160.54 78.7624 160.786 78.6523C161.034 78.5387 161.242 78.3771 161.409 78.1676C161.579 77.9581 161.698 77.706 161.766 77.4112H163.316C163.259 77.9403 163.087 78.4126 162.799 78.8281C162.511 79.2436 162.126 79.5703 161.643 79.8082C161.164 80.0462 160.601 80.1651 159.955 80.1651ZM168.545 80.1651C167.739 80.1651 167.045 79.9929 166.462 79.6484C165.884 79.3004 165.436 78.8121 165.12 78.1836C164.808 77.5515 164.651 76.8111 164.651 75.9624C164.651 75.1243 164.808 74.3857 165.12 73.7464C165.436 73.1072 165.877 72.6083 166.441 72.2496C167.009 71.891 167.673 71.7116 168.433 71.7116C168.895 71.7116 169.342 71.788 169.776 71.9407C170.209 72.0934 170.598 72.3331 170.942 72.6598C171.287 72.9865 171.558 73.4109 171.757 73.9329C171.956 74.4513 172.055 75.0817 172.055 75.8239V76.3885H165.552V75.1953H170.495C170.495 74.7763 170.41 74.4052 170.239 74.082C170.069 73.7553 169.829 73.4979 169.52 73.3097C169.215 73.1214 168.856 73.0273 168.444 73.0273C167.997 73.0273 167.606 73.1374 167.272 73.3576C166.942 73.5742 166.686 73.8583 166.505 74.2099C166.328 74.5579 166.239 74.9361 166.239 75.3445V76.2766C166.239 76.8235 166.335 77.2887 166.526 77.6722C166.722 78.0558 166.993 78.3487 167.341 78.5511C167.689 78.75 168.096 78.8494 168.561 78.8494C168.863 78.8494 169.138 78.8068 169.387 78.7216C169.635 78.6328 169.85 78.5014 170.031 78.3274C170.212 78.1534 170.351 77.9386 170.447 77.6829L171.954 77.9545C171.834 78.3984 171.617 78.7873 171.304 79.1211C170.995 79.4513 170.607 79.7088 170.138 79.8935C169.673 80.0746 169.142 80.1651 168.545 80.1651ZM179.954 73.8157L178.51 74.0714C178.45 73.8867 178.354 73.7109 178.222 73.544C178.095 73.3771 177.921 73.2404 177.7 73.1339C177.48 73.0273 177.205 72.9741 176.875 72.9741C176.424 72.9741 176.047 73.0753 175.746 73.2777C175.444 73.4766 175.293 73.734 175.293 74.0501C175.293 74.3235 175.394 74.5437 175.596 74.7106C175.799 74.8775 176.126 75.0142 176.577 75.1207L177.876 75.419C178.629 75.593 179.19 75.8612 179.559 76.2234C179.929 76.5856 180.113 77.0561 180.113 77.6349C180.113 78.125 179.971 78.5618 179.687 78.9453C179.407 79.3253 179.014 79.6236 178.51 79.8402C178.009 80.0568 177.429 80.1651 176.768 80.1651C175.852 80.1651 175.105 79.9698 174.526 79.5792C173.947 79.185 173.592 78.6257 173.46 77.9013L175 77.6669C175.096 78.0682 175.293 78.3718 175.591 78.5778C175.889 78.7802 176.278 78.8814 176.758 78.8814C177.28 78.8814 177.697 78.7731 178.009 78.5565C178.322 78.3363 178.478 78.0682 178.478 77.7521C178.478 77.4964 178.382 77.2816 178.191 77.1076C178.002 76.9336 177.713 76.8022 177.322 76.7134L175.937 76.4098C175.174 76.2358 174.609 75.9588 174.243 75.5788C173.881 75.1989 173.7 74.7177 173.7 74.1353C173.7 73.6523 173.835 73.2298 174.105 72.8675C174.375 72.5053 174.748 72.223 175.224 72.0206C175.699 71.8146 176.244 71.7116 176.859 71.7116C177.743 71.7116 178.439 71.9034 178.947 72.2869C179.455 72.6669 179.79 73.1765 179.954 73.8157ZM182.914 80.1012C182.623 80.1012 182.372 79.9982 182.163 79.7923C181.953 79.5827 181.849 79.3306 181.849 79.0359C181.849 78.7447 181.953 78.4961 182.163 78.2901C182.372 78.0806 182.623 77.9759 182.914 77.9759C183.205 77.9759 183.456 78.0806 183.665 78.2901C183.875 78.4961 183.979 78.7447 183.979 79.0359C183.979 79.2312 183.93 79.4105 183.83 79.5739C183.734 79.7337 183.606 79.8615 183.447 79.9574C183.287 80.0533 183.109 80.1012 182.914 80.1012Z" fill="#5C6477"/>
<defs>
<linearGradient id="paint0_linear_1_6" x1="0" y1="60" x2="400" y2="60" gradientUnits="userSpaceOnUse">
<stop stop-color="#5C6477" stop-opacity="0.4"/>
<stop offset="1" stop-color="#5C6477"/>
</linearGradient>
</defs>
</svg>
