<svg width="400" height="254" viewBox="0 0 400 254" fill="none" xmlns="http://www.w3.org/2000/svg">
<rect x="0.5" y="0.5" width="399" height="253" rx="11.5" stroke="url(#paint0_linear_1_23)"/>
<path d="M22.5735 22.9102H20.2404C20.1978 22.6083 20.1108 22.3402 19.9794 22.1058C19.848 21.8679 19.6793 21.6655 19.4734 21.4986C19.2674 21.3317 19.0295 21.2038 18.7596 21.1151C18.4933 21.0263 18.2038 20.9819 17.8913 20.9819C17.3267 20.9819 16.8349 21.1222 16.4158 21.4027C15.9968 21.6797 15.6719 22.0845 15.4411 22.6172C15.2102 23.1463 15.0948 23.7891 15.0948 24.5455C15.0948 25.3232 15.2102 25.9766 15.4411 26.5057C15.6754 27.0348 16.0021 27.4343 16.4212 27.7042C16.8402 27.9741 17.3249 28.109 17.8754 28.109C18.1843 28.109 18.4702 28.0682 18.733 27.9865C18.9993 27.9048 19.2354 27.7859 19.4414 27.6296C19.6474 27.4698 19.8178 27.2763 19.9528 27.049C20.0913 26.8217 20.1871 26.5625 20.2404 26.2713L22.5735 26.282C22.5131 26.7827 22.3622 27.2656 22.1207 27.7308C21.8828 28.1925 21.5614 28.6062 21.1566 28.9719C20.7553 29.3342 20.2759 29.6218 19.7184 29.8349C19.1644 30.0444 18.5376 30.1491 17.8381 30.1491C16.8651 30.1491 15.995 29.929 15.228 29.4886C14.4645 29.0483 13.8608 28.4109 13.4169 27.5763C12.9766 26.7418 12.7564 25.7315 12.7564 24.5455C12.7564 23.3558 12.9801 22.3438 13.4276 21.5092C13.875 20.6747 14.4822 20.0391 15.2493 19.6023C16.0163 19.1619 16.8793 18.9418 17.8381 18.9418C18.4702 18.9418 19.0561 19.0305 19.5959 19.2081C20.1392 19.3857 20.6204 19.6449 21.0394 19.9858C21.4585 20.3232 21.7994 20.7369 22.0621 21.2269C22.3285 21.717 22.4989 22.2781 22.5735 22.9102ZM34.2523 24.5455C34.2523 25.7351 34.0268 26.7472 33.5758 27.5817C33.1284 28.4162 32.5176 29.0536 31.7434 29.494C30.9728 29.9308 30.1064 30.1491 29.144 30.1491C28.1745 30.1491 27.3045 29.929 26.5339 29.4886C25.7633 29.0483 25.1543 28.4109 24.7069 27.5763C24.2594 26.7418 24.0357 25.7315 24.0357 24.5455C24.0357 23.3558 24.2594 22.3438 24.7069 21.5092C25.1543 20.6747 25.7633 20.0391 26.5339 19.6023C27.3045 19.1619 28.1745 18.9418 29.144 18.9418C30.1064 18.9418 30.9728 19.1619 31.7434 19.6023C32.5176 20.0391 33.1284 20.6747 33.5758 21.5092C34.0268 22.3438 34.2523 23.3558 34.2523 24.5455ZM31.9139 24.5455C31.9139 23.7749 31.7985 23.125 31.5676 22.5959C31.3404 22.0668 31.019 21.6655 30.6035 21.392C30.188 21.1186 29.7015 20.9819 29.144 20.9819C28.5865 20.9819 28.1 21.1186 27.6845 21.392C27.269 21.6655 26.9458 22.0668 26.715 22.5959C26.4877 23.125 26.3741 23.7749 26.3741 24.5455C26.3741 25.3161 26.4877 25.9659 26.715 26.495C26.9458 27.0241 27.269 27.4254 27.6845 27.6989C28.1 27.9723 28.5865 28.109 29.144 28.109C29.7015 28.109 30.188 27.9723 30.6035 27.6989C31.019 27.4254 31.3404 27.0241 31.5676 26.495C31.7985 25.9659 31.9139 25.3161 31.9139 24.5455ZM45.0855 19.0909V30H43.0933L38.3472 23.1339H38.2673V30H35.9608V19.0909H37.985L42.6938 25.9517H42.7897V19.0909H45.0855ZM56.1158 19.0909V30H54.1236L49.3775 23.1339H49.2976V30H46.9911V19.0909H49.0153L53.7241 25.9517H53.82V19.0909H56.1158ZM58.0214 30V19.0909H65.3722V20.9925H60.3279V23.592H64.9941V25.4936H60.3279V28.0984H65.3936V30H58.0214ZM76.8313 22.9102H74.4982C74.4556 22.6083 74.3686 22.3402 74.2372 22.1058C74.1058 21.8679 73.9371 21.6655 73.7312 21.4986C73.5252 21.3317 73.2873 21.2038 73.0174 21.1151C72.7511 21.0263 72.4616 20.9819 72.1491 20.9819C71.5845 20.9819 71.0927 21.1222 70.6737 21.4027C70.2546 21.6797 69.9297 22.0845 69.6989 22.6172C69.468 23.1463 69.3526 23.7891 69.3526 24.5455C69.3526 25.3232 69.468 25.9766 69.6989 26.5057C69.9332 27.0348 70.2599 27.4343 70.679 27.7042C71.098 27.9741 71.5827 28.109 72.1332 28.109C72.4421 28.109 72.728 28.0682 72.9908 27.9865C73.2571 27.9048 73.4933 27.7859 73.6992 27.6296C73.9052 27.4698 74.0756 27.2763 74.2106 27.049C74.3491 26.8217 74.445 26.5625 74.4982 26.2713L76.8313 26.282C76.771 26.7827 76.62 27.2656 76.3786 27.7308C76.1406 28.1925 75.8192 28.6062 75.4144 28.9719C75.0131 29.3342 74.5337 29.6218 73.9762 29.8349C73.4222 30.0444 72.7955 30.1491 72.0959 30.1491C71.1229 30.1491 70.2528 29.929 69.4858 29.4886C68.7223 29.0483 68.1186 28.4109 67.6747 27.5763C67.2344 26.7418 67.0142 25.7315 67.0142 24.5455C67.0142 23.3558 67.2379 22.3438 67.6854 21.5092C68.1328 20.6747 68.7401 20.0391 69.5071 19.6023C70.2741 19.1619 71.1371 18.9418 72.0959 18.9418C72.728 18.9418 73.3139 19.0305 73.8537 19.2081C74.397 19.3857 74.8782 19.6449 75.2972 19.9858C75.7163 20.3232 76.0572 20.7369 76.32 21.2269C76.5863 21.717 76.7567 22.2781 76.8313 22.9102ZM78.0698 20.9925V19.0909H87.0293V20.9925H83.6895V30H81.4096V20.9925H78.0698Z" fill="white"/>
<rect x="12.25" y="46.25" width="375.5" height="49.5" rx="24.75" stroke="url(#paint1_linear_1_23)" stroke-width="0.5"/>
<g clip-path="url(#clip0_1_23)">
<path d="M37 59.3C33.8977 59.3 30.9197 60.5334 28.7278 62.7268C26.5336 64.9211 25.3006 67.8969 25.3 71C25.3 74.1018 26.534 77.0798 28.7278 79.2732C30.9197 81.4666 33.8977 82.7 37 82.7C40.1024 82.7 43.0804 81.4666 45.2723 79.2732C47.4661 77.0798 48.7 74.1018 48.7 71C48.7 67.8982 47.4661 64.9202 45.2723 62.7268C43.0804 60.5334 40.1024 59.3 37 59.3Z" fill="url(#paint2_linear_1_23)"/>
<path d="M31.5266 70.3944C34.4422 69.1244 36.3859 68.2871 37.3578 67.8825C40.1359 66.7273 40.7125 66.5267 41.0891 66.5199C41.1719 66.5186 41.3562 66.5391 41.4766 66.6363C41.5766 66.7184 41.6047 66.8293 41.6187 66.9072C41.6312 66.985 41.6484 67.1623 41.6344 67.3008C41.4844 68.882 40.8328 72.7192 40.5016 74.4903C40.3625 75.2397 40.0859 75.4909 39.8188 75.5155C39.2375 75.5689 38.7969 75.1317 38.2344 74.7631C37.3547 74.1861 36.8578 73.827 36.0031 73.2641C35.0156 72.6134 35.6563 72.2558 36.2188 71.6714C36.3656 71.5184 38.925 69.1911 38.9734 68.98C38.9797 68.9536 38.9859 68.8552 38.9266 68.8033C38.8688 68.7513 38.7828 68.7691 38.7203 68.7831C38.6313 68.8031 37.2266 69.7325 34.5016 71.5711C34.1031 71.8452 33.7422 71.9787 33.4172 71.9717C33.0609 71.9641 32.3734 71.7698 31.8625 71.6039C31.2375 71.4003 30.7391 71.2927 30.7828 70.9469C30.8047 70.7669 31.0531 70.5827 31.5266 70.3944Z" fill="white"/>
</g>
<path d="M56.6605 66.5078V65.0909H65.1033V66.5078H61.6996V76H60.0589V66.5078H56.6605ZM69.1809 76.1651C68.3748 76.1651 67.6806 75.9929 67.0982 75.6484C66.5194 75.3004 66.0719 74.8121 65.7559 74.1836C65.4434 73.5515 65.2871 72.8111 65.2871 71.9624C65.2871 71.1243 65.4434 70.3857 65.7559 69.7464C66.0719 69.1072 66.5123 68.6083 67.0769 68.2496C67.6451 67.891 68.3091 67.7116 69.0691 67.7116C69.5307 67.7116 69.9782 67.788 70.4114 67.9407C70.8446 68.0934 71.2335 68.3331 71.5779 68.6598C71.9224 68.9865 72.1941 69.4109 72.3929 69.9329C72.5918 70.4513 72.6912 71.0817 72.6912 71.8239V72.3885H66.1873V71.1953H71.1305C71.1305 70.7763 71.0453 70.4052 70.8748 70.082C70.7044 69.7553 70.4647 69.4979 70.1557 69.3097C69.8503 69.1214 69.4917 69.0273 69.0797 69.0273C68.6323 69.0273 68.2417 69.1374 67.9078 69.3576C67.5776 69.5742 67.3219 69.8583 67.1408 70.2099C66.9632 70.5579 66.8745 70.9361 66.8745 71.3445V72.2766C66.8745 72.8235 66.9703 73.2887 67.1621 73.6722C67.3574 74.0558 67.6291 74.3487 67.9771 74.5511C68.3251 74.75 68.7317 74.8494 69.1969 74.8494C69.4988 74.8494 69.774 74.8068 70.0225 74.7216C70.2711 74.6328 70.486 74.5014 70.6671 74.3274C70.8482 74.1534 70.9867 73.9386 71.0826 73.6829L72.59 73.9545C72.4693 74.3984 72.2527 74.7873 71.9402 75.1211C71.6312 75.4513 71.2424 75.7088 70.7736 75.8935C70.3084 76.0746 69.7775 76.1651 69.1809 76.1651ZM76.051 65.0909V76H74.4584V65.0909H76.051ZM81.72 76.1651C80.9139 76.1651 80.2196 75.9929 79.6373 75.6484C79.0584 75.3004 78.611 74.8121 78.2949 74.1836C77.9824 73.5515 77.8262 72.8111 77.8262 71.9624C77.8262 71.1243 77.9824 70.3857 78.2949 69.7464C78.611 69.1072 79.0513 68.6083 79.6159 68.2496C80.1841 67.891 80.8482 67.7116 81.6081 67.7116C82.0698 67.7116 82.5172 67.788 82.9505 67.9407C83.3837 68.0934 83.7725 68.3331 84.117 68.6598C84.4615 68.9865 84.7331 69.4109 84.932 69.9329C85.1309 70.4513 85.2303 71.0817 85.2303 71.8239V72.3885H78.7264V71.1953H83.6696C83.6696 70.7763 83.5843 70.4052 83.4139 70.082C83.2434 69.7553 83.0037 69.4979 82.6948 69.3097C82.3894 69.1214 82.0307 69.0273 81.6188 69.0273C81.1713 69.0273 80.7807 69.1374 80.4469 69.3576C80.1167 69.5742 79.861 69.8583 79.6799 70.2099C79.5023 70.5579 79.4135 70.9361 79.4135 71.3445V72.2766C79.4135 72.8235 79.5094 73.2887 79.7012 73.6722C79.8965 74.0558 80.1681 74.3487 80.5162 74.5511C80.8642 74.75 81.2708 74.8494 81.736 74.8494C82.0378 74.8494 82.313 74.8068 82.5616 74.7216C82.8102 74.6328 83.025 74.5014 83.2061 74.3274C83.3873 74.1534 83.5257 73.9386 83.6216 73.6829L85.1291 73.9545C85.0083 74.3984 84.7917 74.7873 84.4792 75.1211C84.1703 75.4513 83.7814 75.7088 83.3127 75.8935C82.8475 76.0746 82.3166 76.1651 81.72 76.1651ZM90.4278 79.2386C89.778 79.2386 89.2187 79.1534 88.7499 78.983C88.2847 78.8125 87.9047 78.587 87.61 78.3065C87.3153 78.0259 87.0951 77.7188 86.9495 77.3849L88.3184 76.8203C88.4143 76.9766 88.5422 77.1417 88.702 77.3157C88.8653 77.4933 89.0855 77.6442 89.3625 77.7685C89.643 77.8928 90.0035 77.9549 90.4438 77.9549C91.0475 77.9549 91.5464 77.8075 91.9406 77.5128C92.3348 77.2216 92.5319 76.7564 92.5319 76.1172V74.5085H92.4307C92.3348 74.6825 92.1963 74.8761 92.0152 75.0891C91.8376 75.3022 91.5926 75.4869 91.2801 75.6431C90.9676 75.7994 90.561 75.8775 90.0603 75.8775C89.414 75.8775 88.8316 75.7266 88.3131 75.4247C87.7982 75.1193 87.3898 74.6701 87.088 74.0771C86.7897 73.4805 86.6405 72.7472 86.6405 71.8771C86.6405 71.0071 86.7879 70.2614 87.0827 69.6399C87.3809 69.0185 87.7893 68.5426 88.3078 68.2124C88.8263 67.8786 89.414 67.7116 90.0709 67.7116C90.5787 67.7116 90.9889 67.7969 91.3014 67.9673C91.6139 68.1342 91.8572 68.3295 92.0312 68.5533C92.2087 68.777 92.3454 68.9741 92.4413 69.1445H92.5585V67.8182H94.1192V76.1811C94.1192 76.8842 93.9559 77.4613 93.6292 77.9123C93.3025 78.3633 92.8604 78.6971 92.3028 78.9137C91.7488 79.1303 91.1238 79.2386 90.4278 79.2386ZM90.4118 74.5565C90.8699 74.5565 91.257 74.4499 91.5731 74.2369C91.8927 74.0202 92.1341 73.7113 92.2975 73.31C92.4644 72.9052 92.5479 72.4205 92.5479 71.8558C92.5479 71.3054 92.4662 70.8207 92.3028 70.4016C92.1395 69.9826 91.8998 69.6559 91.5837 69.4215C91.2677 69.1836 90.877 69.0646 90.4118 69.0646C89.9324 69.0646 89.5329 69.1889 89.2133 69.4375C88.8937 69.6825 88.6523 70.0163 88.4889 70.4389C88.3291 70.8615 88.2492 71.3338 88.2492 71.8558C88.2492 72.392 88.3309 72.8626 88.4942 73.2674C88.6576 73.6722 88.8991 73.9883 89.2187 74.2156C89.5418 74.4428 89.9395 74.5565 90.4118 74.5565ZM96.2552 76V67.8182H97.7947V69.1179H97.8799C98.029 68.6776 98.2918 68.3313 98.6682 68.0792C99.0482 67.8235 99.4779 67.6957 99.9573 67.6957C100.057 67.6957 100.174 67.6992 100.309 67.7063C100.447 67.7134 100.556 67.7223 100.634 67.733V69.2564C100.57 69.2386 100.456 69.2191 100.293 69.1978C100.13 69.1729 99.9662 69.1605 99.8028 69.1605C99.4264 69.1605 99.0908 69.2404 98.7961 69.4002C98.5049 69.5565 98.2741 69.7749 98.1036 70.0554C97.9331 70.3324 97.8479 70.6484 97.8479 71.0036V76H96.2552ZM104.32 76.1811C103.801 76.1811 103.333 76.0852 102.914 75.8935C102.495 75.6982 102.163 75.4158 101.918 75.0465C101.676 74.6772 101.555 74.2244 101.555 73.6882C101.555 73.2266 101.644 72.8466 101.822 72.5483C101.999 72.25 102.239 72.0138 102.541 71.8398C102.843 71.6658 103.18 71.5344 103.553 71.4457C103.926 71.3569 104.306 71.2894 104.693 71.2433C105.183 71.1864 105.581 71.1403 105.886 71.1048C106.191 71.0657 106.413 71.0036 106.552 70.9183C106.69 70.8331 106.759 70.6946 106.759 70.5028V70.4656C106.759 70.0004 106.628 69.6399 106.365 69.3842C106.106 69.1286 105.719 69.0007 105.204 69.0007C104.668 69.0007 104.245 69.1197 103.936 69.3576C103.631 69.592 103.42 69.853 103.302 70.1406L101.806 69.7997C101.983 69.3026 102.242 68.9013 102.583 68.5959C102.928 68.2869 103.324 68.0632 103.771 67.9247C104.219 67.7827 104.689 67.7116 105.183 67.7116C105.509 67.7116 105.856 67.7507 106.222 67.8288C106.591 67.9034 106.935 68.0419 107.255 68.2443C107.578 68.4467 107.843 68.7362 108.049 69.1126C108.255 69.4854 108.358 69.9702 108.358 70.5668V76H106.802V74.8814H106.738C106.635 75.0874 106.481 75.2898 106.275 75.4886C106.069 75.6875 105.804 75.8526 105.481 75.984C105.158 76.1154 104.771 76.1811 104.32 76.1811ZM104.666 74.9027C105.106 74.9027 105.483 74.8157 105.795 74.6417C106.111 74.4677 106.351 74.2404 106.514 73.9599C106.681 73.6758 106.765 73.3722 106.765 73.049V71.9943C106.708 72.0511 106.598 72.1044 106.435 72.1541C106.275 72.2003 106.092 72.2411 105.886 72.2766C105.68 72.3086 105.479 72.3388 105.284 72.3672C105.089 72.392 104.925 72.4134 104.794 72.4311C104.485 72.4702 104.203 72.5359 103.947 72.6282C103.695 72.7205 103.492 72.8537 103.34 73.0277C103.191 73.1982 103.116 73.4254 103.116 73.7095C103.116 74.1037 103.262 74.402 103.553 74.6044C103.844 74.8033 104.215 74.9027 104.666 74.9027ZM110.479 76V67.8182H112.008V69.1499H112.109C112.279 68.6989 112.558 68.3473 112.945 68.0952C113.332 67.8395 113.796 67.7116 114.335 67.7116C114.882 67.7116 115.34 67.8395 115.71 68.0952C116.083 68.3509 116.358 68.7024 116.535 69.1499H116.621C116.816 68.7131 117.127 68.3651 117.553 68.1058C117.979 67.843 118.487 67.7116 119.076 67.7116C119.818 67.7116 120.424 67.9442 120.893 68.4094C121.365 68.8746 121.601 69.576 121.601 70.5135V76H120.008V70.6626C120.008 70.1087 119.857 69.7074 119.556 69.4588C119.254 69.2102 118.893 69.0859 118.474 69.0859C117.956 69.0859 117.553 69.2457 117.265 69.5653C116.977 69.8814 116.834 70.288 116.834 70.7852V76H115.246V70.5614C115.246 70.1175 115.108 69.7607 114.831 69.4908C114.554 69.2209 114.193 69.0859 113.749 69.0859C113.448 69.0859 113.169 69.1658 112.913 69.3256C112.661 69.4819 112.457 69.7003 112.301 69.9808C112.148 70.2614 112.072 70.5863 112.072 70.9556V76H110.479Z" fill="white"/>
<path d="M269.89 67.8182V69.0966H265.421V67.8182H269.89ZM266.619 65.858H268.212V73.5977C268.212 73.9066 268.258 74.1392 268.35 74.2955C268.443 74.4482 268.562 74.5529 268.707 74.6097C268.857 74.663 269.018 74.6896 269.192 74.6896C269.32 74.6896 269.432 74.6808 269.528 74.663C269.624 74.6452 269.698 74.631 269.751 74.6204L270.039 75.9361C269.947 75.9716 269.815 76.0071 269.645 76.0426C269.474 76.0817 269.261 76.103 269.006 76.1065C268.587 76.1136 268.196 76.0391 267.834 75.8828C267.472 75.7266 267.179 75.4851 266.955 75.1584C266.731 74.8317 266.619 74.4215 266.619 73.9279V65.858ZM272.701 76.1012C272.41 76.1012 272.16 75.9982 271.95 75.7923C271.741 75.5827 271.636 75.3306 271.636 75.0359C271.636 74.7447 271.741 74.4961 271.95 74.2901C272.16 74.0806 272.41 73.9759 272.701 73.9759C272.992 73.9759 273.243 74.0806 273.452 74.2901C273.662 74.4961 273.766 74.7447 273.766 75.0359C273.766 75.2312 273.717 75.4105 273.617 75.5739C273.521 75.7337 273.394 75.8615 273.234 75.9574C273.074 76.0533 272.896 76.1012 272.701 76.1012ZM275.9 76V67.8182H277.429V69.1499H277.53C277.7 68.6989 277.979 68.3473 278.366 68.0952C278.753 67.8395 279.217 67.7116 279.756 67.7116C280.303 67.7116 280.761 67.8395 281.131 68.0952C281.503 68.3509 281.779 68.7024 281.956 69.1499H282.041C282.237 68.7131 282.547 68.3651 282.974 68.1058C283.4 67.843 283.908 67.7116 284.497 67.7116C285.239 67.7116 285.845 67.9442 286.313 68.4094C286.786 68.8746 287.022 69.576 287.022 70.5135V76H285.429V70.6626C285.429 70.1087 285.278 69.7074 284.976 69.4588C284.675 69.2102 284.314 69.0859 283.895 69.0859C283.377 69.0859 282.974 69.2457 282.686 69.5653C282.398 69.8814 282.255 70.288 282.255 70.7852V76H280.667V70.5614C280.667 70.1175 280.529 69.7607 280.252 69.4908C279.975 69.2209 279.614 69.0859 279.17 69.0859C278.869 69.0859 278.59 69.1658 278.334 69.3256C278.082 69.4819 277.878 69.7003 277.722 69.9808C277.569 70.2614 277.492 70.5863 277.492 70.9556V76H275.9ZM292.683 76.1651C291.877 76.1651 291.183 75.9929 290.6 75.6484C290.021 75.3004 289.574 74.8121 289.258 74.1836C288.945 73.5515 288.789 72.8111 288.789 71.9624C288.789 71.1243 288.945 70.3857 289.258 69.7464C289.574 69.1072 290.014 68.6083 290.579 68.2496C291.147 67.891 291.811 67.7116 292.571 67.7116C293.033 67.7116 293.48 67.788 293.913 67.9407C294.347 68.0934 294.735 68.3331 295.08 68.6598C295.424 68.9865 295.696 69.4109 295.895 69.9329C296.094 70.4513 296.193 71.0817 296.193 71.8239V72.3885H289.689V71.1953H294.632C294.632 70.7763 294.547 70.4052 294.377 70.082C294.206 69.7553 293.967 69.4979 293.658 69.3097C293.352 69.1214 292.994 69.0273 292.582 69.0273C292.134 69.0273 291.744 69.1374 291.41 69.3576C291.08 69.5742 290.824 69.8583 290.643 70.2099C290.465 70.5579 290.376 70.9361 290.376 71.3445V72.2766C290.376 72.8235 290.472 73.2887 290.664 73.6722C290.859 74.0558 291.131 74.3487 291.479 74.5511C291.827 74.75 292.234 74.8494 292.699 74.8494C293.001 74.8494 293.276 74.8068 293.525 74.7216C293.773 74.6328 293.988 74.5014 294.169 74.3274C294.35 74.1534 294.489 73.9386 294.585 73.6829L296.092 73.9545C295.971 74.3984 295.755 74.7873 295.442 75.1211C295.133 75.4513 294.744 75.7088 294.276 75.8935C293.81 76.0746 293.279 76.1651 292.683 76.1651ZM302.115 64.5795L298.6 77.6406H297.177L300.693 64.5795H302.115ZM303.298 76V74.908L307.729 69.2777V69.2031H303.441V67.8182H309.716V68.9794L305.455 74.5405V74.6151H309.866V76H303.298ZM313.002 67.8182L314.807 71.0036L316.629 67.8182H318.371L315.819 71.9091L318.392 76H316.65L314.807 72.9425L312.97 76H311.222L313.769 71.9091L311.254 67.8182H313.002ZM326.137 69.8157L324.694 70.0714C324.633 69.8867 324.537 69.7109 324.406 69.544C324.278 69.3771 324.104 69.2404 323.884 69.1339C323.664 69.0273 323.389 68.9741 323.058 68.9741C322.607 68.9741 322.231 69.0753 321.929 69.2777C321.627 69.4766 321.476 69.734 321.476 70.0501C321.476 70.3235 321.578 70.5437 321.78 70.7106C321.982 70.8775 322.309 71.0142 322.76 71.1207L324.06 71.419C324.813 71.593 325.374 71.8612 325.743 72.2234C326.112 72.5856 326.297 73.0561 326.297 73.6349C326.297 74.125 326.155 74.5618 325.871 74.9453C325.59 75.3253 325.198 75.6236 324.694 75.8402C324.193 76.0568 323.612 76.1651 322.952 76.1651C322.036 76.1651 321.288 75.9698 320.709 75.5792C320.131 75.185 319.775 74.6257 319.644 73.9013L321.183 73.6669C321.279 74.0682 321.476 74.3718 321.775 74.5778C322.073 74.7802 322.462 74.8814 322.941 74.8814C323.463 74.8814 323.881 74.7731 324.193 74.5565C324.506 74.3363 324.662 74.0682 324.662 73.7521C324.662 73.4964 324.566 73.2816 324.374 73.1076C324.186 72.9336 323.896 72.8022 323.506 72.7134L322.121 72.4098C321.357 72.2358 320.793 71.9588 320.427 71.5788C320.065 71.1989 319.884 70.7177 319.884 70.1353C319.884 69.6523 320.019 69.2298 320.289 68.8675C320.558 68.5053 320.931 68.223 321.407 68.0206C321.883 67.8146 322.428 67.7116 323.042 67.7116C323.927 67.7116 324.623 67.9034 325.131 68.2869C325.638 68.6669 325.974 69.1765 326.137 69.8157ZM330.429 76.1811C329.911 76.1811 329.442 76.0852 329.023 75.8935C328.604 75.6982 328.272 75.4158 328.027 75.0465C327.785 74.6772 327.665 74.2244 327.665 73.6882C327.665 73.2266 327.753 72.8466 327.931 72.5483C328.109 72.25 328.348 72.0138 328.65 71.8398C328.952 71.6658 329.289 71.5344 329.662 71.4457C330.035 71.3569 330.415 71.2894 330.802 71.2433C331.292 71.1864 331.69 71.1403 331.995 71.1048C332.301 71.0657 332.523 71.0036 332.661 70.9183C332.8 70.8331 332.869 70.6946 332.869 70.5028V70.4656C332.869 70.0004 332.737 69.6399 332.475 69.3842C332.215 69.1286 331.828 69.0007 331.313 69.0007C330.777 69.0007 330.355 69.1197 330.046 69.3576C329.74 69.592 329.529 69.853 329.412 70.1406L327.915 69.7997C328.093 69.3026 328.352 68.9013 328.693 68.5959C329.037 68.2869 329.433 68.0632 329.881 67.9247C330.328 67.7827 330.799 67.7116 331.292 67.7116C331.619 67.7116 331.965 67.7507 332.331 67.8288C332.7 67.9034 333.045 68.0419 333.364 68.2443C333.687 68.4467 333.952 68.7362 334.158 69.1126C334.364 69.4854 334.467 69.9702 334.467 70.5668V76H332.911V74.8814H332.848C332.745 75.0874 332.59 75.2898 332.384 75.4886C332.178 75.6875 331.914 75.8526 331.59 75.984C331.267 76.1154 330.88 76.1811 330.429 76.1811ZM330.775 74.9027C331.216 74.9027 331.592 74.8157 331.905 74.6417C332.221 74.4677 332.46 74.2404 332.624 73.9599C332.791 73.6758 332.874 73.3722 332.874 73.049V71.9943C332.817 72.0511 332.707 72.1044 332.544 72.1541C332.384 72.2003 332.201 72.2411 331.995 72.2766C331.789 72.3086 331.589 72.3388 331.393 72.3672C331.198 72.392 331.035 72.4134 330.903 72.4311C330.594 72.4702 330.312 72.5359 330.056 72.6282C329.804 72.7205 329.602 72.8537 329.449 73.0277C329.3 73.1982 329.225 73.4254 329.225 73.7095C329.225 74.1037 329.371 74.402 329.662 74.6044C329.953 74.8033 330.324 74.9027 330.775 74.9027ZM336.716 76V65.0909H338.309V69.1445H338.405C338.497 68.9741 338.63 68.777 338.804 68.5533C338.978 68.3295 339.22 68.1342 339.529 67.9673C339.838 67.7969 340.246 67.7116 340.754 67.7116C341.414 67.7116 342.004 67.8786 342.522 68.2124C343.041 68.5462 343.447 69.0273 343.742 69.6559C344.04 70.2844 344.189 71.0408 344.189 71.9251C344.189 72.8093 344.042 73.5675 343.747 74.1996C343.453 74.8281 343.048 75.3129 342.533 75.6538C342.018 75.9911 341.43 76.1598 340.77 76.1598C340.273 76.1598 339.866 76.0763 339.55 75.9094C339.237 75.7425 338.992 75.5472 338.815 75.3235C338.637 75.0998 338.501 74.9009 338.405 74.7269H338.271V76H336.716ZM338.277 71.9091C338.277 72.4844 338.36 72.9886 338.527 73.4219C338.694 73.8551 338.936 74.1942 339.252 74.4393C339.568 74.6808 339.955 74.8015 340.413 74.8015C340.889 74.8015 341.286 74.6754 341.606 74.4233C341.926 74.1676 342.167 73.8214 342.33 73.3846C342.497 72.9478 342.581 72.456 342.581 71.9091C342.581 71.3693 342.499 70.8846 342.336 70.4549C342.176 70.0252 341.934 69.6861 341.611 69.4375C341.292 69.1889 340.892 69.0646 340.413 69.0646C339.951 69.0646 339.561 69.1836 339.241 69.4215C338.925 69.6594 338.685 69.9915 338.522 70.4176C338.358 70.8437 338.277 71.3409 338.277 71.9091ZM346.706 79.0682C346.468 79.0682 346.252 79.0487 346.056 79.0096C345.861 78.9741 345.716 78.935 345.62 78.8924L346.003 77.5874C346.294 77.6655 346.554 77.6992 346.781 77.6886C347.008 77.6779 347.209 77.5927 347.383 77.4329C347.56 77.2731 347.717 77.0121 347.852 76.6499L348.049 76.1065L345.055 67.8182H346.76L348.832 74.1676H348.917L350.989 67.8182H352.699L349.327 77.092C349.171 77.5181 348.972 77.8786 348.73 78.1733C348.489 78.4716 348.201 78.6953 347.868 78.8445C347.534 78.9936 347.147 79.0682 346.706 79.0682ZM354.196 76V67.8182H355.735V69.1179H355.82C355.969 68.6776 356.232 68.3313 356.609 68.0792C356.989 67.8235 357.418 67.6957 357.898 67.6957C357.997 67.6957 358.114 67.6992 358.249 67.7063C358.388 67.7134 358.496 67.7223 358.574 67.733V69.2564C358.51 69.2386 358.397 69.2191 358.233 69.1978C358.07 69.1729 357.907 69.1605 357.743 69.1605C357.367 69.1605 357.031 69.2404 356.737 69.4002C356.445 69.5565 356.214 69.7749 356.044 70.0554C355.874 70.3324 355.788 70.6484 355.788 71.0036V76H354.196ZM361.417 73.2248L361.407 71.2805H361.684L364.944 67.8182H366.851L363.133 71.7599H362.882L361.417 73.2248ZM359.953 76V65.0909H361.545V76H359.953ZM365.119 76L362.19 72.1115L363.287 70.9982L367.074 76H365.119ZM370.683 76.1811C370.165 76.1811 369.696 76.0852 369.277 75.8935C368.858 75.6982 368.526 75.4158 368.281 75.0465C368.039 74.6772 367.919 74.2244 367.919 73.6882C367.919 73.2266 368.007 72.8466 368.185 72.5483C368.362 72.25 368.602 72.0138 368.904 71.8398C369.206 71.6658 369.543 71.5344 369.916 71.4457C370.289 71.3569 370.669 71.2894 371.056 71.2433C371.546 71.1864 371.944 71.1403 372.249 71.1048C372.555 71.0657 372.777 71.0036 372.915 70.9183C373.054 70.8331 373.123 70.6946 373.123 70.5028V70.4656C373.123 70.0004 372.991 69.6399 372.729 69.3842C372.469 69.1286 372.082 69.0007 371.567 69.0007C371.031 69.0007 370.609 69.1197 370.3 69.3576C369.994 69.592 369.783 69.853 369.666 70.1406L368.169 69.7997C368.347 69.3026 368.606 68.9013 368.947 68.5959C369.291 68.2869 369.687 68.0632 370.134 67.9247C370.582 67.7827 371.052 67.7116 371.546 67.7116C371.873 67.7116 372.219 67.7507 372.585 67.8288C372.954 67.9034 373.299 68.0419 373.618 68.2443C373.941 68.4467 374.206 68.7362 374.412 69.1126C374.618 69.4854 374.721 69.9702 374.721 70.5668V76H373.165V74.8814H373.101C372.998 75.0874 372.844 75.2898 372.638 75.4886C372.432 75.6875 372.168 75.8526 371.844 75.984C371.521 76.1154 371.134 76.1811 370.683 76.1811ZM371.029 74.9027C371.47 74.9027 371.846 74.8157 372.159 74.6417C372.475 74.4677 372.714 74.2404 372.878 73.9599C373.045 73.6758 373.128 73.3722 373.128 73.049V71.9943C373.071 72.0511 372.961 72.1044 372.798 72.1541C372.638 72.2003 372.455 72.2411 372.249 72.2766C372.043 72.3086 371.843 72.3388 371.647 72.3672C371.452 72.392 371.289 72.4134 371.157 72.4311C370.848 72.4702 370.566 72.5359 370.31 72.6282C370.058 72.7205 369.856 72.8537 369.703 73.0277C369.554 73.1982 369.479 73.4254 369.479 73.7095C369.479 74.1037 369.625 74.402 369.916 74.6044C370.207 74.8033 370.578 74.9027 371.029 74.9027Z" fill="#787878"/>
<rect x="12.25" y="108.25" width="375.5" height="49.5" rx="24.75" stroke="url(#paint3_linear_1_23)" stroke-width="0.5"/>
<g clip-path="url(#clip1_1_23)">
<path d="M26.0623 141.535H29.5034V133.178L24.5875 129.491V140.06C24.5875 140.876 25.2488 141.535 26.0623 141.535Z" fill="#4285F4"/>
<path d="M41.3016 141.535H44.7428C45.5588 141.535 46.2175 140.874 46.2175 140.06V129.491L41.3016 133.178" fill="#34A853"/>
<path d="M41.3016 126.787V133.178L46.2175 129.491V127.524C46.2175 125.701 44.1357 124.661 42.6781 125.755" fill="#FBBC04"/>
<path d="M29.5035 133.178V126.787L35.4026 131.211L41.3017 126.787V133.178L35.4026 137.602" fill="#EA4335"/>
<path d="M24.5875 127.525V129.491L29.5034 133.178V126.787L28.127 125.755C26.6669 124.661 24.5875 125.701 24.5875 127.525Z" fill="#C5221F"/>
</g>
<path d="M62.5813 130.537C62.4783 130.214 62.3398 129.925 62.1658 129.669C61.9954 129.41 61.7912 129.19 61.5533 129.009C61.3153 128.824 61.0437 128.684 60.7383 128.588C60.4364 128.492 60.1044 128.444 59.7422 128.444C59.1278 128.444 58.5739 128.602 58.0803 128.918C57.5866 129.234 57.196 129.697 56.9084 130.308C56.6243 130.915 56.4822 131.659 56.4822 132.54C56.4822 133.424 56.6261 134.172 56.9137 134.783C57.2013 135.393 57.5955 135.857 58.0962 136.173C58.5969 136.489 59.1669 136.647 59.8061 136.647C60.3991 136.647 60.9158 136.526 61.3562 136.285C61.8001 136.043 62.1428 135.702 62.3842 135.262C62.6293 134.818 62.7518 134.296 62.7518 133.696L63.1779 133.776H60.0565V132.418H64.3445V133.659C64.3445 134.575 64.1491 135.37 63.7585 136.045C63.3714 136.716 62.8352 137.235 62.1499 137.6C61.468 137.966 60.6868 138.149 59.8061 138.149C58.8189 138.149 57.9524 137.922 57.2067 137.467C56.4645 137.013 55.8857 136.368 55.4702 135.534C55.0547 134.696 54.8469 133.701 54.8469 132.551C54.8469 131.681 54.9677 130.9 55.2092 130.207C55.4506 129.515 55.7898 128.927 56.2266 128.444C56.6669 127.957 57.1836 127.586 57.7766 127.331C58.3732 127.071 59.0249 126.942 59.7315 126.942C60.321 126.942 60.8697 127.029 61.3775 127.203C61.8888 127.377 62.3434 127.624 62.7411 127.943C63.1424 128.263 63.4744 128.643 63.7372 129.083C64 129.52 64.1776 130.005 64.2699 130.537H62.5813ZM66.306 138V129.818H67.8348V131.15H67.936C68.1064 130.699 68.3852 130.347 68.7723 130.095C69.1594 129.839 69.6228 129.712 70.1626 129.712C70.7094 129.712 71.1675 129.839 71.5368 130.095C71.9097 130.351 72.1849 130.702 72.3625 131.15H72.4477C72.643 130.713 72.9537 130.365 73.3799 130.106C73.806 129.843 74.3138 129.712 74.9033 129.712C75.6455 129.712 76.251 129.944 76.7197 130.409C77.192 130.875 77.4282 131.576 77.4282 132.513V138H75.8355V132.663C75.8355 132.109 75.6846 131.707 75.3827 131.459C75.0809 131.21 74.7204 131.086 74.3014 131.086C73.7829 131.086 73.3799 131.246 73.0922 131.565C72.8046 131.881 72.6608 132.288 72.6608 132.785V138H71.0734V132.561C71.0734 132.118 70.9349 131.761 70.6579 131.491C70.3809 131.221 70.0205 131.086 69.5766 131.086C69.2748 131.086 68.996 131.166 68.7403 131.326C68.4882 131.482 68.284 131.7 68.1278 131.981C67.9751 132.261 67.8987 132.586 67.8987 132.956V138H66.306ZM81.9439 138.181C81.4254 138.181 80.9567 138.085 80.5376 137.893C80.1186 137.698 79.7866 137.416 79.5415 137.047C79.3001 136.677 79.1793 136.224 79.1793 135.688C79.1793 135.227 79.2681 134.847 79.4457 134.548C79.6232 134.25 79.8629 134.014 80.1648 133.84C80.4666 133.666 80.804 133.534 81.1768 133.446C81.5497 133.357 81.9297 133.289 82.3168 133.243C82.8068 133.186 83.2045 133.14 83.5099 133.105C83.8153 133.066 84.0373 133.004 84.1758 132.918C84.3143 132.833 84.3835 132.695 84.3835 132.503V132.466C84.3835 132 84.2521 131.64 83.9893 131.384C83.7301 131.129 83.343 131.001 82.8281 131.001C82.2919 131.001 81.8693 131.12 81.5604 131.358C81.255 131.592 81.0437 131.853 80.9265 132.141L79.4297 131.8C79.6072 131.303 79.8665 130.901 80.2074 130.596C80.5518 130.287 80.9478 130.063 81.3952 129.925C81.8427 129.783 82.3132 129.712 82.8068 129.712C83.1335 129.712 83.4798 129.751 83.8455 129.829C84.2148 129.903 84.5593 130.042 84.8789 130.244C85.2021 130.447 85.4666 130.736 85.6726 131.113C85.8786 131.485 85.9815 131.97 85.9815 132.567V138H84.4261V136.881H84.3622C84.2592 137.087 84.1048 137.29 83.8988 137.489C83.6928 137.687 83.4283 137.853 83.1051 137.984C82.782 138.115 82.3949 138.181 81.9439 138.181ZM82.2901 136.903C82.7305 136.903 83.1069 136.816 83.4194 136.642C83.7354 136.468 83.9751 136.24 84.1385 135.96C84.3054 135.676 84.3888 135.372 84.3888 135.049V133.994C84.332 134.051 84.2219 134.104 84.0586 134.154C83.8988 134.2 83.7159 134.241 83.5099 134.277C83.304 134.309 83.1033 134.339 82.908 134.367C82.7127 134.392 82.5494 134.413 82.418 134.431C82.109 134.47 81.8267 134.536 81.571 134.628C81.3189 134.721 81.1165 134.854 80.9638 135.028C80.8146 135.198 80.7401 135.425 80.7401 135.71C80.7401 136.104 80.8857 136.402 81.1768 136.604C81.468 136.803 81.8391 136.903 82.2901 136.903ZM88.1029 138V129.818H89.6956V138H88.1029ZM88.9072 128.556C88.6302 128.556 88.3923 128.463 88.1934 128.279C87.9981 128.091 87.9005 127.867 87.9005 127.608C87.9005 127.345 87.9981 127.121 88.1934 126.936C88.3923 126.748 88.6302 126.654 88.9072 126.654C89.1842 126.654 89.4204 126.748 89.6157 126.936C89.8145 127.121 89.914 127.345 89.914 127.608C89.914 127.867 89.8145 128.091 89.6157 128.279C89.4204 128.463 89.1842 128.556 88.9072 128.556ZM93.4309 127.091V138H91.8382V127.091H93.4309Z" fill="white"/>
<path d="M214.9 138V136.908L219.332 131.278V131.203H215.044V129.818H221.319V130.979L217.058 136.54V136.615H221.468V138H214.9ZM224.604 129.818L226.41 133.004L228.232 129.818H229.973L227.422 133.909L229.995 138H228.253L226.41 134.942L224.572 138H222.825L225.371 133.909L222.857 129.818H224.604ZM237.74 131.816L236.296 132.071C236.236 131.887 236.14 131.711 236.009 131.544C235.881 131.377 235.707 131.24 235.487 131.134C235.266 131.027 234.991 130.974 234.661 130.974C234.21 130.974 233.834 131.075 233.532 131.278C233.23 131.477 233.079 131.734 233.079 132.05C233.079 132.324 233.18 132.544 233.383 132.711C233.585 132.877 233.912 133.014 234.363 133.121L235.662 133.419C236.415 133.593 236.976 133.861 237.346 134.223C237.715 134.586 237.9 135.056 237.9 135.635C237.9 136.125 237.758 136.562 237.473 136.945C237.193 137.325 236.801 137.624 236.296 137.84C235.796 138.057 235.215 138.165 234.554 138.165C233.638 138.165 232.891 137.97 232.312 137.579C231.733 137.185 231.378 136.626 231.247 135.901L232.786 135.667C232.882 136.068 233.079 136.372 233.377 136.578C233.676 136.78 234.064 136.881 234.544 136.881C235.066 136.881 235.483 136.773 235.796 136.556C236.108 136.336 236.264 136.068 236.264 135.752C236.264 135.496 236.168 135.282 235.977 135.108C235.788 134.934 235.499 134.802 235.108 134.713L233.723 134.41C232.96 134.236 232.395 133.959 232.03 133.579C231.667 133.199 231.486 132.718 231.486 132.135C231.486 131.652 231.621 131.23 231.891 130.868C232.161 130.505 232.534 130.223 233.01 130.021C233.486 129.815 234.031 129.712 234.645 129.712C235.529 129.712 236.225 129.903 236.733 130.287C237.241 130.667 237.576 131.176 237.74 131.816ZM242.032 138.181C241.513 138.181 241.045 138.085 240.626 137.893C240.206 137.698 239.874 137.416 239.629 137.047C239.388 136.677 239.267 136.224 239.267 135.688C239.267 135.227 239.356 134.847 239.534 134.548C239.711 134.25 239.951 134.014 240.253 133.84C240.555 133.666 240.892 133.534 241.265 133.446C241.638 133.357 242.018 133.289 242.405 133.243C242.895 133.186 243.292 133.14 243.598 133.105C243.903 133.066 244.125 133.004 244.264 132.918C244.402 132.833 244.471 132.695 244.471 132.503V132.466C244.471 132 244.34 131.64 244.077 131.384C243.818 131.129 243.431 131.001 242.916 131.001C242.38 131.001 241.957 131.12 241.648 131.358C241.343 131.592 241.132 131.853 241.014 132.141L239.518 131.8C239.695 131.303 239.954 130.901 240.295 130.596C240.64 130.287 241.036 130.063 241.483 129.925C241.931 129.783 242.401 129.712 242.895 129.712C243.221 129.712 243.568 129.751 243.933 129.829C244.303 129.903 244.647 130.042 244.967 130.244C245.29 130.447 245.555 130.736 245.76 131.113C245.966 131.485 246.069 131.97 246.069 132.567V138H244.514V136.881H244.45C244.347 137.087 244.193 137.29 243.987 137.489C243.781 137.687 243.516 137.853 243.193 137.984C242.87 138.115 242.483 138.181 242.032 138.181ZM242.378 136.903C242.818 136.903 243.195 136.816 243.507 136.642C243.823 136.468 244.063 136.24 244.226 135.96C244.393 135.676 244.477 135.372 244.477 135.049V133.994C244.42 134.051 244.31 134.104 244.146 134.154C243.987 134.2 243.804 134.241 243.598 134.277C243.392 134.309 243.191 134.339 242.996 134.367C242.801 134.392 242.637 134.413 242.506 134.431C242.197 134.47 241.915 134.536 241.659 134.628C241.407 134.721 241.204 134.854 241.052 135.028C240.903 135.198 240.828 135.425 240.828 135.71C240.828 136.104 240.974 136.402 241.265 136.604C241.556 136.803 241.927 136.903 242.378 136.903ZM248.319 138V127.091H249.911V131.145H250.007C250.1 130.974 250.233 130.777 250.407 130.553C250.581 130.33 250.822 130.134 251.131 129.967C251.44 129.797 251.848 129.712 252.356 129.712C253.017 129.712 253.606 129.879 254.125 130.212C254.643 130.546 255.05 131.027 255.345 131.656C255.643 132.284 255.792 133.041 255.792 133.925C255.792 134.809 255.645 135.567 255.35 136.2C255.055 136.828 254.65 137.313 254.135 137.654C253.62 137.991 253.033 138.16 252.372 138.16C251.875 138.16 251.468 138.076 251.152 137.909C250.84 137.743 250.595 137.547 250.417 137.324C250.24 137.1 250.103 136.901 250.007 136.727H249.874V138H248.319ZM249.879 133.909C249.879 134.484 249.963 134.989 250.13 135.422C250.297 135.855 250.538 136.194 250.854 136.439C251.17 136.681 251.557 136.801 252.015 136.801C252.491 136.801 252.889 136.675 253.209 136.423C253.528 136.168 253.77 135.821 253.933 135.385C254.1 134.948 254.183 134.456 254.183 133.909C254.183 133.369 254.102 132.885 253.938 132.455C253.778 132.025 253.537 131.686 253.214 131.438C252.894 131.189 252.495 131.065 252.015 131.065C251.554 131.065 251.163 131.184 250.843 131.422C250.527 131.659 250.288 131.991 250.124 132.418C249.961 132.844 249.879 133.341 249.879 133.909ZM258.309 141.068C258.071 141.068 257.854 141.049 257.659 141.01C257.464 140.974 257.318 140.935 257.222 140.892L257.606 139.587C257.897 139.665 258.156 139.699 258.383 139.689C258.611 139.678 258.811 139.593 258.985 139.433C259.163 139.273 259.319 139.012 259.454 138.65L259.651 138.107L256.658 129.818H258.362L260.434 136.168H260.519L262.592 129.818H264.301L260.93 139.092C260.773 139.518 260.574 139.879 260.333 140.173C260.092 140.472 259.804 140.695 259.47 140.844C259.136 140.994 258.749 141.068 258.309 141.068ZM265.798 138V129.818H267.338V131.118H267.423C267.572 130.678 267.835 130.331 268.211 130.079C268.591 129.824 269.021 129.696 269.5 129.696C269.6 129.696 269.717 129.699 269.852 129.706C269.99 129.713 270.099 129.722 270.177 129.733V131.256C270.113 131.239 269.999 131.219 269.836 131.198C269.672 131.173 269.509 131.161 269.346 131.161C268.969 131.161 268.634 131.24 268.339 131.4C268.048 131.556 267.817 131.775 267.647 132.055C267.476 132.332 267.391 132.648 267.391 133.004V138H265.798ZM273.02 135.225L273.009 133.281H273.286L276.546 129.818H278.453L274.735 133.76H274.485L273.02 135.225ZM271.555 138V127.091H273.148V138H271.555ZM276.722 138L273.792 134.112L274.89 132.998L278.677 138H276.722ZM282.286 138.181C281.767 138.181 281.298 138.085 280.879 137.893C280.46 137.698 280.128 137.416 279.883 137.047C279.642 136.677 279.521 136.224 279.521 135.688C279.521 135.227 279.61 134.847 279.787 134.548C279.965 134.25 280.205 134.014 280.507 133.84C280.808 133.666 281.146 133.534 281.519 133.446C281.892 133.357 282.271 133.289 282.659 133.243C283.149 133.186 283.546 133.14 283.852 133.105C284.157 133.066 284.379 133.004 284.518 132.918C284.656 132.833 284.725 132.695 284.725 132.503V132.466C284.725 132 284.594 131.64 284.331 131.384C284.072 131.129 283.685 131.001 283.17 131.001C282.634 131.001 282.211 131.12 281.902 131.358C281.597 131.592 281.385 131.853 281.268 132.141L279.771 131.8C279.949 131.303 280.208 130.901 280.549 130.596C280.894 130.287 281.29 130.063 281.737 129.925C282.184 129.783 282.655 129.712 283.149 129.712C283.475 129.712 283.822 129.751 284.187 129.829C284.557 129.903 284.901 130.042 285.221 130.244C285.544 130.447 285.808 130.736 286.014 131.113C286.22 131.485 286.323 131.97 286.323 132.567V138H284.768V136.881H284.704C284.601 137.087 284.447 137.29 284.241 137.489C284.035 137.687 283.77 137.853 283.447 137.984C283.124 138.115 282.737 138.181 282.286 138.181ZM282.632 136.903C283.072 136.903 283.449 136.816 283.761 136.642C284.077 136.468 284.317 136.24 284.48 135.96C284.647 135.676 284.731 135.372 284.731 135.049V133.994C284.674 134.051 284.564 134.104 284.4 134.154C284.241 134.2 284.058 134.241 283.852 134.277C283.646 134.309 283.445 134.339 283.25 134.367C283.055 134.392 282.891 134.413 282.76 134.431C282.451 134.47 282.169 134.536 281.913 134.628C281.661 134.721 281.458 134.854 281.306 135.028C281.156 135.198 281.082 135.425 281.082 135.71C281.082 136.104 281.227 136.402 281.519 136.604C281.81 136.803 282.181 136.903 282.632 136.903ZM295.013 140.967C293.912 140.967 292.935 140.816 292.083 140.514C291.234 140.216 290.519 139.776 289.936 139.193C289.354 138.614 288.912 137.904 288.61 137.062C288.308 136.221 288.157 135.26 288.157 134.181C288.157 133.13 288.31 132.185 288.615 131.347C288.921 130.509 289.364 129.795 289.947 129.206C290.533 128.613 291.245 128.16 292.083 127.847C292.921 127.535 293.873 127.379 294.938 127.379C295.957 127.379 296.856 127.538 297.633 127.858C298.411 128.178 299.064 128.616 299.593 129.174C300.126 129.731 300.527 130.37 300.797 131.091C301.067 131.812 301.202 132.574 301.202 133.376C301.202 133.937 301.167 134.486 301.096 135.022C301.025 135.555 300.893 136.038 300.701 136.471C300.513 136.901 300.24 137.245 299.881 137.505C299.526 137.76 299.064 137.893 298.496 137.904C298.194 137.915 297.901 137.879 297.617 137.798C297.333 137.716 297.092 137.585 296.893 137.403C296.694 137.219 296.573 136.984 296.531 136.7H296.467C296.381 136.91 296.239 137.105 296.041 137.286C295.842 137.464 295.588 137.606 295.279 137.712C294.973 137.815 294.618 137.858 294.214 137.84C293.766 137.822 293.363 137.721 293.004 137.537C292.646 137.352 292.339 137.096 292.083 136.77C291.831 136.443 291.637 136.056 291.502 135.608C291.367 135.161 291.3 134.664 291.3 134.117C291.3 133.591 291.376 133.121 291.529 132.705C291.682 132.286 291.889 131.926 292.152 131.624C292.418 131.319 292.724 131.077 293.068 130.9C293.413 130.722 293.777 130.61 294.16 130.564C294.533 130.521 294.876 130.532 295.188 130.596C295.501 130.66 295.76 130.757 295.966 130.889C296.176 131.02 296.307 131.164 296.36 131.32H296.429V130.724H297.74V135.667C297.74 135.947 297.813 136.185 297.958 136.381C298.107 136.576 298.319 136.674 298.592 136.674C298.915 136.674 299.167 136.555 299.348 136.317C299.533 136.079 299.663 135.713 299.737 135.219C299.815 134.726 299.854 134.094 299.854 133.323C299.854 132.783 299.782 132.276 299.636 131.8C299.494 131.32 299.283 130.887 299.002 130.5C298.725 130.109 298.384 129.774 297.979 129.493C297.575 129.213 297.113 128.996 296.595 128.843C296.08 128.691 295.51 128.614 294.885 128.614C294.036 128.614 293.281 128.746 292.621 129.009C291.96 129.268 291.403 129.642 290.948 130.132C290.497 130.623 290.155 131.21 289.92 131.896C289.689 132.577 289.574 133.343 289.574 134.191C289.574 135.076 289.693 135.86 289.931 136.546C290.169 137.228 290.52 137.803 290.986 138.272C291.451 138.74 292.026 139.096 292.711 139.337C293.397 139.582 294.187 139.705 295.082 139.705C295.479 139.705 295.87 139.669 296.254 139.598C296.637 139.531 296.978 139.452 297.276 139.364C297.578 139.278 297.804 139.209 297.953 139.156L298.326 140.322C298.106 140.425 297.813 140.527 297.447 140.626C297.085 140.725 296.69 140.807 296.264 140.871C295.842 140.935 295.424 140.967 295.013 140.967ZM294.522 136.535C294.984 136.535 295.355 136.443 295.636 136.258C295.92 136.074 296.124 135.798 296.248 135.433C296.376 135.063 296.44 134.602 296.44 134.048C296.437 133.508 296.367 133.078 296.232 132.759C296.101 132.435 295.895 132.205 295.614 132.066C295.337 131.924 294.981 131.853 294.544 131.853C294.142 131.853 293.8 131.951 293.516 132.146C293.235 132.341 293.02 132.606 292.871 132.94C292.726 133.273 292.651 133.645 292.647 134.053C292.651 134.483 292.711 134.887 292.829 135.267C292.949 135.644 293.145 135.949 293.415 136.184C293.688 136.418 294.057 136.535 294.522 136.535ZM306.392 141.239C305.742 141.239 305.183 141.153 304.714 140.983C304.249 140.813 303.869 140.587 303.574 140.306C303.279 140.026 303.059 139.719 302.913 139.385L304.282 138.82C304.378 138.977 304.506 139.142 304.666 139.316C304.829 139.493 305.049 139.644 305.326 139.768C305.607 139.893 305.967 139.955 306.408 139.955C307.011 139.955 307.51 139.808 307.904 139.513C308.299 139.222 308.496 138.756 308.496 138.117V136.509H308.395C308.299 136.683 308.16 136.876 307.979 137.089C307.801 137.302 307.556 137.487 307.244 137.643C306.931 137.799 306.525 137.877 306.024 137.877C305.378 137.877 304.795 137.727 304.277 137.425C303.762 137.119 303.354 136.67 303.052 136.077C302.754 135.48 302.604 134.747 302.604 133.877C302.604 133.007 302.752 132.261 303.047 131.64C303.345 131.018 303.753 130.543 304.272 130.212C304.79 129.879 305.378 129.712 306.035 129.712C306.543 129.712 306.953 129.797 307.265 129.967C307.578 130.134 307.821 130.33 307.995 130.553C308.173 130.777 308.309 130.974 308.405 131.145H308.522V129.818H310.083V138.181C310.083 138.884 309.92 139.461 309.593 139.912C309.266 140.363 308.824 140.697 308.267 140.914C307.713 141.13 307.088 141.239 306.392 141.239ZM306.376 136.556C306.834 136.556 307.221 136.45 307.537 136.237C307.857 136.02 308.098 135.711 308.261 135.31C308.428 134.905 308.512 134.42 308.512 133.856C308.512 133.305 308.43 132.821 308.267 132.402C308.103 131.983 307.864 131.656 307.548 131.422C307.232 131.184 306.841 131.065 306.376 131.065C305.896 131.065 305.497 131.189 305.177 131.438C304.858 131.683 304.616 132.016 304.453 132.439C304.293 132.862 304.213 133.334 304.213 133.856C304.213 134.392 304.295 134.863 304.458 135.267C304.621 135.672 304.863 135.988 305.183 136.216C305.506 136.443 305.903 136.556 306.376 136.556ZM312.219 138V129.818H313.748V131.15H313.849C314.02 130.699 314.298 130.347 314.685 130.095C315.072 129.839 315.536 129.712 316.076 129.712C316.623 129.712 317.081 129.839 317.45 130.095C317.823 130.351 318.098 130.702 318.276 131.15H318.361C318.556 130.713 318.867 130.365 319.293 130.106C319.719 129.843 320.227 129.712 320.816 129.712C321.559 129.712 322.164 129.944 322.633 130.409C323.105 130.875 323.341 131.576 323.341 132.513V138H321.749V132.663C321.749 132.109 321.598 131.707 321.296 131.459C320.994 131.21 320.634 131.086 320.214 131.086C319.696 131.086 319.293 131.246 319.005 131.565C318.718 131.881 318.574 132.288 318.574 132.785V138H316.987V132.561C316.987 132.118 316.848 131.761 316.571 131.491C316.294 131.221 315.934 131.086 315.49 131.086C315.188 131.086 314.909 131.166 314.653 131.326C314.401 131.482 314.197 131.7 314.041 131.981C313.888 132.261 313.812 132.586 313.812 132.956V138H312.219ZM327.857 138.181C327.339 138.181 326.87 138.085 326.451 137.893C326.032 137.698 325.7 137.416 325.455 137.047C325.213 136.677 325.092 136.224 325.092 135.688C325.092 135.227 325.181 134.847 325.359 134.548C325.536 134.25 325.776 134.014 326.078 133.84C326.38 133.666 326.717 133.534 327.09 133.446C327.463 133.357 327.843 133.289 328.23 133.243C328.72 133.186 329.118 133.14 329.423 133.105C329.728 133.066 329.95 133.004 330.089 132.918C330.227 132.833 330.297 132.695 330.297 132.503V132.466C330.297 132 330.165 131.64 329.902 131.384C329.643 131.129 329.256 131.001 328.741 131.001C328.205 131.001 327.782 131.12 327.473 131.358C327.168 131.592 326.957 131.853 326.84 132.141L325.343 131.8C325.52 131.303 325.78 130.901 326.12 130.596C326.465 130.287 326.861 130.063 327.308 129.925C327.756 129.783 328.226 129.712 328.72 129.712C329.047 129.712 329.393 129.751 329.759 129.829C330.128 129.903 330.472 130.042 330.792 130.244C331.115 130.447 331.38 130.736 331.586 131.113C331.792 131.485 331.895 131.97 331.895 132.567V138H330.339V136.881H330.275C330.172 137.087 330.018 137.29 329.812 137.489C329.606 137.687 329.341 137.853 329.018 137.984C328.695 138.115 328.308 138.181 327.857 138.181ZM328.203 136.903C328.644 136.903 329.02 136.816 329.332 136.642C329.649 136.468 329.888 136.24 330.052 135.96C330.218 135.676 330.302 135.372 330.302 135.049V133.994C330.245 134.051 330.135 134.104 329.972 134.154C329.812 134.2 329.629 134.241 329.423 134.277C329.217 134.309 329.016 134.339 328.821 134.367C328.626 134.392 328.462 134.413 328.331 134.431C328.022 134.47 327.74 134.536 327.484 134.628C327.232 134.721 327.03 134.854 326.877 135.028C326.728 135.198 326.653 135.425 326.653 135.71C326.653 136.104 326.799 136.402 327.09 136.604C327.381 136.803 327.752 136.903 328.203 136.903ZM334.016 138V129.818H335.609V138H334.016ZM334.82 128.556C334.543 128.556 334.305 128.463 334.107 128.279C333.911 128.091 333.814 127.867 333.814 127.608C333.814 127.345 333.911 127.121 334.107 126.936C334.305 126.748 334.543 126.654 334.82 126.654C335.097 126.654 335.333 126.748 335.529 126.936C335.728 127.121 335.827 127.345 335.827 127.608C335.827 127.867 335.728 128.091 335.529 128.279C335.333 128.463 335.097 128.556 334.82 128.556ZM339.344 127.091V138H337.751V127.091H339.344ZM342.536 138.101C342.245 138.101 341.994 137.998 341.785 137.792C341.575 137.583 341.471 137.331 341.471 137.036C341.471 136.745 341.575 136.496 341.785 136.29C341.994 136.081 342.245 135.976 342.536 135.976C342.827 135.976 343.078 136.081 343.287 136.29C343.497 136.496 343.601 136.745 343.601 137.036C343.601 137.231 343.552 137.411 343.452 137.574C343.356 137.734 343.229 137.862 343.069 137.957C342.909 138.053 342.731 138.101 342.536 138.101ZM349.181 138.165C348.389 138.165 347.707 137.986 347.136 137.627C346.567 137.265 346.131 136.766 345.825 136.13C345.52 135.495 345.367 134.767 345.367 133.946C345.367 133.115 345.523 132.382 345.836 131.746C346.148 131.107 346.589 130.608 347.157 130.25C347.725 129.891 348.395 129.712 349.165 129.712C349.787 129.712 350.341 129.827 350.827 130.058C351.314 130.285 351.706 130.605 352.004 131.017C352.306 131.429 352.485 131.91 352.542 132.46H350.992C350.907 132.077 350.712 131.746 350.406 131.469C350.104 131.192 349.7 131.054 349.192 131.054C348.748 131.054 348.359 131.171 348.025 131.406C347.695 131.636 347.438 131.967 347.253 132.396C347.068 132.822 346.976 133.327 346.976 133.909C346.976 134.506 347.066 135.021 347.248 135.454C347.429 135.887 347.684 136.223 348.015 136.461C348.348 136.699 348.741 136.817 349.192 136.817C349.494 136.817 349.767 136.762 350.012 136.652C350.261 136.539 350.468 136.377 350.635 136.168C350.806 135.958 350.925 135.706 350.992 135.411H352.542C352.485 135.94 352.313 136.413 352.026 136.828C351.738 137.244 351.353 137.57 350.87 137.808C350.39 138.046 349.827 138.165 349.181 138.165ZM357.692 138.165C356.925 138.165 356.255 137.989 355.684 137.638C355.112 137.286 354.668 136.794 354.352 136.162C354.036 135.53 353.878 134.792 353.878 133.946C353.878 133.098 354.036 132.355 354.352 131.72C354.668 131.084 355.112 130.591 355.684 130.239C356.255 129.887 356.925 129.712 357.692 129.712C358.459 129.712 359.128 129.887 359.7 130.239C360.272 130.591 360.716 131.084 361.032 131.72C361.348 132.355 361.506 133.098 361.506 133.946C361.506 134.792 361.348 135.53 361.032 136.162C360.716 136.794 360.272 137.286 359.7 137.638C359.128 137.989 358.459 138.165 357.692 138.165ZM357.697 136.828C358.194 136.828 358.606 136.697 358.933 136.434C359.26 136.171 359.501 135.821 359.657 135.385C359.817 134.948 359.897 134.467 359.897 133.941C359.897 133.419 359.817 132.94 359.657 132.503C359.501 132.062 359.26 131.709 358.933 131.443C358.606 131.176 358.194 131.043 357.697 131.043C357.196 131.043 356.781 131.176 356.451 131.443C356.124 131.709 355.881 132.062 355.721 132.503C355.565 132.94 355.487 133.419 355.487 133.941C355.487 134.467 355.565 134.948 355.721 135.385C355.881 135.821 356.124 136.171 356.451 136.434C356.781 136.697 357.196 136.828 357.697 136.828ZM363.284 138V129.818H364.812V131.15H364.914C365.084 130.699 365.363 130.347 365.75 130.095C366.137 129.839 366.6 129.712 367.14 129.712C367.687 129.712 368.145 129.839 368.514 130.095C368.887 130.351 369.162 130.702 369.34 131.15H369.425C369.621 130.713 369.931 130.365 370.357 130.106C370.784 129.843 371.291 129.712 371.881 129.712C372.623 129.712 373.229 129.944 373.697 130.409C374.17 130.875 374.406 131.576 374.406 132.513V138H372.813V132.663C372.813 132.109 372.662 131.707 372.36 131.459C372.058 131.21 371.698 131.086 371.279 131.086C370.76 131.086 370.357 131.246 370.07 131.565C369.782 131.881 369.638 132.288 369.638 132.785V138H368.051V132.561C368.051 132.118 367.912 131.761 367.635 131.491C367.358 131.221 366.998 131.086 366.554 131.086C366.252 131.086 365.974 131.166 365.718 131.326C365.466 131.482 365.262 131.7 365.105 131.981C364.953 132.261 364.876 132.586 364.876 132.956V138H363.284Z" fill="#787878"/>
<g opacity="0.52">
<rect x="12.25" y="170.25" width="375.5" height="49.5" rx="24.75" fill="white" fill-opacity="0.1"/>
<rect x="12.25" y="170.25" width="375.5" height="49.5" rx="24.75" stroke="#999999" stroke-width="0.5"/>
<g clip-path="url(#clip2_1_23)">
<path d="M42.375 183H29.625C26.5184 183 24 185.518 24 188.625V201.375C24 204.482 26.5184 207 29.625 207H42.375C45.4816 207 48 204.482 48 201.375V188.625C48 185.518 45.4816 183 42.375 183Z" fill="white"/>
<path d="M42.375 183H29.625C26.5184 183 24 185.518 24 188.625V201.375C24 204.482 26.5184 207 29.625 207H42.375C45.4816 207 48 204.482 48 201.375V188.625C48 185.518 45.4816 183 42.375 183Z" fill="#0A66C2"/>
<path d="M41.317 203.408H44.0611C44.1605 203.408 44.2559 203.368 44.3262 203.298C44.3965 203.228 44.4361 203.133 44.4361 203.033L44.4375 197.235C44.4375 194.205 43.7845 191.876 40.2433 191.876C38.8972 191.826 37.6277 192.52 36.9427 193.678C36.9393 193.684 36.9342 193.689 36.9281 193.691C36.9221 193.693 36.9154 193.694 36.909 193.692C36.9027 193.69 36.8971 193.687 36.8931 193.681C36.8891 193.676 36.8869 193.67 36.8869 193.663V192.531C36.8869 192.431 36.8474 192.336 36.777 192.265C36.7067 192.195 36.6113 192.156 36.5119 192.156H33.9078C33.8083 192.156 33.7129 192.195 33.6426 192.265C33.5723 192.336 33.5328 192.431 33.5328 192.531V203.032C33.5328 203.132 33.5723 203.227 33.6426 203.298C33.7129 203.368 33.8083 203.407 33.9078 203.407H36.6517C36.7511 203.407 36.8465 203.368 36.9168 203.298C36.9871 203.227 37.0267 203.132 37.0267 203.032V197.841C37.0267 196.373 37.3051 194.952 39.1249 194.952C40.9188 194.952 40.942 196.632 40.942 197.936V203.033C40.942 203.132 40.9815 203.228 41.0519 203.298C41.1222 203.368 41.2176 203.408 41.317 203.408ZM27.5625 188.59C27.5625 189.702 28.4782 190.618 29.5905 190.618C30.7026 190.617 31.6177 189.702 31.6177 188.59C31.6175 187.478 30.7023 186.562 29.5901 186.562C28.4777 186.562 27.5625 187.478 27.5625 188.59ZM28.2149 203.408H30.9624C31.0619 203.408 31.1573 203.368 31.2276 203.298C31.2979 203.228 31.3374 203.132 31.3374 203.033V192.531C31.3374 192.431 31.2979 192.336 31.2276 192.265C31.1573 192.195 31.0619 192.156 30.9624 192.156H28.2149C28.1155 192.156 28.0201 192.195 27.9497 192.265C27.8794 192.336 27.8399 192.431 27.8399 192.531V203.033C27.8399 203.132 27.8794 203.228 27.9497 203.298C28.0201 203.368 28.1155 203.408 28.2149 203.408Z" fill="white"/>
</g>
<path d="M55.1985 200V189.091H56.8445V198.583H61.7876V200H55.1985ZM63.5375 200V191.818H65.1301V200H63.5375ZM64.3418 190.556C64.0648 190.556 63.8269 190.463 63.628 190.279C63.4327 190.091 63.335 189.867 63.335 189.608C63.335 189.345 63.4327 189.121 63.628 188.936C63.8269 188.748 64.0648 188.654 64.3418 188.654C64.6188 188.654 64.8549 188.748 65.0502 188.936C65.2491 189.121 65.3485 189.345 65.3485 189.608C65.3485 189.867 65.2491 190.091 65.0502 190.279C64.8549 190.463 64.6188 190.556 64.3418 190.556ZM68.8655 195.142V200H67.2728V191.818H68.8016V193.15H68.9028C69.091 192.717 69.3857 192.369 69.787 192.106C70.1919 191.843 70.7014 191.712 71.3158 191.712C71.8733 191.712 72.3616 191.829 72.7806 192.063C73.1997 192.294 73.5246 192.638 73.7554 193.097C73.9862 193.555 74.1017 194.121 74.1017 194.796V200H72.509V194.988C72.509 194.395 72.3545 193.931 72.0455 193.597C71.7366 193.26 71.3122 193.091 70.7725 193.091C70.4031 193.091 70.0747 193.171 69.787 193.331C69.5029 193.491 69.2774 193.725 69.1105 194.034C68.9472 194.339 68.8655 194.709 68.8655 195.142ZM77.7025 197.225L77.6919 195.281H77.9688L81.2288 191.818H83.1357L79.4177 195.76H79.1673L77.7025 197.225ZM76.2377 200V189.091H77.8303V200H76.2377ZM81.4046 200L78.4749 196.112L79.5722 194.998L83.3595 200H81.4046ZM87.7766 200.165C86.9705 200.165 86.2763 199.993 85.6939 199.648C85.1151 199.3 84.6676 198.812 84.3516 198.184C84.0391 197.551 83.8828 196.811 83.8828 195.962C83.8828 195.124 84.0391 194.386 84.3516 193.746C84.6676 193.107 85.108 192.608 85.6726 192.25C86.2408 191.891 86.9048 191.712 87.6648 191.712C88.1264 191.712 88.5739 191.788 89.0071 191.941C89.4403 192.093 89.8292 192.333 90.1737 192.66C90.5181 192.987 90.7898 193.411 90.9886 193.933C91.1875 194.451 91.2869 195.082 91.2869 195.824V196.388H84.783V195.195H89.7262C89.7262 194.776 89.641 194.405 89.4705 194.082C89.3001 193.755 89.0604 193.498 88.7514 193.31C88.446 193.121 88.0874 193.027 87.6754 193.027C87.228 193.027 86.8374 193.137 86.5036 193.358C86.1733 193.574 85.9176 193.858 85.7365 194.21C85.5589 194.558 85.4702 194.936 85.4702 195.344V196.277C85.4702 196.824 85.5661 197.289 85.7578 197.672C85.9531 198.056 86.2248 198.349 86.5728 198.551C86.9208 198.75 87.3274 198.849 87.7926 198.849C88.0945 198.849 88.3697 198.807 88.6183 198.722C88.8668 198.633 89.0817 198.501 89.2628 198.327C89.4439 198.153 89.5824 197.939 89.6783 197.683L91.1857 197.955C91.065 198.398 90.8484 198.787 90.5359 199.121C90.2269 199.451 89.8381 199.709 89.3693 199.893C88.9041 200.075 88.3732 200.165 87.7766 200.165ZM96.1169 200.16C95.4564 200.16 94.8669 199.991 94.3485 199.654C93.8335 199.313 93.4287 198.828 93.134 198.2C92.8428 197.567 92.6972 196.809 92.6972 195.925C92.6972 195.041 92.8445 194.284 93.1393 193.656C93.4376 193.027 93.846 192.546 94.3644 192.212C94.8829 191.879 95.4706 191.712 96.1276 191.712C96.6354 191.712 97.0438 191.797 97.3527 191.967C97.6652 192.134 97.9067 192.33 98.0771 192.553C98.2512 192.777 98.3861 192.974 98.482 193.145H98.5779V189.091H100.171V200H98.6151V198.727H98.482C98.3861 198.901 98.2476 199.1 98.0665 199.324C97.8889 199.547 97.6439 199.743 97.3314 199.909C97.0189 200.076 96.6141 200.16 96.1169 200.16ZM96.4685 198.801C96.9266 198.801 97.3137 198.681 97.6297 198.439C97.9493 198.194 98.1908 197.855 98.3541 197.422C98.521 196.989 98.6045 196.484 98.6045 195.909C98.6045 195.341 98.5228 194.844 98.3595 194.418C98.1961 193.991 97.9564 193.659 97.6404 193.422C97.3243 193.184 96.9337 193.065 96.4685 193.065C95.9891 193.065 95.5896 193.189 95.27 193.438C94.9504 193.686 94.7089 194.025 94.5455 194.455C94.3857 194.885 94.3058 195.369 94.3058 195.909C94.3058 196.456 94.3875 196.948 94.5509 197.385C94.7142 197.821 94.9557 198.168 95.2753 198.423C95.5985 198.675 95.9962 198.801 96.4685 198.801ZM104.218 189.091V200H102.572V189.091H104.218ZM108.079 195.142V200H106.487V191.818H108.015V193.15H108.117C108.305 192.717 108.6 192.369 109.001 192.106C109.406 191.843 109.915 191.712 110.53 191.712C111.087 191.712 111.575 191.829 111.994 192.063C112.414 192.294 112.738 192.638 112.969 193.097C113.2 193.555 113.316 194.121 113.316 194.796V200H111.723V194.988C111.723 194.395 111.568 193.931 111.259 193.597C110.95 193.26 110.526 193.091 109.986 193.091C109.617 193.091 109.289 193.171 109.001 193.331C108.717 193.491 108.491 193.725 108.324 194.034C108.161 194.339 108.079 194.709 108.079 195.142Z" fill="white"/>
<path d="M327.663 195.142V200H326.071V191.818H327.599V193.15H327.701C327.889 192.717 328.184 192.369 328.585 192.106C328.99 191.843 329.499 191.712 330.114 191.712C330.671 191.712 331.159 191.829 331.578 192.063C331.998 192.294 332.322 192.638 332.553 193.097C332.784 193.555 332.9 194.121 332.9 194.796V200H331.307V194.988C331.307 194.395 331.152 193.931 330.843 193.597C330.534 193.26 330.11 193.091 329.57 193.091C329.201 193.091 328.873 193.171 328.585 193.331C328.301 193.491 328.075 193.725 327.908 194.034C327.745 194.339 327.663 194.709 327.663 195.142ZM338.482 200.165C337.715 200.165 337.045 199.989 336.474 199.638C335.902 199.286 335.458 198.794 335.142 198.162C334.826 197.53 334.668 196.792 334.668 195.946C334.668 195.098 334.826 194.355 335.142 193.72C335.458 193.084 335.902 192.591 336.474 192.239C337.045 191.887 337.715 191.712 338.482 191.712C339.249 191.712 339.918 191.887 340.49 192.239C341.062 192.591 341.506 193.084 341.822 193.72C342.138 194.355 342.296 195.098 342.296 195.946C342.296 196.792 342.138 197.53 341.822 198.162C341.506 198.794 341.062 199.286 340.49 199.638C339.918 199.989 339.249 200.165 338.482 200.165ZM338.487 198.828C338.984 198.828 339.396 198.697 339.723 198.434C340.05 198.171 340.291 197.821 340.447 197.385C340.607 196.948 340.687 196.467 340.687 195.941C340.687 195.419 340.607 194.94 340.447 194.503C340.291 194.062 340.05 193.709 339.723 193.443C339.396 193.176 338.984 193.043 338.487 193.043C337.987 193.043 337.571 193.176 337.241 193.443C336.914 193.709 336.671 194.062 336.511 194.503C336.355 194.94 336.277 195.419 336.277 195.941C336.277 196.467 336.355 196.948 336.511 197.385C336.671 197.821 336.914 198.171 337.241 198.434C337.571 198.697 337.987 198.828 338.487 198.828ZM347.893 191.818V193.097H343.424V191.818H347.893ZM344.622 189.858H346.215V197.598C346.215 197.907 346.261 198.139 346.353 198.295C346.446 198.448 346.565 198.553 346.71 198.61C346.859 198.663 347.021 198.69 347.195 198.69C347.323 198.69 347.435 198.681 347.531 198.663C347.627 198.645 347.701 198.631 347.754 198.62L348.042 199.936C347.95 199.972 347.818 200.007 347.648 200.043C347.477 200.082 347.264 200.103 347.009 200.107C346.59 200.114 346.199 200.039 345.837 199.883C345.475 199.727 345.182 199.485 344.958 199.158C344.734 198.832 344.622 198.422 344.622 197.928V189.858ZM354.631 203.068C354.393 203.068 354.177 203.049 353.981 203.01C353.786 202.974 353.64 202.935 353.544 202.892L353.928 201.587C354.219 201.665 354.478 201.699 354.706 201.689C354.933 201.678 355.134 201.593 355.308 201.433C355.485 201.273 355.641 201.012 355.776 200.65L355.973 200.107L352.98 191.818H354.684L356.756 198.168H356.842L358.914 191.818H360.624L357.252 201.092C357.096 201.518 356.897 201.879 356.655 202.173C356.414 202.472 356.126 202.695 355.792 202.844C355.459 202.994 355.071 203.068 354.631 203.068ZM365.368 200.165C364.562 200.165 363.868 199.993 363.286 199.648C362.707 199.3 362.259 198.812 361.943 198.184C361.631 197.551 361.475 196.811 361.475 195.962C361.475 195.124 361.631 194.386 361.943 193.746C362.259 193.107 362.7 192.608 363.264 192.25C363.833 191.891 364.497 191.712 365.257 191.712C365.718 191.712 366.166 191.788 366.599 191.941C367.032 192.093 367.421 192.333 367.765 192.66C368.11 192.987 368.382 193.411 368.58 193.933C368.779 194.451 368.879 195.082 368.879 195.824V196.388H362.375V195.195H367.318C367.318 194.776 367.233 194.405 367.062 194.082C366.892 193.755 366.652 193.498 366.343 193.31C366.038 193.121 365.679 193.027 365.267 193.027C364.82 193.027 364.429 193.137 364.095 193.358C363.765 193.574 363.509 193.858 363.328 194.21C363.151 194.558 363.062 194.936 363.062 195.344V196.277C363.062 196.824 363.158 197.289 363.35 197.672C363.545 198.056 363.817 198.349 364.165 198.551C364.513 198.75 364.919 198.849 365.384 198.849C365.686 198.849 365.961 198.807 366.21 198.722C366.459 198.633 366.673 198.501 366.855 198.327C367.036 198.153 367.174 197.939 367.27 197.683L368.778 197.955C368.657 198.398 368.44 198.787 368.128 199.121C367.819 199.451 367.43 199.709 366.961 199.893C366.496 200.075 365.965 200.165 365.368 200.165ZM374.465 191.818V193.097H369.996V191.818H374.465ZM371.195 189.858H372.787V197.598C372.787 197.907 372.833 198.139 372.926 198.295C373.018 198.448 373.137 198.553 373.283 198.61C373.432 198.663 373.593 198.69 373.767 198.69C373.895 198.69 374.007 198.681 374.103 198.663C374.199 198.645 374.273 198.631 374.327 198.62L374.614 199.936C374.522 199.972 374.391 200.007 374.22 200.043C374.05 200.082 373.837 200.103 373.581 200.107C373.162 200.114 372.771 200.039 372.409 199.883C372.047 199.727 371.754 199.485 371.53 199.158C371.306 198.832 371.195 198.422 371.195 197.928V189.858Z" fill="#787878"/>
</g>
<defs>
<linearGradient id="paint0_linear_1_23" x1="0" y1="127" x2="400" y2="127" gradientUnits="userSpaceOnUse">
<stop stop-color="#5C6477" stop-opacity="0.4"/>
<stop offset="1" stop-color="#5C6477"/>
</linearGradient>
<linearGradient id="paint1_linear_1_23" x1="12" y1="71" x2="388" y2="71" gradientUnits="userSpaceOnUse">
<stop stop-color="#5C6477"/>
<stop offset="1" stop-color="#5C6477" stop-opacity="0.4"/>
</linearGradient>
<linearGradient id="paint2_linear_1_23" x1="37" y1="59.3" x2="37" y2="82.7" gradientUnits="userSpaceOnUse">
<stop stop-color="#2AABEE"/>
<stop offset="1" stop-color="#229ED9"/>
</linearGradient>
<linearGradient id="paint3_linear_1_23" x1="12" y1="133" x2="388" y2="133" gradientUnits="userSpaceOnUse">
<stop stop-color="#5C6477"/>
<stop offset="1" stop-color="#5C6477" stop-opacity="0.4"/>
</linearGradient>
<clipPath id="clip0_1_23">
<rect width="26" height="24" fill="white" transform="translate(24 59)"/>
</clipPath>
<clipPath id="clip1_1_23">
<rect width="24" height="24" fill="white" transform="translate(24 121)"/>
</clipPath>
<clipPath id="clip2_1_23">
<rect width="24" height="24" fill="white" transform="translate(24 183)"/>
</clipPath>
</defs>
</svg>
