<svg width="400" height="140" viewBox="0 0 400 140" fill="none" xmlns="http://www.w3.org/2000/svg">
<rect x="0.5" y="0.5" width="399" height="139" rx="11.5" stroke="url(#paint0_linear_1_2)"/>
<path d="M14.8445 65.0909V76H13.1985V65.0909H14.8445ZM21.2112 76V65.0909H22.8039V69.1445H22.8998C22.9921 68.9741 23.1253 68.777 23.2993 68.5533C23.4733 68.3295 23.7148 68.1342 24.0237 67.9673C24.3327 67.7969 24.741 67.7116 25.2488 67.7116C25.9094 67.7116 26.4988 67.8786 27.0173 68.2124C27.5358 68.5462 27.9424 69.0273 28.2371 69.6559C28.5354 70.2844 28.6846 71.0408 28.6846 71.9251C28.6846 72.8093 28.5372 73.5675 28.2425 74.1996C27.9477 74.8281 27.5429 75.3129 27.028 75.6538C26.5131 75.9911 25.9253 76.1598 25.2648 76.1598C24.7677 76.1598 24.3611 76.0763 24.045 75.9094C23.7325 75.7425 23.4875 75.5472 23.3099 75.3235C23.1324 75.0998 22.9956 74.9009 22.8998 74.7269H22.7666V76H21.2112ZM22.7719 71.9091C22.7719 72.4844 22.8554 72.9886 23.0223 73.4219C23.1892 73.8551 23.4307 74.1942 23.7467 74.4393C24.0628 74.6808 24.4498 74.8015 24.9079 74.8015C25.3838 74.8015 25.7815 74.6754 26.1011 74.4233C26.4207 74.1676 26.6622 73.8214 26.8256 73.3846C26.9925 72.9478 27.0759 72.456 27.0759 71.9091C27.0759 71.3693 26.9942 70.8846 26.8309 70.4549C26.6711 70.0252 26.4296 69.6861 26.1064 69.4375C25.7868 69.1889 25.3873 69.0646 24.9079 69.0646C24.4463 69.0646 24.0557 69.1836 23.7361 69.4215C23.42 69.6594 23.1803 69.9915 23.017 70.4176C22.8536 70.8437 22.7719 71.3409 22.7719 71.9091ZM35.6559 72.6069V67.8182H37.2539V76H35.6879V74.5831H35.6026C35.4144 75.0199 35.1126 75.3839 34.6971 75.6751C34.2852 75.9627 33.772 76.1065 33.1577 76.1065C32.6321 76.1065 32.1669 75.9911 31.7621 75.7603C31.3608 75.5259 31.0447 75.1797 30.8139 74.7216C30.5866 74.2635 30.473 73.6971 30.473 73.0224V67.8182H32.0657V72.8306C32.0657 73.3881 32.2202 73.832 32.5291 74.1623C32.8381 74.4925 33.2393 74.6577 33.733 74.6577C34.0313 74.6577 34.3278 74.5831 34.6225 74.4339C34.9208 74.2848 35.1676 74.0593 35.3629 73.7575C35.5618 73.4556 35.6594 73.0721 35.6559 72.6069ZM39.3939 76V67.8182H40.9866V76H39.3939ZM40.1982 66.5558C39.9213 66.5558 39.6833 66.4634 39.4845 66.2788C39.2892 66.0906 39.1915 65.8668 39.1915 65.6076C39.1915 65.3448 39.2892 65.1211 39.4845 64.9364C39.6833 64.7482 39.9213 64.6541 40.1982 64.6541C40.4752 64.6541 40.7114 64.7482 40.9067 64.9364C41.1056 65.1211 41.205 65.3448 41.205 65.6076C41.205 65.8668 41.1056 66.0906 40.9067 66.2788C40.7114 66.4634 40.4752 66.5558 40.1982 66.5558ZM44.7219 65.0909V76H43.1293V65.0909H44.7219ZM49.9275 76.1598C49.267 76.1598 48.6775 75.9911 48.159 75.6538C47.6441 75.3129 47.2393 74.8281 46.9445 74.1996C46.6533 73.5675 46.5077 72.8093 46.5077 71.9251C46.5077 71.0408 46.6551 70.2844 46.9498 69.6559C47.2481 69.0273 47.6565 68.5462 48.175 68.2124C48.6934 67.8786 49.2812 67.7116 49.9381 67.7116C50.4459 67.7116 50.8543 67.7969 51.1633 67.9673C51.4758 68.1342 51.7172 68.3295 51.8877 68.5533C52.0617 68.777 52.1966 68.9741 52.2925 69.1445H52.3884V65.0909H53.9811V76H52.4257V74.7269H52.2925C52.1966 74.9009 52.0582 75.0998 51.877 75.3235C51.6995 75.5472 51.4545 75.7425 51.142 75.9094C50.8295 76.0763 50.4246 76.1598 49.9275 76.1598ZM50.279 74.8015C50.7371 74.8015 51.1242 74.6808 51.4403 74.4393C51.7599 74.1942 52.0013 73.8551 52.1647 73.4219C52.3316 72.9886 52.415 72.4844 52.415 71.9091C52.415 71.3409 52.3334 70.8437 52.17 70.4176C52.0067 69.9915 51.767 69.6594 51.4509 69.4215C51.1349 69.1836 50.7442 69.0646 50.279 69.0646C49.7996 69.0646 49.4001 69.1889 49.0805 69.4375C48.7609 69.6861 48.5194 70.0252 48.3561 70.4549C48.1963 70.8846 48.1164 71.3693 48.1164 71.9091C48.1164 72.456 48.1981 72.9478 48.3614 73.3846C48.5248 73.8214 48.7662 74.1676 49.0858 74.4233C49.409 74.6754 49.8067 74.8015 50.279 74.8015ZM58.3263 74.5085L58.2464 75.0891C58.1932 75.5153 58.1026 75.9592 57.9748 76.4208C57.8505 76.886 57.7209 77.3175 57.5859 77.7152C57.4545 78.1129 57.3462 78.429 57.261 78.6634H56.1317C56.1779 78.4432 56.2418 78.1449 56.3235 77.7685C56.4052 77.3956 56.4851 76.9783 56.5632 76.5167C56.6413 76.055 56.6999 75.5845 56.739 75.1051L56.7923 74.5085H58.3263ZM64.4973 76V65.0909H66.09V69.1445H66.1859C66.2782 68.9741 66.4114 68.777 66.5854 68.5533C66.7594 68.3295 67.0009 68.1342 67.3098 67.9673C67.6188 67.7969 68.0272 67.7116 68.535 67.7116C69.1955 67.7116 69.785 67.8786 70.3034 68.2124C70.8219 68.5462 71.2285 69.0273 71.5233 69.6559C71.8216 70.2844 71.9707 71.0408 71.9707 71.9251C71.9707 72.8093 71.8233 73.5675 71.5286 74.1996C71.2338 74.8281 70.829 75.3129 70.3141 75.6538C69.7992 75.9911 69.2115 76.1598 68.551 76.1598C68.0538 76.1598 67.6472 76.0763 67.3311 75.9094C67.0186 75.7425 66.7736 75.5472 66.5961 75.3235C66.4185 75.0998 66.2818 74.9009 66.1859 74.7269H66.0527V76H64.4973ZM66.0581 71.9091C66.0581 72.4844 66.1415 72.9886 66.3084 73.4219C66.4753 73.8551 66.7168 74.1942 67.0328 74.4393C67.3489 74.6808 67.736 74.8015 68.1941 74.8015C68.6699 74.8015 69.0676 74.6754 69.3873 74.4233C69.7069 74.1676 69.9483 73.8214 70.1117 73.3846C70.2786 72.9478 70.362 72.456 70.362 71.9091C70.362 71.3693 70.2804 70.8846 70.117 70.4549C69.9572 70.0252 69.7157 69.6861 69.3926 69.4375C69.073 69.1889 68.6735 69.0646 68.1941 69.0646C67.7324 69.0646 67.3418 69.1836 67.0222 69.4215C66.7061 69.6594 66.4664 69.9915 66.3031 70.4176C66.1397 70.8437 66.0581 71.3409 66.0581 71.9091ZM73.7591 76V67.8182H75.2986V69.1179H75.3838C75.5329 68.6776 75.7957 68.3313 76.1721 68.0792C76.5521 67.8235 76.9818 67.6957 77.4612 67.6957C77.5606 67.6957 77.6778 67.6992 77.8128 67.7063C77.9513 67.7134 78.0596 67.7223 78.1377 67.733V69.2564C78.0738 69.2386 77.9601 69.2191 77.7968 69.1978C77.6334 69.1729 77.4701 69.1605 77.3067 69.1605C76.9303 69.1605 76.5947 69.2404 76.3 69.4002C76.0088 69.5565 75.778 69.7749 75.6075 70.0554C75.4371 70.3324 75.3518 70.6484 75.3518 71.0036V76H73.7591ZM82.7493 76.1651C81.9432 76.1651 81.2489 75.9929 80.6665 75.6484C80.0877 75.3004 79.6403 74.8121 79.3242 74.1836C79.0117 73.5515 78.8555 72.8111 78.8555 71.9624C78.8555 71.1243 79.0117 70.3857 79.3242 69.7464C79.6403 69.1072 80.0806 68.6083 80.6452 68.2496C81.2134 67.891 81.8775 67.7116 82.6374 67.7116C83.0991 67.7116 83.5465 67.788 83.9798 67.9407C84.413 68.0934 84.8018 68.3331 85.1463 68.6598C85.4908 68.9865 85.7624 69.4109 85.9613 69.9329C86.1602 70.4513 86.2596 71.0817 86.2596 71.8239V72.3885H79.7557V71.1953H84.6989C84.6989 70.7763 84.6136 70.4052 84.4432 70.082C84.2727 69.7553 84.033 69.4979 83.7241 69.3097C83.4187 69.1214 83.06 69.0273 82.6481 69.0273C82.2006 69.0273 81.81 69.1374 81.4762 69.3576C81.146 69.5742 80.8903 69.8583 80.7092 70.2099C80.5316 70.5579 80.4428 70.9361 80.4428 71.3445V72.2766C80.4428 72.8235 80.5387 73.2887 80.7305 73.6722C80.9258 74.0558 81.1974 74.3487 81.5455 74.5511C81.8935 74.75 82.3001 74.8494 82.7653 74.8494C83.0671 74.8494 83.3423 74.8068 83.5909 74.7216C83.8395 74.6328 84.0543 74.5014 84.2354 74.3274C84.4165 74.1534 84.555 73.9386 84.6509 73.6829L86.1584 73.9545C86.0376 74.3984 85.821 74.7873 85.5085 75.1211C85.1996 75.4513 84.8107 75.7088 84.342 75.8935C83.8768 76.0746 83.3459 76.1651 82.7493 76.1651ZM90.4078 76.1811C89.8893 76.1811 89.4205 76.0852 89.0015 75.8935C88.5825 75.6982 88.2504 75.4158 88.0054 75.0465C87.7639 74.6772 87.6432 74.2244 87.6432 73.6882C87.6432 73.2266 87.732 72.8466 87.9095 72.5483C88.0871 72.25 88.3268 72.0138 88.6286 71.8398C88.9305 71.6658 89.2678 71.5344 89.6407 71.4457C90.0136 71.3569 90.3936 71.2894 90.7806 71.2433C91.2707 71.1864 91.6684 71.1403 91.9738 71.1048C92.2792 71.0657 92.5012 71.0036 92.6396 70.9183C92.7781 70.8331 92.8474 70.6946 92.8474 70.5028V70.4656C92.8474 70.0004 92.716 69.6399 92.4532 69.3842C92.194 69.1286 91.8069 69.0007 91.292 69.0007C90.7558 69.0007 90.3332 69.1197 90.0242 69.3576C89.7188 69.592 89.5075 69.853 89.3904 70.1406L87.8936 69.7997C88.0711 69.3026 88.3303 68.9013 88.6713 68.5959C89.0157 68.2869 89.4117 68.0632 89.8591 67.9247C90.3066 67.7827 90.7771 67.7116 91.2707 67.7116C91.5974 67.7116 91.9436 67.7507 92.3094 67.8288C92.6787 67.9034 93.0232 68.0419 93.3428 68.2443C93.6659 68.4467 93.9305 68.7362 94.1365 69.1126C94.3424 69.4854 94.4454 69.9702 94.4454 70.5668V76H92.89V74.8814H92.8261C92.7231 75.0874 92.5686 75.2898 92.3627 75.4886C92.1567 75.6875 91.8921 75.8526 91.569 75.984C91.2458 76.1154 90.8588 76.1811 90.4078 76.1811ZM90.754 74.9027C91.1943 74.9027 91.5708 74.8157 91.8833 74.6417C92.1993 74.4677 92.439 74.2404 92.6024 73.9599C92.7693 73.6758 92.8527 73.3722 92.8527 73.049V71.9943C92.7959 72.0511 92.6858 72.1044 92.5225 72.1541C92.3627 72.2003 92.1798 72.2411 91.9738 72.2766C91.7678 72.3086 91.5672 72.3388 91.3719 72.3672C91.1766 72.392 91.0132 72.4134 90.8818 72.4311C90.5729 72.4702 90.2906 72.5359 90.0349 72.6282C89.7828 72.7205 89.5803 72.8537 89.4276 73.0277C89.2785 73.1982 89.2039 73.4254 89.2039 73.7095C89.2039 74.1037 89.3495 74.402 89.6407 74.6044C89.9319 74.8033 90.303 74.9027 90.754 74.9027ZM98.0316 73.2248L98.021 71.2805H98.2979L101.558 67.8182H103.465L99.7468 71.7599H99.4964L98.0316 73.2248ZM96.5668 76V65.0909H98.1594V76H96.5668ZM101.734 76L98.804 72.1115L99.9013 70.9982L103.689 76H101.734ZM106.988 74.5085L106.909 75.0891C106.855 75.5153 106.765 75.9592 106.637 76.4208C106.513 76.886 106.383 77.3175 106.248 77.7152C106.117 78.1129 106.008 78.429 105.923 78.6634H104.794C104.84 78.4432 104.904 78.1449 104.986 77.7685C105.067 77.3956 105.147 76.9783 105.225 76.5167C105.303 76.055 105.362 75.5845 105.401 75.1051L105.454 74.5085H106.988ZM115.413 76.1811C114.894 76.1811 114.425 76.0852 114.006 75.8935C113.587 75.6982 113.255 75.4158 113.01 75.0465C112.769 74.6772 112.648 74.2244 112.648 73.6882C112.648 73.2266 112.737 72.8466 112.914 72.5483C113.092 72.25 113.332 72.0138 113.634 71.8398C113.935 71.6658 114.273 71.5344 114.646 71.4457C115.018 71.3569 115.398 71.2894 115.786 71.2433C116.276 71.1864 116.673 71.1403 116.979 71.1048C117.284 71.0657 117.506 71.0036 117.645 70.9183C117.783 70.8331 117.852 70.6946 117.852 70.5028V70.4656C117.852 70.0004 117.721 69.6399 117.458 69.3842C117.199 69.1286 116.812 69.0007 116.297 69.0007C115.761 69.0007 115.338 69.1197 115.029 69.3576C114.724 69.592 114.512 69.853 114.395 70.1406L112.898 69.7997C113.076 69.3026 113.335 68.9013 113.676 68.5959C114.021 68.2869 114.417 68.0632 114.864 67.9247C115.311 67.7827 115.782 67.7116 116.276 67.7116C116.602 67.7116 116.949 67.7507 117.314 67.8288C117.684 67.9034 118.028 68.0419 118.348 68.2443C118.671 68.4467 118.935 68.7362 119.141 69.1126C119.347 69.4854 119.45 69.9702 119.45 70.5668V76H117.895V74.8814H117.831C117.728 75.0874 117.574 75.2898 117.368 75.4886C117.162 75.6875 116.897 75.8526 116.574 75.984C116.251 76.1154 115.864 76.1811 115.413 76.1811ZM115.759 74.9027C116.199 74.9027 116.576 74.8157 116.888 74.6417C117.204 74.4677 117.444 74.2404 117.607 73.9599C117.774 73.6758 117.858 73.3722 117.858 73.049V71.9943C117.801 72.0511 117.691 72.1044 117.527 72.1541C117.368 72.2003 117.185 72.2411 116.979 72.2766C116.773 72.3086 116.572 72.3388 116.377 72.3672C116.181 72.392 116.018 72.4134 115.887 72.4311C115.578 72.4702 115.295 72.5359 115.04 72.6282C114.788 72.7205 114.585 72.8537 114.433 73.0277C114.283 73.1982 114.209 73.4254 114.209 73.7095C114.209 74.1037 114.354 74.402 114.646 74.6044C114.937 74.8033 115.308 74.9027 115.759 74.9027ZM123.164 71.142V76H121.572V67.8182H123.1V69.1499H123.202C123.39 68.7166 123.685 68.3686 124.086 68.1058C124.491 67.843 125 67.7116 125.615 67.7116C126.172 67.7116 126.66 67.8288 127.079 68.0632C127.498 68.294 127.823 68.6385 128.054 69.0966C128.285 69.5547 128.4 70.1211 128.4 70.7958V76H126.808V70.9876C126.808 70.3945 126.653 69.9311 126.344 69.5973C126.035 69.2599 125.611 69.0913 125.071 69.0913C124.702 69.0913 124.373 69.1712 124.086 69.331C123.802 69.4908 123.576 69.7251 123.409 70.0341C123.246 70.3395 123.164 70.7088 123.164 71.142ZM133.599 76.1598C132.939 76.1598 132.349 75.9911 131.831 75.6538C131.316 75.3129 130.911 74.8281 130.616 74.1996C130.325 73.5675 130.18 72.8093 130.18 71.9251C130.18 71.0408 130.327 70.2844 130.622 69.6559C130.92 69.0273 131.328 68.5462 131.847 68.2124C132.365 67.8786 132.953 67.7116 133.61 67.7116C134.118 67.7116 134.526 67.7969 134.835 67.9673C135.148 68.1342 135.389 68.3295 135.56 68.5533C135.734 68.777 135.869 68.9741 135.964 69.1445H136.06V65.0909H137.653V76H136.098V74.7269H135.964C135.869 74.9009 135.73 75.0998 135.549 75.3235C135.371 75.5472 135.126 75.7425 134.814 75.9094C134.501 76.0763 134.097 76.1598 133.599 76.1598ZM133.951 74.8015C134.409 74.8015 134.796 74.6808 135.112 74.4393C135.432 74.1942 135.673 73.8551 135.837 73.4219C136.003 72.9886 136.087 72.4844 136.087 71.9091C136.087 71.3409 136.005 70.8437 135.842 70.4176C135.679 69.9915 135.439 69.6594 135.123 69.4215C134.807 69.1836 134.416 69.0646 133.951 69.0646C133.472 69.0646 133.072 69.1889 132.752 69.4375C132.433 69.6861 132.191 70.0252 132.028 70.4549C131.868 70.8846 131.788 71.3693 131.788 71.9091C131.788 72.456 131.87 72.9478 132.033 73.3846C132.197 73.8214 132.438 74.1676 132.758 74.4233C133.081 74.6754 133.479 74.8015 133.951 74.8015ZM143.896 76V67.8182H145.489V76H143.896ZM144.7 66.5558C144.423 66.5558 144.185 66.4634 143.986 66.2788C143.791 66.0906 143.693 65.8668 143.693 65.6076C143.693 65.3448 143.791 65.1211 143.986 64.9364C144.185 64.7482 144.423 64.6541 144.7 64.6541C144.977 64.6541 145.213 64.7482 145.409 64.9364C145.608 65.1211 145.707 65.3448 145.707 65.6076C145.707 65.8668 145.608 66.0906 145.409 66.2788C145.213 66.4634 144.977 66.5558 144.7 66.5558ZM147.631 76V67.8182H149.16V69.1499H149.261C149.432 68.6989 149.71 68.3473 150.097 68.0952C150.485 67.8395 150.948 67.7116 151.488 67.7116C152.035 67.7116 152.493 67.8395 152.862 68.0952C153.235 68.3509 153.51 68.7024 153.688 69.1499H153.773C153.968 68.7131 154.279 68.3651 154.705 68.1058C155.131 67.843 155.639 67.7116 156.229 67.7116C156.971 67.7116 157.576 67.9442 158.045 68.4094C158.517 68.8746 158.753 69.576 158.753 70.5135V76H157.161V70.6626C157.161 70.1087 157.01 69.7074 156.708 69.4588C156.406 69.2102 156.046 69.0859 155.627 69.0859C155.108 69.0859 154.705 69.2457 154.417 69.5653C154.13 69.8814 153.986 70.288 153.986 70.7852V76H152.399V70.5614C152.399 70.1175 152.26 69.7607 151.983 69.4908C151.706 69.2209 151.346 69.0859 150.902 69.0859C150.6 69.0859 150.321 69.1658 150.066 69.3256C149.813 69.4819 149.609 69.7003 149.453 69.9808C149.3 70.2614 149.224 70.5863 149.224 70.9556V76H147.631ZM160.888 79.0682V67.8182H162.443V69.1445H162.577C162.669 68.9741 162.802 68.777 162.976 68.5533C163.15 68.3295 163.392 68.1342 163.701 67.9673C164.009 67.7969 164.418 67.7116 164.926 67.7116C165.586 67.7116 166.176 67.8786 166.694 68.2124C167.213 68.5462 167.619 69.0273 167.914 69.6559C168.212 70.2844 168.361 71.0408 168.361 71.9251C168.361 72.8093 168.214 73.5675 167.919 74.1996C167.625 74.8281 167.22 75.3129 166.705 75.6538C166.19 75.9911 165.602 76.1598 164.942 76.1598C164.445 76.1598 164.038 76.0763 163.722 75.9094C163.409 75.7425 163.164 75.5472 162.987 75.3235C162.809 75.0998 162.672 74.9009 162.577 74.7269H162.481V79.0682H160.888ZM162.449 71.9091C162.449 72.4844 162.532 72.9886 162.699 73.4219C162.866 73.8551 163.108 74.1942 163.424 74.4393C163.74 74.6808 164.127 74.8015 164.585 74.8015C165.061 74.8015 165.458 74.6754 165.778 74.4233C166.098 74.1676 166.339 73.8214 166.502 73.3846C166.669 72.9478 166.753 72.456 166.753 71.9091C166.753 71.3693 166.671 70.8846 166.508 70.4549C166.348 70.0252 166.106 69.6861 165.783 69.4375C165.464 69.1889 165.064 69.0646 164.585 69.0646C164.123 69.0646 163.733 69.1836 163.413 69.4215C163.097 69.6594 162.857 69.9915 162.694 70.4176C162.53 70.8437 162.449 71.3409 162.449 71.9091ZM170.146 76V67.8182H171.685V69.1179H171.771C171.92 68.6776 172.182 68.3313 172.559 68.0792C172.939 67.8235 173.369 67.6957 173.848 67.6957C173.947 67.6957 174.065 67.6992 174.199 67.7063C174.338 67.7134 174.446 67.7223 174.524 67.733V69.2564C174.46 69.2386 174.347 69.2191 174.184 69.1978C174.02 69.1729 173.857 69.1605 173.693 69.1605C173.317 69.1605 172.981 69.2404 172.687 69.4002C172.396 69.5565 172.165 69.7749 171.994 70.0554C171.824 70.3324 171.739 70.6484 171.739 71.0036V76H170.146ZM179.056 76.1651C178.289 76.1651 177.62 75.9893 177.048 75.6378C176.476 75.2862 176.032 74.7944 175.716 74.1623C175.4 73.5302 175.242 72.7915 175.242 71.9464C175.242 71.0977 175.4 70.3555 175.716 69.7198C176.032 69.0842 176.476 68.5906 177.048 68.239C177.62 67.8874 178.289 67.7116 179.056 67.7116C179.823 67.7116 180.493 67.8874 181.064 68.239C181.636 68.5906 182.08 69.0842 182.396 69.7198C182.712 70.3555 182.87 71.0977 182.87 71.9464C182.87 72.7915 182.712 73.5302 182.396 74.1623C182.08 74.7944 181.636 75.2862 181.064 75.6378C180.493 75.9893 179.823 76.1651 179.056 76.1651ZM179.061 74.8281C179.559 74.8281 179.971 74.6967 180.297 74.4339C180.624 74.1712 180.865 73.8214 181.022 73.3846C181.181 72.9478 181.261 72.4666 181.261 71.9411C181.261 71.419 181.181 70.9396 181.022 70.5028C180.865 70.0625 180.624 69.7092 180.297 69.4428C179.971 69.1765 179.559 69.0433 179.061 69.0433C178.561 69.0433 178.145 69.1765 177.815 69.4428C177.488 69.7092 177.245 70.0625 177.085 70.5028C176.929 70.9396 176.851 71.419 176.851 71.9411C176.851 72.4666 176.929 72.9478 177.085 73.3846C177.245 73.8214 177.488 74.1712 177.815 74.4339C178.145 74.6967 178.561 74.8281 179.061 74.8281ZM191.369 67.8182L188.402 76H186.697L183.725 67.8182H185.435L187.507 74.1143H187.592L189.659 67.8182H191.369ZM196.114 76.1651C195.307 76.1651 194.613 75.9929 194.031 75.6484C193.452 75.3004 193.005 74.8121 192.688 74.1836C192.376 73.5515 192.22 72.8111 192.22 71.9624C192.22 71.1243 192.376 70.3857 192.688 69.7464C193.005 69.1072 193.445 68.6083 194.009 68.2496C194.578 67.891 195.242 67.7116 196.002 67.7116C196.463 67.7116 196.911 67.788 197.344 67.9407C197.777 68.0934 198.166 68.3331 198.511 68.6598C198.855 68.9865 199.127 69.4109 199.326 69.9329C199.524 70.4513 199.624 71.0817 199.624 71.8239V72.3885H193.12V71.1953H198.063C198.063 70.7763 197.978 70.4052 197.807 70.082C197.637 69.7553 197.397 69.4979 197.088 69.3097C196.783 69.1214 196.424 69.0273 196.012 69.0273C195.565 69.0273 195.174 69.1374 194.84 69.3576C194.51 69.5742 194.255 69.8583 194.073 70.2099C193.896 70.5579 193.807 70.9361 193.807 71.3445V72.2766C193.807 72.8235 193.903 73.2887 194.095 73.6722C194.29 74.0558 194.562 74.3487 194.91 74.5511C195.258 74.75 195.664 74.8494 196.13 74.8494C196.431 74.8494 196.707 74.8068 196.955 74.7216C197.204 74.6328 197.419 74.5014 197.6 74.3274C197.781 74.1534 197.919 73.9386 198.015 73.6829L199.523 73.9545C199.402 74.3984 199.185 74.7873 198.873 75.1211C198.564 75.4513 198.175 75.7088 197.706 75.8935C197.241 76.0746 196.71 76.1651 196.114 76.1651ZM209.18 67.8182V69.0966H204.711V67.8182H209.18ZM205.909 65.858H207.502V73.5977C207.502 73.9066 207.548 74.1392 207.641 74.2955C207.733 74.4482 207.852 74.5529 207.997 74.6097C208.147 74.663 208.308 74.6896 208.482 74.6896C208.61 74.6896 208.722 74.6808 208.818 74.663C208.914 74.6452 208.988 74.631 209.041 74.6204L209.329 75.9361C209.237 75.9716 209.105 76.0071 208.935 76.0426C208.764 76.0817 208.551 76.103 208.296 76.1065C207.877 76.1136 207.486 76.0391 207.124 75.8828C206.762 75.7266 206.469 75.4851 206.245 75.1584C206.021 74.8317 205.909 74.4215 205.909 73.9279V65.858ZM212.71 71.142V76H211.118V65.0909H212.689V69.1499H212.79C212.982 68.7095 213.275 68.3597 213.669 68.1005C214.063 67.8413 214.578 67.7116 215.214 67.7116C215.775 67.7116 216.265 67.8271 216.684 68.0579C217.107 68.2887 217.433 68.6332 217.664 69.0913C217.898 69.5458 218.016 70.114 218.016 70.7958V76H216.423V70.9876C216.423 70.3874 216.268 69.9222 215.96 69.592C215.651 69.2582 215.221 69.0913 214.67 69.0913C214.294 69.0913 213.957 69.1712 213.658 69.331C213.364 69.4908 213.131 69.7251 212.961 70.0341C212.794 70.3395 212.71 70.7088 212.71 71.142ZM220.141 76V67.8182H221.734V76H220.141ZM220.945 66.5558C220.668 66.5558 220.43 66.4634 220.232 66.2788C220.036 66.0906 219.939 65.8668 219.939 65.6076C219.939 65.3448 220.036 65.1211 220.232 64.9364C220.43 64.7482 220.668 64.6541 220.945 64.6541C221.222 64.6541 221.458 64.7482 221.654 64.9364C221.853 65.1211 221.952 65.3448 221.952 65.6076C221.952 65.8668 221.853 66.0906 221.654 66.2788C221.458 66.4634 221.222 66.5558 220.945 66.5558ZM225.469 71.142V76H223.876V67.8182H225.405V69.1499H225.506C225.695 68.7166 225.989 68.3686 226.391 68.1058C226.795 67.843 227.305 67.7116 227.919 67.7116C228.477 67.7116 228.965 67.8288 229.384 68.0632C229.803 68.294 230.128 68.6385 230.359 69.0966C230.59 69.5547 230.705 70.1211 230.705 70.7958V76H229.112V70.9876C229.112 70.3945 228.958 69.9311 228.649 69.5973C228.34 69.2599 227.916 69.0913 227.376 69.0913C227.007 69.0913 226.678 69.1712 226.391 69.331C226.106 69.4908 225.881 69.7251 225.714 70.0341C225.551 70.3395 225.469 70.7088 225.469 71.142ZM236.272 79.2386C235.622 79.2386 235.062 79.1534 234.594 78.983C234.128 78.8125 233.748 78.587 233.454 78.3065C233.159 78.0259 232.939 77.7188 232.793 77.3849L234.162 76.8203C234.258 76.9766 234.386 77.1417 234.546 77.3157C234.709 77.4933 234.929 77.6442 235.206 77.7685C235.487 77.8928 235.847 77.9549 236.288 77.9549C236.891 77.9549 237.39 77.8075 237.784 77.5128C238.179 77.2216 238.376 76.7564 238.376 76.1172V74.5085H238.274C238.179 74.6825 238.04 74.8761 237.859 75.0891C237.681 75.3022 237.436 75.4869 237.124 75.6431C236.811 75.7994 236.405 75.8775 235.904 75.8775C235.258 75.8775 234.675 75.7266 234.157 75.4247C233.642 75.1193 233.234 74.6701 232.932 74.0771C232.633 73.4805 232.484 72.7472 232.484 71.8771C232.484 71.0071 232.632 70.2614 232.926 69.6399C233.225 69.0185 233.633 68.5426 234.152 68.2124C234.67 67.8786 235.258 67.7116 235.915 67.7116C236.422 67.7116 236.833 67.7969 237.145 67.9673C237.458 68.1342 237.701 68.3295 237.875 68.5533C238.052 68.777 238.189 68.9741 238.285 69.1445H238.402V67.8182H239.963V76.1811C239.963 76.8842 239.8 77.4613 239.473 77.9123C239.146 78.3633 238.704 78.6971 238.147 78.9137C237.593 79.1303 236.968 79.2386 236.272 79.2386ZM236.256 74.5565C236.714 74.5565 237.101 74.4499 237.417 74.2369C237.736 74.0202 237.978 73.7113 238.141 73.31C238.308 72.9052 238.392 72.4205 238.392 71.8558C238.392 71.3054 238.31 70.8207 238.147 70.4016C237.983 69.9826 237.744 69.6559 237.427 69.4215C237.111 69.1836 236.721 69.0646 236.256 69.0646C235.776 69.0646 235.377 69.1889 235.057 69.4375C234.737 69.6825 234.496 70.0163 234.333 70.4389C234.173 70.8615 234.093 71.3338 234.093 71.8558C234.093 72.392 234.175 72.8626 234.338 73.2674C234.501 73.6722 234.743 73.9883 235.062 74.2156C235.386 74.4428 235.783 74.5565 236.256 74.5565ZM248.23 69.8157L246.786 70.0714C246.726 69.8867 246.63 69.7109 246.499 69.544C246.371 69.3771 246.197 69.2404 245.977 69.1339C245.757 69.0273 245.481 68.9741 245.151 68.9741C244.7 68.9741 244.324 69.0753 244.022 69.2777C243.72 69.4766 243.569 69.734 243.569 70.0501C243.569 70.3235 243.67 70.5437 243.873 70.7106C244.075 70.8775 244.402 71.0142 244.853 71.1207L246.153 71.419C246.905 71.593 247.467 71.8612 247.836 72.2234C248.205 72.5856 248.39 73.0561 248.39 73.6349C248.39 74.125 248.248 74.5618 247.964 74.9453C247.683 75.3253 247.291 75.6236 246.786 75.8402C246.286 76.0568 245.705 76.1651 245.045 76.1651C244.128 76.1651 243.381 75.9698 242.802 75.5792C242.223 75.185 241.868 74.6257 241.737 73.9013L243.276 73.6669C243.372 74.0682 243.569 74.3718 243.867 74.5778C244.166 74.7802 244.555 74.8814 245.034 74.8814C245.556 74.8814 245.973 74.7731 246.286 74.5565C246.598 74.3363 246.755 74.0682 246.755 73.7521C246.755 73.4964 246.659 73.2816 246.467 73.1076C246.279 72.9336 245.989 72.8022 245.599 72.7134L244.214 72.4098C243.45 72.2358 242.886 71.9588 242.52 71.5788C242.158 71.1989 241.976 70.7177 241.976 70.1353C241.976 69.6523 242.111 69.2298 242.381 68.8675C242.651 68.5053 243.024 68.223 243.5 68.0206C243.976 67.8146 244.521 67.7116 245.135 67.7116C246.019 67.7116 246.715 67.9034 247.223 68.2869C247.731 68.6669 248.067 69.1765 248.23 69.8157ZM257.557 76.1651C256.79 76.1651 256.121 75.9893 255.549 75.6378C254.977 75.2862 254.533 74.7944 254.217 74.1623C253.901 73.5302 253.743 72.7915 253.743 71.9464C253.743 71.0977 253.901 70.3555 254.217 69.7198C254.533 69.0842 254.977 68.5906 255.549 68.239C256.121 67.8874 256.79 67.7116 257.557 67.7116C258.324 67.7116 258.994 67.8874 259.565 68.239C260.137 68.5906 260.581 69.0842 260.897 69.7198C261.213 70.3555 261.371 71.0977 261.371 71.9464C261.371 72.7915 261.213 73.5302 260.897 74.1623C260.581 74.7944 260.137 75.2862 259.565 75.6378C258.994 75.9893 258.324 76.1651 257.557 76.1651ZM257.562 74.8281C258.06 74.8281 258.472 74.6967 258.798 74.4339C259.125 74.1712 259.366 73.8214 259.523 73.3846C259.682 72.9478 259.762 72.4666 259.762 71.9411C259.762 71.419 259.682 70.9396 259.523 70.5028C259.366 70.0625 259.125 69.7092 258.798 69.4428C258.472 69.1765 258.06 69.0433 257.562 69.0433C257.062 69.0433 256.646 69.1765 256.316 69.4428C255.989 69.7092 255.746 70.0625 255.586 70.5028C255.43 70.9396 255.352 71.419 255.352 71.9411C255.352 72.4666 255.43 72.9478 255.586 73.3846C255.746 73.8214 255.989 74.1712 256.316 74.4339C256.646 74.6967 257.062 74.8281 257.562 74.8281ZM264.741 71.142V76H263.149V67.8182H264.678V69.1499H264.779C264.967 68.7166 265.262 68.3686 265.663 68.1058C266.068 67.843 266.577 67.7116 267.192 67.7116C267.749 67.7116 268.238 67.8288 268.657 68.0632C269.076 68.294 269.401 68.6385 269.631 69.0966C269.862 69.5547 269.978 70.1211 269.978 70.7958V76H268.385V70.9876C268.385 70.3945 268.23 69.9311 267.922 69.5973C267.613 69.2599 267.188 69.0913 266.648 69.0913C266.279 69.0913 265.951 69.1712 265.663 69.331C265.379 69.4908 265.153 69.7251 264.987 70.0341C264.823 70.3395 264.741 70.7088 264.741 71.142ZM279.903 67.8182V69.0966H275.434V67.8182H279.903ZM276.632 65.858H278.225V73.5977C278.225 73.9066 278.271 74.1392 278.363 74.2955C278.456 74.4482 278.574 74.5529 278.72 74.6097C278.869 74.663 279.031 74.6896 279.205 74.6896C279.333 74.6896 279.445 74.6808 279.54 74.663C279.636 74.6452 279.711 74.631 279.764 74.6204L280.052 75.9361C279.959 75.9716 279.828 76.0071 279.658 76.0426C279.487 76.0817 279.274 76.103 279.018 76.1065C278.599 76.1136 278.209 76.0391 277.847 75.8828C277.484 75.7266 277.191 75.4851 276.968 75.1584C276.744 74.8317 276.632 74.4215 276.632 73.9279V65.858ZM283.433 71.142V76H281.84V65.0909H283.412V69.1499H283.513C283.705 68.7095 283.998 68.3597 284.392 68.1005C284.786 67.8413 285.301 67.7116 285.936 67.7116C286.498 67.7116 286.988 67.8271 287.407 68.0579C287.829 68.2887 288.156 68.6332 288.387 69.0913C288.621 69.5458 288.738 70.114 288.738 70.7958V76H287.146V70.9876C287.146 70.3874 286.991 69.9222 286.682 69.592C286.373 69.2582 285.944 69.0913 285.393 69.0913C285.017 69.0913 284.679 69.1712 284.381 69.331C284.086 69.4908 283.854 69.7251 283.683 70.0341C283.516 70.3395 283.433 70.7088 283.433 71.142ZM294.39 76.1651C293.584 76.1651 292.89 75.9929 292.307 75.6484C291.728 75.3004 291.281 74.8121 290.965 74.1836C290.652 73.5515 290.496 72.8111 290.496 71.9624C290.496 71.1243 290.652 70.3857 290.965 69.7464C291.281 69.1072 291.721 68.6083 292.286 68.2496C292.854 67.891 293.518 67.7116 294.278 67.7116C294.74 67.7116 295.187 67.788 295.62 67.9407C296.054 68.0934 296.442 68.3331 296.787 68.6598C297.131 68.9865 297.403 69.4109 297.602 69.9329C297.801 70.4513 297.9 71.0817 297.9 71.8239V72.3885H291.396V71.1953H296.339C296.339 70.7763 296.254 70.4052 296.084 70.082C295.913 69.7553 295.674 69.4979 295.365 69.3097C295.059 69.1214 294.701 69.0273 294.289 69.0273C293.841 69.0273 293.451 69.1374 293.117 69.3576C292.787 69.5742 292.531 69.8583 292.35 70.2099C292.172 70.5579 292.083 70.9361 292.083 71.3445V72.2766C292.083 72.8235 292.179 73.2887 292.371 73.6722C292.566 74.0558 292.838 74.3487 293.186 74.5511C293.534 74.75 293.941 74.8494 294.406 74.8494C294.708 74.8494 294.983 74.8068 295.232 74.7216C295.48 74.6328 295.695 74.5014 295.876 74.3274C296.057 74.1534 296.196 73.9386 296.292 73.6829L297.799 73.9545C297.678 74.3984 297.462 74.7873 297.149 75.1211C296.84 75.4513 296.451 75.7088 295.983 75.8935C295.517 76.0746 294.987 76.1651 294.39 76.1651ZM305.411 76L303.003 67.8182H304.649L306.252 73.8267H306.332L307.941 67.8182H309.587L311.185 73.8001H311.265L312.858 67.8182H314.504L312.101 76H310.477L308.815 70.0927H308.692L307.03 76H305.411ZM319.292 76.1651C318.486 76.1651 317.792 75.9929 317.21 75.6484C316.631 75.3004 316.183 74.8121 315.867 74.1836C315.555 73.5515 315.398 72.8111 315.398 71.9624C315.398 71.1243 315.555 70.3857 315.867 69.7464C316.183 69.1072 316.624 68.6083 317.188 68.2496C317.756 67.891 318.42 67.7116 319.18 67.7116C319.642 67.7116 320.089 67.788 320.523 67.9407C320.956 68.0934 321.345 68.3331 321.689 68.6598C322.034 68.9865 322.305 69.4109 322.504 69.9329C322.703 70.4513 322.803 71.0817 322.803 71.8239V72.3885H316.299V71.1953H321.242C321.242 70.7763 321.157 70.4052 320.986 70.082C320.816 69.7553 320.576 69.4979 320.267 69.3097C319.962 69.1214 319.603 69.0273 319.191 69.0273C318.744 69.0273 318.353 69.1374 318.019 69.3576C317.689 69.5742 317.433 69.8583 317.252 70.2099C317.075 70.5579 316.986 70.9361 316.986 71.3445V72.2766C316.986 72.8235 317.082 73.2887 317.273 73.6722C317.469 74.0558 317.74 74.3487 318.088 74.5511C318.436 74.75 318.843 74.8494 319.308 74.8494C319.61 74.8494 319.885 74.8068 320.134 74.7216C320.382 74.6328 320.597 74.5014 320.778 74.3274C320.96 74.1534 321.098 73.9386 321.194 73.6829L322.701 73.9545C322.581 74.3984 322.364 74.7873 322.051 75.1211C321.743 75.4513 321.354 75.7088 320.885 75.8935C320.42 76.0746 319.889 76.1651 319.292 76.1651ZM324.698 76V65.0909H326.29V69.1445H326.386C326.478 68.9741 326.612 68.777 326.786 68.5533C326.96 68.3295 327.201 68.1342 327.51 67.9673C327.819 67.7969 328.227 67.7116 328.735 67.7116C329.396 67.7116 329.985 67.8786 330.504 68.2124C331.022 68.5462 331.429 69.0273 331.723 69.6559C332.022 70.2844 332.171 71.0408 332.171 71.9251C332.171 72.8093 332.024 73.5675 331.729 74.1996C331.434 74.8281 331.029 75.3129 330.514 75.6538C329.999 75.9911 329.412 76.1598 328.751 76.1598C328.254 76.1598 327.847 76.0763 327.531 75.9094C327.219 75.7425 326.974 75.5472 326.796 75.3235C326.619 75.0998 326.482 74.9009 326.386 74.7269H326.253V76H324.698ZM326.258 71.9091C326.258 72.4844 326.342 72.9886 326.509 73.4219C326.676 73.8551 326.917 74.1942 327.233 74.4393C327.549 74.6808 327.936 74.8015 328.394 74.8015C328.87 74.8015 329.268 74.6754 329.587 74.4233C329.907 74.1676 330.149 73.8214 330.312 73.3846C330.479 72.9478 330.562 72.456 330.562 71.9091C330.562 71.3693 330.481 70.8846 330.317 70.4549C330.157 70.0252 329.916 69.6861 329.593 69.4375C329.273 69.1889 328.874 69.0646 328.394 69.0646C327.933 69.0646 327.542 69.1836 327.222 69.4215C326.906 69.6594 326.667 69.9915 326.503 70.4176C326.34 70.8437 326.258 71.3409 326.258 71.9091Z" fill="#5C6477"/>
<path d="M14.2756 47V20.8182H19.8111V31.6207H31.0483V20.8182H36.571V47H31.0483V36.1847H19.8111V47H14.2756ZM41.0327 47V27.3636H46.4787V47H41.0327ZM43.7685 24.8324C42.9588 24.8324 42.2642 24.5639 41.6847 24.027C41.1136 23.4815 40.8281 22.8295 40.8281 22.071C40.8281 21.321 41.1136 20.6776 41.6847 20.1406C42.2642 19.5952 42.9588 19.3224 43.7685 19.3224C44.5781 19.3224 45.2685 19.5952 45.8395 20.1406C46.419 20.6776 46.7088 21.321 46.7088 22.071C46.7088 22.8295 46.419 23.4815 45.8395 24.027C45.2685 24.5639 44.5781 24.8324 43.7685 24.8324ZM56.7603 43.4205L56.6197 44.8267C56.5089 45.9517 56.2958 47.0724 55.9805 48.1889C55.6737 49.3139 55.3498 50.3324 55.0089 51.2443C54.6765 52.1563 54.408 52.8722 54.2035 53.392H50.6751C50.8029 52.8892 50.9776 52.1861 51.1992 51.2827C51.4208 50.3878 51.6296 49.3821 51.8256 48.2656C52.0217 47.1491 52.1452 46.0114 52.1964 44.8523L52.2603 43.4205H56.7603ZM74.479 20.8182V47H68.9435V20.8182H74.479ZM83.495 20.8182V23.5795C83.495 24.3636 83.3416 25.1648 83.0348 25.983C82.7365 26.7926 82.3359 27.5597 81.8331 28.2841C81.3303 29 80.7805 29.6094 80.1839 30.1122L77.7805 28.6932C78.2067 28.0199 78.5817 27.2741 78.9055 26.456C79.2379 25.6378 79.4041 24.6875 79.4041 23.6051V20.8182H83.495ZM86.3491 47V27.3636H91.5394V30.8281H91.7695C92.1786 29.6776 92.8604 28.7699 93.815 28.1051C94.7695 27.4403 95.9116 27.108 97.2411 27.108C98.5877 27.108 99.734 27.4446 100.68 28.1179C101.626 28.7827 102.257 29.6861 102.572 30.8281H102.777C103.177 29.7031 103.902 28.804 104.95 28.1307C106.007 27.4489 107.255 27.108 108.696 27.108C110.528 27.108 112.015 27.6918 113.157 28.8594C114.308 30.0185 114.883 31.6634 114.883 33.794V47H109.45V34.8679C109.45 33.777 109.16 32.9588 108.581 32.4134C108.001 31.8679 107.277 31.5952 106.407 31.5952C105.419 31.5952 104.647 31.9105 104.093 32.5412C103.539 33.1634 103.262 33.9858 103.262 35.0085V47H97.9826V34.7528C97.9826 33.7898 97.7056 33.0227 97.1516 32.4517C96.6062 31.8807 95.886 31.5952 94.9911 31.5952C94.386 31.5952 93.8406 31.7486 93.3548 32.0554C92.8775 32.3537 92.4982 32.7756 92.217 33.321C91.9357 33.858 91.7951 34.4886 91.7951 35.2131V47H86.3491Z" fill="#5C6477"/>
<path d="M141.822 28.348C141.72 27.3168 141.281 26.5156 140.506 25.9446C139.73 25.3736 138.678 25.0881 137.348 25.0881C136.445 25.0881 135.682 25.2159 135.06 25.4716C134.438 25.7188 133.96 26.0639 133.628 26.5071C133.304 26.9503 133.142 27.4531 133.142 28.0156C133.125 28.4844 133.223 28.8935 133.436 29.2429C133.658 29.5923 133.96 29.8949 134.344 30.1506C134.727 30.3977 135.17 30.6151 135.673 30.8026C136.176 30.9815 136.713 31.1349 137.284 31.2628L139.636 31.8253C140.778 32.081 141.827 32.4219 142.781 32.848C143.736 33.2741 144.563 33.7983 145.261 34.4205C145.96 35.0426 146.501 35.7756 146.885 36.6193C147.277 37.4631 147.477 38.4304 147.486 39.5213C147.477 41.1236 147.068 42.5128 146.259 43.6889C145.457 44.8565 144.298 45.7642 142.781 46.4119C141.273 47.0511 139.453 47.3707 137.322 47.3707C135.209 47.3707 133.368 47.0469 131.8 46.3991C130.24 45.7514 129.021 44.7926 128.143 43.5227C127.274 42.2443 126.818 40.6634 126.776 38.7798H132.132C132.192 39.6577 132.443 40.3906 132.886 40.9787C133.338 41.5582 133.939 41.9972 134.689 42.2955C135.447 42.5852 136.304 42.7301 137.259 42.7301C138.196 42.7301 139.01 42.5937 139.7 42.321C140.399 42.0483 140.94 41.669 141.324 41.1832C141.707 40.6974 141.899 40.1392 141.899 39.5085C141.899 38.9205 141.724 38.4261 141.375 38.0256C141.034 37.625 140.531 37.2841 139.866 37.0028C139.21 36.7216 138.405 36.4659 137.45 36.2358L134.599 35.5199C132.392 34.983 130.649 34.1435 129.371 33.0014C128.092 31.8594 127.457 30.321 127.466 28.3864C127.457 26.8011 127.879 25.4162 128.732 24.2315C129.592 23.0469 130.773 22.1222 132.273 21.4574C133.773 20.7926 135.477 20.4602 137.386 20.4602C139.33 20.4602 141.026 20.7926 142.474 21.4574C143.932 22.1222 145.065 23.0469 145.875 24.2315C146.685 25.4162 147.102 26.7884 147.128 28.348H141.822ZM156.706 47.3707C155.453 47.3707 154.337 47.1534 153.357 46.7188C152.377 46.2756 151.601 45.6236 151.03 44.7628C150.468 43.8935 150.186 42.8111 150.186 41.5156C150.186 40.4247 150.387 39.5085 150.787 38.767C151.188 38.0256 151.733 37.429 152.424 36.9773C153.114 36.5256 153.898 36.1847 154.776 35.9545C155.662 35.7244 156.591 35.5625 157.563 35.4688C158.705 35.3494 159.625 35.2386 160.324 35.1364C161.023 35.0256 161.53 34.8636 161.846 34.6506C162.161 34.4375 162.319 34.1222 162.319 33.7045V33.6278C162.319 32.8182 162.063 32.1918 161.551 31.7486C161.049 31.3054 160.333 31.0838 159.404 31.0838C158.424 31.0838 157.644 31.3011 157.064 31.7358C156.485 32.1619 156.101 32.6989 155.914 33.3466L150.877 32.9375C151.132 31.7443 151.635 30.7131 152.385 29.8438C153.135 28.9659 154.103 28.2926 155.287 27.8239C156.48 27.3466 157.861 27.108 159.429 27.108C160.52 27.108 161.564 27.2358 162.561 27.4915C163.567 27.7472 164.458 28.1435 165.233 28.6804C166.017 29.2173 166.635 29.9077 167.087 30.7514C167.539 31.5866 167.765 32.5881 167.765 33.7557V47H162.6V44.277H162.446C162.131 44.8906 161.709 45.4318 161.181 45.9006C160.652 46.3608 160.017 46.723 159.276 46.9872C158.534 47.2429 157.678 47.3707 156.706 47.3707ZM158.266 43.6122C159.067 43.6122 159.775 43.4545 160.388 43.1392C161.002 42.8153 161.483 42.3807 161.833 41.8352C162.182 41.2898 162.357 40.6719 162.357 39.9815V37.8977C162.186 38.0085 161.952 38.1108 161.654 38.2045C161.364 38.2898 161.036 38.3707 160.669 38.4474C160.303 38.5156 159.936 38.5795 159.57 38.6392C159.203 38.6903 158.871 38.7372 158.573 38.7798C157.934 38.8736 157.375 39.0227 156.898 39.2273C156.421 39.4318 156.05 39.7088 155.786 40.0582C155.522 40.3991 155.39 40.8253 155.39 41.3366C155.39 42.0781 155.658 42.6449 156.195 43.0369C156.74 43.4205 157.431 43.6122 158.266 43.6122ZM172.092 47V20.8182H177.538V30.6619H177.704C177.943 30.1335 178.288 29.5966 178.74 29.0511C179.2 28.4972 179.797 28.0369 180.529 27.6705C181.271 27.2955 182.191 27.108 183.291 27.108C184.723 27.108 186.044 27.483 187.254 28.233C188.464 28.9744 189.431 30.0952 190.156 31.5952C190.88 33.0866 191.243 34.9574 191.243 37.2074C191.243 39.3977 190.889 41.2472 190.181 42.7557C189.483 44.2557 188.528 45.3935 187.318 46.169C186.116 46.9361 184.77 47.3196 183.278 47.3196C182.221 47.3196 181.322 47.1449 180.581 46.7955C179.848 46.446 179.247 46.0071 178.778 45.4787C178.309 44.9418 177.951 44.4006 177.704 43.8551H177.461V47H172.092ZM177.423 37.1818C177.423 38.3494 177.585 39.3679 177.909 40.2372C178.233 41.1065 178.701 41.7841 179.315 42.2699C179.929 42.7472 180.674 42.9858 181.552 42.9858C182.439 42.9858 183.189 42.7429 183.802 42.2571C184.416 41.7628 184.88 41.081 185.196 40.2116C185.52 39.3338 185.681 38.3239 185.681 37.1818C185.681 36.0483 185.524 35.0511 185.208 34.1903C184.893 33.3295 184.429 32.6562 183.815 32.1705C183.201 31.6847 182.447 31.4418 181.552 31.4418C180.666 31.4418 179.916 31.6761 179.302 32.1449C178.697 32.6136 178.233 33.2784 177.909 34.1392C177.585 35 177.423 36.0142 177.423 37.1818ZM197.606 54.3636C196.915 54.3636 196.268 54.3082 195.663 54.1974C195.066 54.0952 194.572 53.9631 194.18 53.8011L195.407 49.7358C196.046 49.9318 196.621 50.0384 197.133 50.0554C197.653 50.0724 198.1 49.9531 198.475 49.6974C198.859 49.4418 199.17 49.0071 199.408 48.3935L199.728 47.5625L192.684 27.3636H198.411L202.477 41.7841H202.681L206.785 27.3636H212.55L204.918 49.1222C204.552 50.179 204.053 51.0994 203.423 51.8835C202.8 52.6761 202.012 53.2855 201.058 53.7116C200.103 54.1463 198.952 54.3636 197.606 54.3636ZM215.337 47V27.3636H220.617V30.7898H220.822C221.18 29.571 221.781 28.6506 222.624 28.0284C223.468 27.3977 224.44 27.0824 225.539 27.0824C225.812 27.0824 226.106 27.0994 226.421 27.1335C226.737 27.1676 227.013 27.2145 227.252 27.2741V32.1065C226.996 32.0298 226.643 31.9616 226.191 31.902C225.739 31.8423 225.326 31.8125 224.951 31.8125C224.15 31.8125 223.434 31.9872 222.803 32.3366C222.181 32.6776 221.687 33.1548 221.32 33.7685C220.962 34.3821 220.783 35.0895 220.783 35.8906V47H215.337ZM235.002 41.3494L235.015 34.8168H235.808L242.098 27.3636H248.349L239.899 37.233H238.608L235.002 41.3494ZM230.068 47V20.8182H235.514V47H230.068ZM242.341 47L236.562 38.4474L240.193 34.5994L248.72 47H242.341ZM256.62 47.3707C255.368 47.3707 254.251 47.1534 253.271 46.7188C252.291 46.2756 251.515 45.6236 250.944 44.7628C250.382 43.8935 250.1 42.8111 250.1 41.5156C250.1 40.4247 250.301 39.5085 250.701 38.767C251.102 38.0256 251.647 37.429 252.338 36.9773C253.028 36.5256 253.812 36.1847 254.69 35.9545C255.576 35.7244 256.505 35.5625 257.477 35.4688C258.619 35.3494 259.539 35.2386 260.238 35.1364C260.937 35.0256 261.444 34.8636 261.76 34.6506C262.075 34.4375 262.233 34.1222 262.233 33.7045V33.6278C262.233 32.8182 261.977 32.1918 261.466 31.7486C260.963 31.3054 260.247 31.0838 259.318 31.0838C258.338 31.0838 257.558 31.3011 256.978 31.7358C256.399 32.1619 256.015 32.6989 255.828 33.3466L250.791 32.9375C251.047 31.7443 251.549 30.7131 252.299 29.8438C253.049 28.9659 254.017 28.2926 255.201 27.8239C256.395 27.3466 257.775 27.108 259.343 27.108C260.434 27.108 261.478 27.2358 262.475 27.4915C263.481 27.7472 264.372 28.1435 265.147 28.6804C265.931 29.2173 266.549 29.9077 267.001 30.7514C267.453 31.5866 267.679 32.5881 267.679 33.7557V47H262.514V44.277H262.36C262.045 44.8906 261.623 45.4318 261.095 45.9006C260.566 46.3608 259.931 46.723 259.19 46.9872C258.449 47.2429 257.592 47.3707 256.62 47.3707ZM258.18 43.6122C258.981 43.6122 259.689 43.4545 260.302 43.1392C260.916 42.8153 261.397 42.3807 261.747 41.8352C262.096 41.2898 262.271 40.6719 262.271 39.9815V37.8977C262.1 38.0085 261.866 38.1108 261.568 38.2045C261.278 38.2898 260.95 38.3707 260.583 38.4474C260.217 38.5156 259.85 38.5795 259.484 38.6392C259.118 38.6903 258.785 38.7372 258.487 38.7798C257.848 38.8736 257.289 39.0227 256.812 39.2273C256.335 39.4318 255.964 39.7088 255.7 40.0582C255.436 40.3991 255.304 40.8253 255.304 41.3366C255.304 42.0781 255.572 42.6449 256.109 43.0369C256.654 43.4205 257.345 43.6122 258.18 43.6122Z" fill="white"/>
<defs>
<linearGradient id="paint0_linear_1_2" x1="0" y1="70" x2="400" y2="70" gradientUnits="userSpaceOnUse">
<stop stop-color="#5C6477"/>
<stop offset="1" stop-color="#5C6477" stop-opacity="0.4"/>
</linearGradient>
</defs>
</svg>
