<svg width="400" height="120" viewBox="0 0 400 120" fill="none" xmlns="http://www.w3.org/2000/svg">
<rect x="0.5" y="0.5" width="399" height="119" rx="11.5" stroke="url(#paint0_linear_1_2)"/>
<path d="M14.2756 47V20.8182H19.8111V31.6207H31.0483V20.8182H36.571V47H31.0483V36.1847H19.8111V47H14.2756ZM41.0327 47V27.3636H46.4787V47H41.0327ZM43.7685 24.8324C42.9588 24.8324 42.2642 24.5639 41.6847 24.027C41.1136 23.4815 40.8281 22.8295 40.8281 22.071C40.8281 21.321 41.1136 20.6776 41.6847 20.1406C42.2642 19.5952 42.9588 19.3224 43.7685 19.3224C44.5781 19.3224 45.2685 19.5952 45.8395 20.1406C46.419 20.6776 46.7088 21.321 46.7088 22.071C46.7088 22.8295 46.419 23.4815 45.8395 24.027C45.2685 24.5639 44.5781 24.8324 43.7685 24.8324ZM56.7603 43.4205L56.6197 44.8267C56.5089 45.9517 56.2958 47.0724 55.9805 48.1889C55.6737 49.3139 55.3498 50.3324 55.0089 51.2443C54.6765 52.1563 54.408 52.8722 54.2035 53.392H50.6751C50.8029 52.8892 50.9776 52.1861 51.1992 51.2827C51.4208 50.3878 51.6296 49.3821 51.8256 48.2656C52.0217 47.1491 52.1452 46.0114 52.1964 44.8523L52.2603 43.4205H56.7603ZM74.479 20.8182V47H68.9435V20.8182H74.479ZM83.495 20.8182V23.5795C83.495 24.3636 83.3416 25.1648 83.0348 25.983C82.7365 26.7926 82.3359 27.5597 81.8331 28.2841C81.3303 29 80.7805 29.6094 80.1839 30.1122L77.7805 28.6932C78.2067 28.0199 78.5817 27.2741 78.9055 26.456C79.2379 25.6378 79.4041 24.6875 79.4041 23.6051V20.8182H83.495ZM86.3491 47V27.3636H91.5394V30.8281H91.7695C92.1786 29.6776 92.8604 28.7699 93.815 28.1051C94.7695 27.4403 95.9116 27.108 97.2411 27.108C98.5877 27.108 99.734 27.4446 100.68 28.1179C101.626 28.7827 102.257 29.6861 102.572 30.8281H102.777C103.177 29.7031 103.902 28.804 104.95 28.1307C106.007 27.4489 107.255 27.108 108.696 27.108C110.528 27.108 112.015 27.6918 113.157 28.8594C114.308 30.0185 114.883 31.6634 114.883 33.794V47H109.45V34.8679C109.45 33.777 109.16 32.9588 108.581 32.4134C108.001 31.8679 107.277 31.5952 106.407 31.5952C105.419 31.5952 104.647 31.9105 104.093 32.5412C103.539 33.1634 103.262 33.9858 103.262 35.0085V47H97.9826V34.7528C97.9826 33.7898 97.7056 33.0227 97.1516 32.4517C96.6062 31.8807 95.886 31.5952 94.9911 31.5952C94.386 31.5952 93.8406 31.7486 93.3548 32.0554C92.8775 32.3537 92.4982 32.7756 92.217 33.321C91.9357 33.858 91.7951 34.4886 91.7951 35.2131V47H86.3491Z" fill="#5C6477"/>
<path d="M141.822 28.348C141.72 27.3168 141.281 26.5156 140.506 25.9446C139.73 25.3736 138.678 25.0881 137.348 25.0881C136.445 25.0881 135.682 25.2159 135.06 25.4716C134.438 25.7188 133.96 26.0639 133.628 26.5071C133.304 26.9503 133.142 27.4531 133.142 28.0156C133.125 28.4844 133.223 28.8935 133.436 29.2429C133.658 29.5923 133.96 29.8949 134.344 30.1506C134.727 30.3977 135.17 30.6151 135.673 30.8026C136.176 30.9815 136.713 31.1349 137.284 31.2628L139.636 31.8253C140.778 32.081 141.827 32.4219 142.781 32.848C143.736 33.2741 144.563 33.7983 145.261 34.4205C145.96 35.0426 146.501 35.7756 146.885 36.6193C147.277 37.4631 147.477 38.4304 147.486 39.5213C147.477 41.1236 147.068 42.5128 146.259 43.6889C145.457 44.8565 144.298 45.7642 142.781 46.4119C141.273 47.0511 139.453 47.3707 137.322 47.3707C135.209 47.3707 133.368 47.0469 131.8 46.3991C130.24 45.7514 129.021 44.7926 128.143 43.5227C127.274 42.2443 126.818 40.6634 126.776 38.7798H132.132C132.192 39.6577 132.443 40.3906 132.886 40.9787C133.338 41.5582 133.939 41.9972 134.689 42.2955C135.447 42.5852 136.304 42.7301 137.259 42.7301C138.196 42.7301 139.01 42.5937 139.7 42.321C140.399 42.0483 140.94 41.669 141.324 41.1832C141.707 40.6974 141.899 40.1392 141.899 39.5085C141.899 38.9205 141.724 38.4261 141.375 38.0256C141.034 37.625 140.531 37.2841 139.866 37.0028C139.21 36.7216 138.405 36.4659 137.45 36.2358L134.599 35.5199C132.392 34.983 130.649 34.1435 129.371 33.0014C128.092 31.8594 127.457 30.321 127.466 28.3864C127.457 26.8011 127.879 25.4162 128.732 24.2315C129.592 23.0469 130.773 22.1222 132.273 21.4574C133.773 20.7926 135.477 20.4602 137.386 20.4602C139.33 20.4602 141.026 20.7926 142.474 21.4574C143.932 22.1222 145.065 23.0469 145.875 24.2315C146.685 25.4162 147.102 26.7884 147.128 28.348H141.822ZM156.706 47.3707C155.453 47.3707 154.337 47.1534 153.357 46.7188C152.377 46.2756 151.601 45.6236 151.03 44.7628C150.468 43.8935 150.186 42.8111 150.186 41.5156C150.186 40.4247 150.387 39.5085 150.787 38.767C151.188 38.0256 151.733 37.429 152.424 36.9773C153.114 36.5256 153.898 36.1847 154.776 35.9545C155.662 35.7244 156.591 35.5625 157.563 35.4688C158.705 35.3494 159.625 35.2386 160.324 35.1364C161.023 35.0256 161.53 34.8636 161.846 34.6506C162.161 34.4375 162.319 34.1222 162.319 33.7045V33.6278C162.319 32.8182 162.063 32.1918 161.551 31.7486C161.049 31.3054 160.333 31.0838 159.404 31.0838C158.424 31.0838 157.644 31.3011 157.064 31.7358C156.485 32.1619 156.101 32.6989 155.914 33.3466L150.877 32.9375C151.132 31.7443 151.635 30.7131 152.385 29.8438C153.135 28.9659 154.103 28.2926 155.287 27.8239C156.48 27.3466 157.861 27.108 159.429 27.108C160.52 27.108 161.564 27.2358 162.561 27.4915C163.567 27.7472 164.458 28.1435 165.233 28.6804C166.017 29.2173 166.635 29.9077 167.087 30.7514C167.539 31.5866 167.765 32.5881 167.765 33.7557V47H162.6V44.277H162.446C162.131 44.8906 161.709 45.4318 161.181 45.9006C160.652 46.3608 160.017 46.723 159.276 46.9872C158.534 47.2429 157.678 47.3707 156.706 47.3707ZM158.266 43.6122C159.067 43.6122 159.775 43.4545 160.388 43.1392C161.002 42.8153 161.483 42.3807 161.833 41.8352C162.182 41.2898 162.357 40.6719 162.357 39.9815V37.8977C162.186 38.0085 161.952 38.1108 161.654 38.2045C161.364 38.2898 161.036 38.3707 160.669 38.4474C160.303 38.5156 159.936 38.5795 159.57 38.6392C159.203 38.6903 158.871 38.7372 158.573 38.7798C157.934 38.8736 157.375 39.0227 156.898 39.2273C156.421 39.4318 156.05 39.7088 155.786 40.0582C155.522 40.3991 155.39 40.8253 155.39 41.3366C155.39 42.0781 155.658 42.6449 156.195 43.0369C156.74 43.4205 157.431 43.6122 158.266 43.6122ZM172.092 47V20.8182H177.538V30.6619H177.704C177.943 30.1335 178.288 29.5966 178.74 29.0511C179.2 28.4972 179.797 28.0369 180.529 27.6705C181.271 27.2955 182.191 27.108 183.291 27.108C184.723 27.108 186.044 27.483 187.254 28.233C188.464 28.9744 189.431 30.0952 190.156 31.5952C190.88 33.0866 191.243 34.9574 191.243 37.2074C191.243 39.3977 190.889 41.2472 190.181 42.7557C189.483 44.2557 188.528 45.3935 187.318 46.169C186.116 46.9361 184.77 47.3196 183.278 47.3196C182.221 47.3196 181.322 47.1449 180.581 46.7955C179.848 46.446 179.247 46.0071 178.778 45.4787C178.309 44.9418 177.951 44.4006 177.704 43.8551H177.461V47H172.092ZM177.423 37.1818C177.423 38.3494 177.585 39.3679 177.909 40.2372C178.233 41.1065 178.701 41.7841 179.315 42.2699C179.929 42.7472 180.674 42.9858 181.552 42.9858C182.439 42.9858 183.189 42.7429 183.802 42.2571C184.416 41.7628 184.88 41.081 185.196 40.2116C185.52 39.3338 185.681 38.3239 185.681 37.1818C185.681 36.0483 185.524 35.0511 185.208 34.1903C184.893 33.3295 184.429 32.6562 183.815 32.1705C183.201 31.6847 182.447 31.4418 181.552 31.4418C180.666 31.4418 179.916 31.6761 179.302 32.1449C178.697 32.6136 178.233 33.2784 177.909 34.1392C177.585 35 177.423 36.0142 177.423 37.1818ZM197.606 54.3636C196.915 54.3636 196.268 54.3082 195.663 54.1974C195.066 54.0952 194.572 53.9631 194.18 53.8011L195.407 49.7358C196.046 49.9318 196.621 50.0384 197.133 50.0554C197.653 50.0724 198.1 49.9531 198.475 49.6974C198.859 49.4418 199.17 49.0071 199.408 48.3935L199.728 47.5625L192.684 27.3636H198.411L202.477 41.7841H202.681L206.785 27.3636H212.55L204.918 49.1222C204.552 50.179 204.053 51.0994 203.423 51.8835C202.8 52.6761 202.012 53.2855 201.058 53.7116C200.103 54.1463 198.952 54.3636 197.606 54.3636ZM215.337 47V27.3636H220.617V30.7898H220.822C221.18 29.571 221.781 28.6506 222.624 28.0284C223.468 27.3977 224.44 27.0824 225.539 27.0824C225.812 27.0824 226.106 27.0994 226.421 27.1335C226.737 27.1676 227.013 27.2145 227.252 27.2741V32.1065C226.996 32.0298 226.643 31.9616 226.191 31.902C225.739 31.8423 225.326 31.8125 224.951 31.8125C224.15 31.8125 223.434 31.9872 222.803 32.3366C222.181 32.6776 221.687 33.1548 221.32 33.7685C220.962 34.3821 220.783 35.0895 220.783 35.8906V47H215.337ZM235.002 41.3494L235.015 34.8168H235.808L242.098 27.3636H248.349L239.899 37.233H238.608L235.002 41.3494ZM230.068 47V20.8182H235.514V47H230.068ZM242.341 47L236.562 38.4474L240.193 34.5994L248.72 47H242.341ZM256.62 47.3707C255.368 47.3707 254.251 47.1534 253.271 46.7188C252.291 46.2756 251.515 45.6236 250.944 44.7628C250.382 43.8935 250.1 42.8111 250.1 41.5156C250.1 40.4247 250.301 39.5085 250.701 38.767C251.102 38.0256 251.647 37.429 252.338 36.9773C253.028 36.5256 253.812 36.1847 254.69 35.9545C255.576 35.7244 256.505 35.5625 257.477 35.4688C258.619 35.3494 259.539 35.2386 260.238 35.1364C260.937 35.0256 261.444 34.8636 261.76 34.6506C262.075 34.4375 262.233 34.1222 262.233 33.7045V33.6278C262.233 32.8182 261.977 32.1918 261.466 31.7486C260.963 31.3054 260.247 31.0838 259.318 31.0838C258.338 31.0838 257.558 31.3011 256.978 31.7358C256.399 32.1619 256.015 32.6989 255.828 33.3466L250.791 32.9375C251.047 31.7443 251.549 30.7131 252.299 29.8438C253.049 28.9659 254.017 28.2926 255.201 27.8239C256.395 27.3466 257.775 27.108 259.343 27.108C260.434 27.108 261.478 27.2358 262.475 27.4915C263.481 27.7472 264.372 28.1435 265.147 28.6804C265.931 29.2173 266.549 29.9077 267.001 30.7514C267.453 31.5866 267.679 32.5881 267.679 33.7557V47H262.514V44.277H262.36C262.045 44.8906 261.623 45.4318 261.095 45.9006C260.566 46.3608 259.931 46.723 259.19 46.9872C258.449 47.2429 257.592 47.3707 256.62 47.3707ZM258.18 43.6122C258.981 43.6122 259.689 43.4545 260.302 43.1392C260.916 42.8153 261.397 42.3807 261.747 41.8352C262.096 41.2898 262.271 40.6719 262.271 39.9815V37.8977C262.1 38.0085 261.866 38.1108 261.568 38.2045C261.278 38.2898 260.95 38.3707 260.583 38.4474C260.217 38.5156 259.85 38.5795 259.484 38.6392C259.118 38.6903 258.785 38.7372 258.487 38.7798C257.848 38.8736 257.289 39.0227 256.812 39.2273C256.335 39.4318 255.964 39.7088 255.7 40.0582C255.436 40.3991 255.304 40.8253 255.304 41.3366C255.304 42.0781 255.572 42.6449 256.109 43.0369C256.654 43.4205 257.345 43.6122 258.18 43.6122Z" fill="white"/>
<path d="M14.8445 65.0909V76H13.1985V65.0909H14.8445ZM21.2112 76V65.0909H22.8039V69.1445H22.8998C22.9921 68.9741 23.1253 68.777 23.2993 68.5533C23.4733 68.3295 23.7148 68.1342 24.0237 67.9673C24.3327 67.7969 24.741 67.7116 25.2488 67.7116C25.9094 67.7116 26.4988 67.8786 27.0173 68.2124C27.5358 68.5462 27.9424 69.0273 28.2371 69.6559C28.5354 70.2844 28.6846 71.0408 28.6846 71.9251C28.6846 72.8093 28.5372 73.5675 28.2425 74.1996C27.9477 74.8281 27.5429 75.3129 27.028 75.6538C26.5131 75.9911 25.9253 76.1598 25.2648 76.1598C24.7677 76.1598 24.3611 76.0763 24.045 75.9094C23.7325 75.7425 23.4875 75.5472 23.3099 75.3235C23.1324 75.0998 22.9956 74.9009 22.8998 74.7269H22.7666V76H21.2112ZM22.7719 71.9091C22.7719 72.4844 22.8554 72.9886 23.0223 73.4219C23.1892 73.8551 23.4307 74.1942 23.7467 74.4393C24.0628 74.6808 24.4498 74.8015 24.9079 74.8015C25.3838 74.8015 25.7815 74.6754 26.1011 74.4233C26.4207 74.1676 26.6622 73.8214 26.8256 73.3846C26.9925 72.9478 27.0759 72.456 27.0759 71.9091C27.0759 71.3693 26.9942 70.8846 26.8309 70.4549C26.6711 70.0252 26.4296 69.6861 26.1064 69.4375C25.7868 69.1889 25.3873 69.0646 24.9079 69.0646C24.4463 69.0646 24.0557 69.1836 23.7361 69.4215C23.42 69.6594 23.1803 69.9915 23.017 70.4176C22.8536 70.8437 22.7719 71.3409 22.7719 71.9091ZM35.6559 72.6069V67.8182H37.2539V76H35.6879V74.5831H35.6026C35.4144 75.0199 35.1126 75.3839 34.6971 75.6751C34.2852 75.9627 33.772 76.1065 33.1577 76.1065C32.6321 76.1065 32.1669 75.9911 31.7621 75.7603C31.3608 75.5259 31.0447 75.1797 30.8139 74.7216C30.5866 74.2635 30.473 73.6971 30.473 73.0224V67.8182H32.0657V72.8306C32.0657 73.3881 32.2202 73.832 32.5291 74.1623C32.8381 74.4925 33.2393 74.6577 33.733 74.6577C34.0313 74.6577 34.3278 74.5831 34.6225 74.4339C34.9208 74.2848 35.1676 74.0593 35.3629 73.7575C35.5618 73.4556 35.6594 73.0721 35.6559 72.6069ZM39.3939 76V67.8182H40.9866V76H39.3939ZM40.1982 66.5558C39.9213 66.5558 39.6833 66.4634 39.4845 66.2788C39.2892 66.0906 39.1915 65.8668 39.1915 65.6076C39.1915 65.3448 39.2892 65.1211 39.4845 64.9364C39.6833 64.7482 39.9213 64.6541 40.1982 64.6541C40.4752 64.6541 40.7114 64.7482 40.9067 64.9364C41.1056 65.1211 41.205 65.3448 41.205 65.6076C41.205 65.8668 41.1056 66.0906 40.9067 66.2788C40.7114 66.4634 40.4752 66.5558 40.1982 66.5558ZM44.7219 65.0909V76H43.1293V65.0909H44.7219ZM49.9275 76.1598C49.267 76.1598 48.6775 75.9911 48.159 75.6538C47.6441 75.3129 47.2393 74.8281 46.9445 74.1996C46.6533 73.5675 46.5077 72.8093 46.5077 71.9251C46.5077 71.0408 46.6551 70.2844 46.9498 69.6559C47.2481 69.0273 47.6565 68.5462 48.175 68.2124C48.6934 67.8786 49.2812 67.7116 49.9381 67.7116C50.4459 67.7116 50.8543 67.7969 51.1633 67.9673C51.4758 68.1342 51.7172 68.3295 51.8877 68.5533C52.0617 68.777 52.1966 68.9741 52.2925 69.1445H52.3884V65.0909H53.9811V76H52.4257V74.7269H52.2925C52.1966 74.9009 52.0582 75.0998 51.877 75.3235C51.6995 75.5472 51.4545 75.7425 51.142 75.9094C50.8295 76.0763 50.4246 76.1598 49.9275 76.1598ZM50.279 74.8015C50.7371 74.8015 51.1242 74.6808 51.4403 74.4393C51.7599 74.1942 52.0013 73.8551 52.1647 73.4219C52.3316 72.9886 52.415 72.4844 52.415 71.9091C52.415 71.3409 52.3334 70.8437 52.17 70.4176C52.0067 69.9915 51.767 69.6594 51.4509 69.4215C51.1349 69.1836 50.7442 69.0646 50.279 69.0646C49.7996 69.0646 49.4001 69.1889 49.0805 69.4375C48.7609 69.6861 48.5194 70.0252 48.3561 70.4549C48.1963 70.8846 48.1164 71.3693 48.1164 71.9091C48.1164 72.456 48.1981 72.9478 48.3614 73.3846C48.5248 73.8214 48.7662 74.1676 49.0858 74.4233C49.409 74.6754 49.8067 74.8015 50.279 74.8015ZM63.6704 76.1651C62.8785 76.1651 62.1966 75.9858 61.6249 75.6271C61.0567 75.2649 60.6199 74.766 60.3145 74.1303C60.0091 73.4947 59.8564 72.7667 59.8564 71.9464C59.8564 71.1154 60.0127 70.3821 60.3252 69.7464C60.6377 69.1072 61.078 68.6083 61.6462 68.2496C62.2144 67.891 62.8838 67.7116 63.6544 67.7116C64.2758 67.7116 64.8298 67.8271 65.3163 68.0579C65.8028 68.2852 66.1952 68.6048 66.4935 69.0167C66.7954 69.4286 66.9747 69.9098 67.0315 70.4602H65.4814C65.3962 70.0767 65.2009 69.7464 64.8955 69.4695C64.5937 69.1925 64.1888 69.054 63.681 69.054C63.2371 69.054 62.8483 69.1712 62.5145 69.4055C62.1842 69.6364 61.9268 69.9666 61.7421 70.3963C61.5574 70.8224 61.4651 71.3267 61.4651 71.9091C61.4651 72.5057 61.5557 73.0206 61.7368 73.4538C61.9179 73.8871 62.1736 74.2227 62.5038 74.4606C62.8376 74.6985 63.23 74.8175 63.681 74.8175C63.9829 74.8175 64.2563 74.7624 64.5013 74.6523C64.7499 74.5387 64.9577 74.3771 65.1246 74.1676C65.295 73.9581 65.414 73.706 65.4814 73.4112H67.0315C66.9747 73.9403 66.8025 74.4126 66.5148 74.8281C66.2272 75.2436 65.8419 75.5703 65.3589 75.8082C64.8795 76.0462 64.3167 76.1651 63.6704 76.1651ZM70.3274 65.0909V76H68.7347V65.0909H70.3274ZM75.9964 76.1651C75.1903 76.1651 74.496 75.9929 73.9136 75.6484C73.3348 75.3004 72.8873 74.8121 72.5713 74.1836C72.2588 73.5515 72.1025 72.8111 72.1025 71.9624C72.1025 71.1243 72.2588 70.3857 72.5713 69.7464C72.8873 69.1072 73.3277 68.6083 73.8923 68.2496C74.4605 67.891 75.1246 67.7116 75.8845 67.7116C76.3461 67.7116 76.7936 67.788 77.2268 67.9407C77.6601 68.0934 78.0489 68.3331 78.3934 68.6598C78.7378 68.9865 79.0095 69.4109 79.2084 69.9329C79.4072 70.4513 79.5067 71.0817 79.5067 71.8239V72.3885H73.0028V71.1953H77.9459C77.9459 70.7763 77.8607 70.4052 77.6903 70.082C77.5198 69.7553 77.2801 69.4979 76.9711 69.3097C76.6657 69.1214 76.3071 69.0273 75.8952 69.0273C75.4477 69.0273 75.0571 69.1374 74.7233 69.3576C74.393 69.5742 74.1373 69.8583 73.9562 70.2099C73.7787 70.5579 73.6899 70.9361 73.6899 71.3445V72.2766C73.6899 72.8235 73.7858 73.2887 73.9775 73.6722C74.1729 74.0558 74.4445 74.3487 74.7925 74.5511C75.1405 74.75 75.5471 74.8494 76.0123 74.8494C76.3142 74.8494 76.5894 74.8068 76.838 74.7216C77.0866 74.6328 77.3014 74.5014 77.4825 74.3274C77.6636 74.1534 77.8021 73.9386 77.898 73.6829L79.4055 73.9545C79.2847 74.3984 79.0681 74.7873 78.7556 75.1211C78.4466 75.4513 78.0578 75.7088 77.589 75.8935C77.1238 76.0746 76.593 76.1651 75.9964 76.1651ZM83.6548 76.1811C83.1364 76.1811 82.6676 76.0852 82.2486 75.8935C81.8295 75.6982 81.4975 75.4158 81.2525 75.0465C81.011 74.6772 80.8903 74.2244 80.8903 73.6882C80.8903 73.2266 80.979 72.8466 81.1566 72.5483C81.3342 72.25 81.5739 72.0138 81.8757 71.8398C82.1776 71.6658 82.5149 71.5344 82.8878 71.4457C83.2607 71.3569 83.6406 71.2894 84.0277 71.2433C84.5178 71.1864 84.9155 71.1403 85.2209 71.1048C85.5263 71.0657 85.7482 71.0036 85.8867 70.9183C86.0252 70.8331 86.0945 70.6946 86.0945 70.5028V70.4656C86.0945 70.0004 85.9631 69.6399 85.7003 69.3842C85.4411 69.1286 85.054 69.0007 84.5391 69.0007C84.0028 69.0007 83.5803 69.1197 83.2713 69.3576C82.9659 69.592 82.7546 69.853 82.6374 70.1406L81.1406 69.7997C81.3182 69.3026 81.5774 68.9013 81.9183 68.5959C82.2628 68.2869 82.6587 68.0632 83.1062 67.9247C83.5536 67.7827 84.0241 67.7116 84.5178 67.7116C84.8445 67.7116 85.1907 67.7507 85.5565 67.8288C85.9258 67.9034 86.2702 68.0419 86.5898 68.2443C86.913 68.4467 87.1776 68.7362 87.3835 69.1126C87.5895 69.4854 87.6925 69.9702 87.6925 70.5668V76H86.1371V74.8814H86.0732C85.9702 75.0874 85.8157 75.2898 85.6097 75.4886C85.4038 75.6875 85.1392 75.8526 84.8161 75.984C84.4929 76.1154 84.1058 76.1811 83.6548 76.1811ZM84.0011 74.9027C84.4414 74.9027 84.8178 74.8157 85.1303 74.6417C85.4464 74.4677 85.6861 74.2404 85.8494 73.9599C86.0163 73.6758 86.0998 73.3722 86.0998 73.049V71.9943C86.043 72.0511 85.9329 72.1044 85.7695 72.1541C85.6097 72.2003 85.4268 72.2411 85.2209 72.2766C85.0149 72.3086 84.8143 72.3388 84.619 72.3672C84.4237 72.392 84.2603 72.4134 84.1289 72.4311C83.82 72.4702 83.5376 72.5359 83.282 72.6282C83.0298 72.7205 82.8274 72.8537 82.6747 73.0277C82.5256 73.1982 82.451 73.4254 82.451 73.7095C82.451 74.1037 82.5966 74.402 82.8878 74.6044C83.179 74.8033 83.5501 74.9027 84.0011 74.9027ZM91.4065 71.142V76H89.8138V67.8182H91.3426V69.1499H91.4438C91.632 68.7166 91.9268 68.3686 92.328 68.1058C92.7329 67.843 93.2425 67.7116 93.8568 67.7116C94.4143 67.7116 94.9026 67.8288 95.3216 68.0632C95.7407 68.294 96.0656 68.6385 96.2964 69.0966C96.5273 69.5547 96.6427 70.1211 96.6427 70.7958V76H95.05V70.9876C95.05 70.3945 94.8955 69.9311 94.5866 69.5973C94.2776 69.2599 93.8532 69.0913 93.3135 69.0913C92.9442 69.0913 92.6157 69.1712 92.328 69.331C92.0439 69.4908 91.8184 69.7251 91.6515 70.0341C91.4882 70.3395 91.4065 70.7088 91.4065 71.142ZM100.851 74.5085L100.771 75.0891C100.718 75.5153 100.627 75.9592 100.499 76.4208C100.375 76.886 100.245 77.3175 100.11 77.7152C99.979 78.1129 99.8706 78.429 99.7854 78.6634H98.6562C98.7023 78.4432 98.7662 78.1449 98.8479 77.7685C98.9296 77.3956 99.0095 76.9783 99.0876 76.5167C99.1657 76.055 99.2243 75.5845 99.2634 75.1051L99.3167 74.5085H100.851ZM113.025 69.8157L111.581 70.0714C111.521 69.8867 111.425 69.7109 111.294 69.544C111.166 69.3771 110.992 69.2404 110.772 69.1339C110.552 69.0273 110.276 68.9741 109.946 68.9741C109.495 68.9741 109.119 69.0753 108.817 69.2777C108.515 69.4766 108.364 69.734 108.364 70.0501C108.364 70.3235 108.465 70.5437 108.668 70.7106C108.87 70.8775 109.197 71.0142 109.648 71.1207L110.948 71.419C111.7 71.593 112.261 71.8612 112.631 72.2234C113 72.5856 113.185 73.0561 113.185 73.6349C113.185 74.125 113.043 74.5618 112.759 74.9453C112.478 75.3253 112.086 75.6236 111.581 75.8402C111.081 76.0568 110.5 76.1651 109.84 76.1651C108.923 76.1651 108.176 75.9698 107.597 75.5792C107.018 75.185 106.663 74.6257 106.532 73.9013L108.071 73.6669C108.167 74.0682 108.364 74.3718 108.662 74.5778C108.961 74.7802 109.35 74.8814 109.829 74.8814C110.351 74.8814 110.768 74.7731 111.081 74.5565C111.393 74.3363 111.549 74.0682 111.549 73.7521C111.549 73.4964 111.454 73.2816 111.262 73.1076C111.074 72.9336 110.784 72.8022 110.394 72.7134L109.009 72.4098C108.245 72.2358 107.68 71.9588 107.315 71.5788C106.953 71.1989 106.771 70.7177 106.771 70.1353C106.771 69.6523 106.906 69.2298 107.176 68.8675C107.446 68.5053 107.819 68.223 108.295 68.0206C108.771 67.8146 109.316 67.7116 109.93 67.7116C110.814 67.7116 111.51 67.9034 112.018 68.2869C112.526 68.6669 112.862 69.1765 113.025 69.8157ZM118.382 76.1651C117.59 76.1651 116.909 75.9858 116.337 75.6271C115.769 75.2649 115.332 74.766 115.026 74.1303C114.721 73.4947 114.568 72.7667 114.568 71.9464C114.568 71.1154 114.725 70.3821 115.037 69.7464C115.35 69.1072 115.79 68.6083 116.358 68.2496C116.926 67.891 117.596 67.7116 118.366 67.7116C118.988 67.7116 119.542 67.8271 120.028 68.0579C120.515 68.2852 120.907 68.6048 121.205 69.0167C121.507 69.4286 121.687 69.9098 121.743 70.4602H120.193C120.108 70.0767 119.913 69.7464 119.607 69.4695C119.306 69.1925 118.901 69.054 118.393 69.054C117.949 69.054 117.56 69.1712 117.226 69.4055C116.896 69.6364 116.639 69.9666 116.454 70.3963C116.269 70.8224 116.177 71.3267 116.177 71.9091C116.177 72.5057 116.268 73.0206 116.449 73.4538C116.63 73.8871 116.885 74.2227 117.216 74.4606C117.55 74.6985 117.942 74.8175 118.393 74.8175C118.695 74.8175 118.968 74.7624 119.213 74.6523C119.462 74.5387 119.67 74.3771 119.836 74.1676C120.007 73.9581 120.126 73.706 120.193 73.4112H121.743C121.687 73.9403 121.514 74.4126 121.227 74.8281C120.939 75.2436 120.554 75.5703 120.071 75.8082C119.591 76.0462 119.029 76.1651 118.382 76.1651ZM125.828 76.1811C125.309 76.1811 124.84 76.0852 124.421 75.8935C124.002 75.6982 123.67 75.4158 123.425 75.0465C123.184 74.6772 123.063 74.2244 123.063 73.6882C123.063 73.2266 123.152 72.8466 123.329 72.5483C123.507 72.25 123.747 72.0138 124.049 71.8398C124.35 71.6658 124.688 71.5344 125.061 71.4457C125.434 71.3569 125.813 71.2894 126.201 71.2433C126.691 71.1864 127.088 71.1403 127.394 71.1048C127.699 71.0657 127.921 71.0036 128.06 70.9183C128.198 70.8331 128.267 70.6946 128.267 70.5028V70.4656C128.267 70.0004 128.136 69.6399 127.873 69.3842C127.614 69.1286 127.227 69.0007 126.712 69.0007C126.176 69.0007 125.753 69.1197 125.444 69.3576C125.139 69.592 124.927 69.853 124.81 70.1406L123.313 69.7997C123.491 69.3026 123.75 68.9013 124.091 68.5959C124.436 68.2869 124.832 68.0632 125.279 67.9247C125.726 67.7827 126.197 67.7116 126.691 67.7116C127.017 67.7116 127.364 67.7507 127.729 67.8288C128.099 67.9034 128.443 68.0419 128.763 68.2443C129.086 68.4467 129.35 68.7362 129.556 69.1126C129.762 69.4854 129.865 69.9702 129.865 70.5668V76H128.31V74.8814H128.246C128.143 75.0874 127.989 75.2898 127.783 75.4886C127.577 75.6875 127.312 75.8526 126.989 75.984C126.666 76.1154 126.279 76.1811 125.828 76.1811ZM126.174 74.9027C126.614 74.9027 126.991 74.8157 127.303 74.6417C127.619 74.4677 127.859 74.2404 128.022 73.9599C128.189 73.6758 128.273 73.3722 128.273 73.049V71.9943C128.216 72.0511 128.106 72.1044 127.942 72.1541C127.783 72.2003 127.6 72.2411 127.394 72.2766C127.188 72.3086 126.987 72.3388 126.792 72.3672C126.597 72.392 126.433 72.4134 126.302 72.4311C125.993 72.4702 125.71 72.5359 125.455 72.6282C125.203 72.7205 125 72.8537 124.848 73.0277C124.698 73.1982 124.624 73.4254 124.624 73.7095C124.624 74.1037 124.769 74.402 125.061 74.6044C125.352 74.8033 125.723 74.9027 126.174 74.9027ZM133.579 65.0909V76H131.987V65.0909H133.579ZM138.103 76.1811C137.585 76.1811 137.116 76.0852 136.697 75.8935C136.278 75.6982 135.946 75.4158 135.701 75.0465C135.459 74.6772 135.339 74.2244 135.339 73.6882C135.339 73.2266 135.427 72.8466 135.605 72.5483C135.782 72.25 136.022 72.0138 136.324 71.8398C136.626 71.6658 136.963 71.5344 137.336 71.4457C137.709 71.3569 138.089 71.2894 138.476 71.2433C138.966 71.1864 139.364 71.1403 139.669 71.1048C139.975 71.0657 140.196 71.0036 140.335 70.9183C140.473 70.8331 140.543 70.6946 140.543 70.5028V70.4656C140.543 70.0004 140.411 69.6399 140.149 69.3842C139.889 69.1286 139.502 69.0007 138.987 69.0007C138.451 69.0007 138.028 69.1197 137.72 69.3576C137.414 69.592 137.203 69.853 137.086 70.1406L135.589 69.7997C135.766 69.3026 136.026 68.9013 136.367 68.5959C136.711 68.2869 137.107 68.0632 137.554 67.9247C138.002 67.7827 138.472 67.7116 138.966 67.7116C139.293 67.7116 139.639 67.7507 140.005 67.8288C140.374 67.9034 140.718 68.0419 141.038 68.2443C141.361 68.4467 141.626 68.7362 141.832 69.1126C142.038 69.4854 142.141 69.9702 142.141 70.5668V76H140.585V74.8814H140.521C140.418 75.0874 140.264 75.2898 140.058 75.4886C139.852 75.6875 139.587 75.8526 139.264 75.984C138.941 76.1154 138.554 76.1811 138.103 76.1811ZM138.449 74.9027C138.89 74.9027 139.266 74.8157 139.579 74.6417C139.895 74.4677 140.134 74.2404 140.298 73.9599C140.465 73.6758 140.548 73.3722 140.548 73.049V71.9943C140.491 72.0511 140.381 72.1044 140.218 72.1541C140.058 72.2003 139.875 72.2411 139.669 72.2766C139.463 72.3086 139.263 72.3388 139.067 72.3672C138.872 72.392 138.709 72.4134 138.577 72.4311C138.268 72.4702 137.986 72.5359 137.73 72.6282C137.478 72.7205 137.276 72.8537 137.123 73.0277C136.974 73.1982 136.899 73.4254 136.899 73.7095C136.899 74.1037 137.045 74.402 137.336 74.6044C137.627 74.8033 137.998 74.9027 138.449 74.9027ZM144.39 76V65.0909H145.983V69.1445H146.078C146.171 68.9741 146.304 68.777 146.478 68.5533C146.652 68.3295 146.893 68.1342 147.202 67.9673C147.511 67.7969 147.92 67.7116 148.428 67.7116C149.088 67.7116 149.678 67.8786 150.196 68.2124C150.714 68.5462 151.121 69.0273 151.416 69.6559C151.714 70.2844 151.863 71.0408 151.863 71.9251C151.863 72.8093 151.716 73.5675 151.421 74.1996C151.126 74.8281 150.722 75.3129 150.207 75.6538C149.692 75.9911 149.104 76.1598 148.444 76.1598C147.946 76.1598 147.54 76.0763 147.224 75.9094C146.911 75.7425 146.666 75.5472 146.489 75.3235C146.311 75.0998 146.174 74.9009 146.078 74.7269H145.945V76H144.39ZM145.951 71.9091C145.951 72.4844 146.034 72.9886 146.201 73.4219C146.368 73.8551 146.609 74.1942 146.925 74.4393C147.241 74.6808 147.629 74.8015 148.087 74.8015C148.562 74.8015 148.96 74.6754 149.28 74.4233C149.599 74.1676 149.841 73.8214 150.004 73.3846C150.171 72.9478 150.255 72.456 150.255 71.9091C150.255 71.3693 150.173 70.8846 150.01 70.4549C149.85 70.0252 149.608 69.6861 149.285 69.4375C148.966 69.1889 148.566 69.0646 148.087 69.0646C147.625 69.0646 147.234 69.1836 146.915 69.4215C146.599 69.6594 146.359 69.9915 146.196 70.4176C146.032 70.8437 145.951 71.3409 145.951 71.9091ZM155.244 65.0909V76H153.652V65.0909H155.244ZM160.913 76.1651C160.107 76.1651 159.413 75.9929 158.831 75.6484C158.252 75.3004 157.804 74.8121 157.488 74.1836C157.176 73.5515 157.02 72.8111 157.02 71.9624C157.02 71.1243 157.176 70.3857 157.488 69.7464C157.804 69.1072 158.245 68.6083 158.809 68.2496C159.377 67.891 160.042 67.7116 160.801 67.7116C161.263 67.7116 161.711 67.788 162.144 67.9407C162.577 68.0934 162.966 68.3331 163.31 68.6598C163.655 68.9865 163.926 69.4109 164.125 69.9329C164.324 70.4513 164.424 71.0817 164.424 71.8239V72.3885H157.92V71.1953H162.863C162.863 70.7763 162.778 70.4052 162.607 70.082C162.437 69.7553 162.197 69.4979 161.888 69.3097C161.583 69.1214 161.224 69.0273 160.812 69.0273C160.365 69.0273 159.974 69.1374 159.64 69.3576C159.31 69.5742 159.054 69.8583 158.873 70.2099C158.696 70.5579 158.607 70.9361 158.607 71.3445V72.2766C158.607 72.8235 158.703 73.2887 158.895 73.6722C159.09 74.0558 159.362 74.3487 159.71 74.5511C160.058 74.75 160.464 74.8494 160.929 74.8494C161.231 74.8494 161.506 74.8068 161.755 74.7216C162.004 74.6328 162.218 74.5014 162.4 74.3274C162.581 74.1534 162.719 73.9386 162.815 73.6829L164.322 73.9545C164.202 74.3984 163.985 74.7873 163.673 75.1211C163.364 75.4513 162.975 75.7088 162.506 75.8935C162.041 76.0746 161.51 76.1651 160.913 76.1651ZM171.934 76L169.527 67.8182H171.173L172.776 73.8267H172.856L174.464 67.8182H176.11L177.708 73.8001H177.788L179.381 67.8182H181.027L178.625 76H177L175.338 70.0927H175.216L173.554 76H171.934ZM185.816 76.1651C185.01 76.1651 184.315 75.9929 183.733 75.6484C183.154 75.3004 182.707 74.8121 182.391 74.1836C182.078 73.5515 181.922 72.8111 181.922 71.9624C181.922 71.1243 182.078 70.3857 182.391 69.7464C182.707 69.1072 183.147 68.6083 183.712 68.2496C184.28 67.891 184.944 67.7116 185.704 67.7116C186.165 67.7116 186.613 67.788 187.046 67.9407C187.479 68.0934 187.868 68.3331 188.213 68.6598C188.557 68.9865 188.829 69.4109 189.028 69.9329C189.227 70.4513 189.326 71.0817 189.326 71.8239V72.3885H182.822V71.1953H187.765C187.765 70.7763 187.68 70.4052 187.51 70.082C187.339 69.7553 187.099 69.4979 186.79 69.3097C186.485 69.1214 186.126 69.0273 185.714 69.0273C185.267 69.0273 184.876 69.1374 184.543 69.3576C184.212 69.5742 183.957 69.8583 183.776 70.2099C183.598 70.5579 183.509 70.9361 183.509 71.3445V72.2766C183.509 72.8235 183.605 73.2887 183.797 73.6722C183.992 74.0558 184.264 74.3487 184.612 74.5511C184.96 74.75 185.366 74.8494 185.832 74.8494C186.134 74.8494 186.409 74.8068 186.657 74.7216C186.906 74.6328 187.121 74.5014 187.302 74.3274C187.483 74.1534 187.621 73.9386 187.717 73.6829L189.225 73.9545C189.104 74.3984 188.887 74.7873 188.575 75.1211C188.266 75.4513 187.877 75.7088 187.408 75.8935C186.943 76.0746 186.412 76.1651 185.816 76.1651ZM191.221 76V65.0909H192.814V69.1445H192.91C193.002 68.9741 193.135 68.777 193.309 68.5533C193.483 68.3295 193.725 68.1342 194.033 67.9673C194.342 67.7969 194.751 67.7116 195.259 67.7116C195.919 67.7116 196.509 67.8786 197.027 68.2124C197.546 68.5462 197.952 69.0273 198.247 69.6559C198.545 70.2844 198.694 71.0408 198.694 71.9251C198.694 72.8093 198.547 73.5675 198.252 74.1996C197.957 74.8281 197.553 75.3129 197.038 75.6538C196.523 75.9911 195.935 76.1598 195.275 76.1598C194.777 76.1598 194.371 76.0763 194.055 75.9094C193.742 75.7425 193.497 75.5472 193.32 75.3235C193.142 75.0998 193.005 74.9009 192.91 74.7269H192.776V76H191.221ZM192.782 71.9091C192.782 72.4844 192.865 72.9886 193.032 73.4219C193.199 73.8551 193.44 74.1942 193.756 74.4393C194.073 74.6808 194.46 74.8015 194.918 74.8015C195.394 74.8015 195.791 74.6754 196.111 74.4233C196.43 74.1676 196.672 73.8214 196.835 73.3846C197.002 72.9478 197.086 72.456 197.086 71.9091C197.086 71.3693 197.004 70.8846 196.841 70.4549C196.681 70.0252 196.439 69.6861 196.116 69.4375C195.797 69.1889 195.397 69.0646 194.918 69.0646C194.456 69.0646 194.065 69.1836 193.746 69.4215C193.43 69.6594 193.19 69.9915 193.027 70.4176C192.863 70.8437 192.782 71.3409 192.782 71.9091ZM204.453 76V67.8182H206.045V76H204.453ZM205.257 66.5558C204.98 66.5558 204.742 66.4634 204.543 66.2788C204.348 66.0906 204.25 65.8668 204.25 65.6076C204.25 65.3448 204.348 65.1211 204.543 64.9364C204.742 64.7482 204.98 64.6541 205.257 64.6541C205.534 64.6541 205.77 64.7482 205.965 64.9364C206.164 65.1211 206.264 65.3448 206.264 65.6076C206.264 65.8668 206.164 66.0906 205.965 66.2788C205.77 66.4634 205.534 66.5558 205.257 66.5558ZM209.781 71.142V76H208.188V67.8182H209.717V69.1499H209.818C210.006 68.7166 210.301 68.3686 210.702 68.1058C211.107 67.843 211.616 67.7116 212.231 67.7116C212.788 67.7116 213.277 67.8288 213.696 68.0632C214.115 68.294 214.44 68.6385 214.67 69.0966C214.901 69.5547 215.017 70.1211 215.017 70.7958V76H213.424V70.9876C213.424 70.3945 213.27 69.9311 212.961 69.5973C212.652 69.2599 212.227 69.0913 211.688 69.0913C211.318 69.0913 210.99 69.1712 210.702 69.331C210.418 69.4908 210.192 69.7251 210.026 70.0341C209.862 70.3395 209.781 70.7088 209.781 71.142ZM220.972 67.8182V69.0966H216.503V67.8182H220.972ZM217.701 65.858H219.294V73.5977C219.294 73.9066 219.34 74.1392 219.433 74.2955C219.525 74.4482 219.644 74.5529 219.789 74.6097C219.939 74.663 220.1 74.6896 220.274 74.6896C220.402 74.6896 220.514 74.6808 220.61 74.663C220.706 74.6452 220.78 74.631 220.833 74.6204L221.121 75.9361C221.029 75.9716 220.897 76.0071 220.727 76.0426C220.556 76.0817 220.343 76.103 220.088 76.1065C219.669 76.1136 219.278 76.0391 218.916 75.8828C218.554 75.7266 218.261 75.4851 218.037 75.1584C217.813 74.8317 217.701 74.4215 217.701 73.9279V65.858ZM226.172 76.1651C225.366 76.1651 224.672 75.9929 224.089 75.6484C223.511 75.3004 223.063 74.8121 222.747 74.1836C222.435 73.5515 222.278 72.8111 222.278 71.9624C222.278 71.1243 222.435 70.3857 222.747 69.7464C223.063 69.1072 223.503 68.6083 224.068 68.2496C224.636 67.891 225.3 67.7116 226.06 67.7116C226.522 67.7116 226.969 67.788 227.403 67.9407C227.836 68.0934 228.225 68.3331 228.569 68.6598C228.914 68.9865 229.185 69.4109 229.384 69.9329C229.583 70.4513 229.682 71.0817 229.682 71.8239V72.3885H223.179V71.1953H228.122C228.122 70.7763 228.036 70.4052 227.866 70.082C227.696 69.7553 227.456 69.4979 227.147 69.3097C226.842 69.1214 226.483 69.0273 226.071 69.0273C225.623 69.0273 225.233 69.1374 224.899 69.3576C224.569 69.5742 224.313 69.8583 224.132 70.2099C223.954 70.5579 223.866 70.9361 223.866 71.3445V72.2766C223.866 72.8235 223.962 73.2887 224.153 73.6722C224.349 74.0558 224.62 74.3487 224.968 74.5511C225.316 74.75 225.723 74.8494 226.188 74.8494C226.49 74.8494 226.765 74.8068 227.014 74.7216C227.262 74.6328 227.477 74.5014 227.658 74.3274C227.839 74.1534 227.978 73.9386 228.074 73.6829L229.581 73.9545C229.46 74.3984 229.244 74.7873 228.931 75.1211C228.622 75.4513 228.234 75.7088 227.765 75.8935C227.3 76.0746 226.769 76.1651 226.172 76.1651ZM231.45 76V67.8182H232.989V69.1179H233.074C233.223 68.6776 233.486 68.3313 233.863 68.0792C234.243 67.8235 234.672 67.6957 235.152 67.6957C235.251 67.6957 235.368 67.6992 235.503 67.7063C235.642 67.7134 235.75 67.7223 235.828 67.733V69.2564C235.764 69.2386 235.651 69.2191 235.487 69.1978C235.324 69.1729 235.161 69.1605 234.997 69.1605C234.621 69.1605 234.285 69.2404 233.99 69.4002C233.699 69.5565 233.468 69.7749 233.298 70.0554C233.127 70.3324 233.042 70.6484 233.042 71.0036V76H231.45ZM241.584 67.8182V69.0966H236.96V67.8182H241.584ZM238.228 76V66.87C238.228 66.3587 238.34 65.9343 238.563 65.5969C238.787 65.256 239.084 65.0021 239.453 64.8352C239.822 64.6648 240.224 64.5795 240.657 64.5795C240.976 64.5795 241.25 64.6062 241.477 64.6594C241.704 64.7092 241.873 64.7553 241.983 64.7979L241.61 66.087C241.536 66.0657 241.44 66.0408 241.323 66.0124C241.205 65.9805 241.063 65.9645 240.896 65.9645C240.509 65.9645 240.232 66.0604 240.066 66.2521C239.902 66.4439 239.82 66.7209 239.82 67.0831V76H238.228ZM245.359 76.1811C244.84 76.1811 244.372 76.0852 243.953 75.8935C243.534 75.6982 243.202 75.4158 242.957 75.0465C242.715 74.6772 242.594 74.2244 242.594 73.6882C242.594 73.2266 242.683 72.8466 242.861 72.5483C243.038 72.25 243.278 72.0138 243.58 71.8398C243.882 71.6658 244.219 71.5344 244.592 71.4457C244.965 71.3569 245.345 71.2894 245.732 71.2433C246.222 71.1864 246.62 71.1403 246.925 71.1048C247.23 71.0657 247.452 71.0036 247.591 70.9183C247.729 70.8331 247.799 70.6946 247.799 70.5028V70.4656C247.799 70.0004 247.667 69.6399 247.404 69.3842C247.145 69.1286 246.758 69.0007 246.243 69.0007C245.707 69.0007 245.284 69.1197 244.975 69.3576C244.67 69.592 244.459 69.853 244.342 70.1406L242.845 69.7997C243.022 69.3026 243.282 68.9013 243.622 68.5959C243.967 68.2869 244.363 68.0632 244.81 67.9247C245.258 67.7827 245.728 67.7116 246.222 67.7116C246.549 67.7116 246.895 67.7507 247.261 67.8288C247.63 67.9034 247.974 68.0419 248.294 68.2443C248.617 68.4467 248.882 68.7362 249.088 69.1126C249.294 69.4854 249.397 69.9702 249.397 70.5668V76H247.841V74.8814H247.777C247.674 75.0874 247.52 75.2898 247.314 75.4886C247.108 75.6875 246.843 75.8526 246.52 75.984C246.197 76.1154 245.81 76.1811 245.359 76.1811ZM245.705 74.9027C246.146 74.9027 246.522 74.8157 246.834 74.6417C247.15 74.4677 247.39 74.2404 247.554 73.9599C247.72 73.6758 247.804 73.3722 247.804 73.049V71.9943C247.747 72.0511 247.637 72.1044 247.474 72.1541C247.314 72.2003 247.131 72.2411 246.925 72.2766C246.719 72.3086 246.518 72.3388 246.323 72.3672C246.128 72.392 245.964 72.4134 245.833 72.4311C245.524 72.4702 245.242 72.5359 244.986 72.6282C244.734 72.7205 244.532 72.8537 244.379 73.0277C244.23 73.1982 244.155 73.4254 244.155 73.7095C244.155 74.1037 244.301 74.402 244.592 74.6044C244.883 74.8033 245.254 74.9027 245.705 74.9027ZM254.964 76.1651C254.172 76.1651 253.491 75.9858 252.919 75.6271C252.351 75.2649 251.914 74.766 251.608 74.1303C251.303 73.4947 251.15 72.7667 251.15 71.9464C251.15 71.1154 251.307 70.3821 251.619 69.7464C251.932 69.1072 252.372 68.6083 252.94 68.2496C253.508 67.891 254.178 67.7116 254.948 67.7116C255.57 67.7116 256.124 67.8271 256.61 68.0579C257.097 68.2852 257.489 68.6048 257.787 69.0167C258.089 69.4286 258.269 69.9098 258.325 70.4602H256.775C256.69 70.0767 256.495 69.7464 256.189 69.4695C255.888 69.1925 255.483 69.054 254.975 69.054C254.531 69.054 254.142 69.1712 253.808 69.4055C253.478 69.6364 253.221 69.9666 253.036 70.3963C252.851 70.8224 252.759 71.3267 252.759 71.9091C252.759 72.5057 252.85 73.0206 253.031 73.4538C253.212 73.8871 253.468 74.2227 253.798 74.4606C254.132 74.6985 254.524 74.8175 254.975 74.8175C255.277 74.8175 255.55 74.7624 255.795 74.6523C256.044 74.5387 256.252 74.3771 256.419 74.1676C256.589 73.9581 256.708 73.706 256.775 73.4112H258.325C258.269 73.9403 258.096 74.4126 257.809 74.8281C257.521 75.2436 257.136 75.5703 256.653 75.8082C256.173 76.0462 255.611 76.1651 254.964 76.1651ZM263.555 76.1651C262.749 76.1651 262.055 75.9929 261.472 75.6484C260.893 75.3004 260.446 74.8121 260.13 74.1836C259.817 73.5515 259.661 72.8111 259.661 71.9624C259.661 71.1243 259.817 70.3857 260.13 69.7464C260.446 69.1072 260.886 68.6083 261.451 68.2496C262.019 67.891 262.683 67.7116 263.443 67.7116C263.905 67.7116 264.352 67.788 264.785 67.9407C265.219 68.0934 265.608 68.3331 265.952 68.6598C266.296 68.9865 266.568 69.4109 266.767 69.9329C266.966 70.4513 267.065 71.0817 267.065 71.8239V72.3885H260.561V71.1953H265.505C265.505 70.7763 265.419 70.4052 265.249 70.082C265.078 69.7553 264.839 69.4979 264.53 69.3097C264.224 69.1214 263.866 69.0273 263.454 69.0273C263.006 69.0273 262.616 69.1374 262.282 69.3576C261.952 69.5742 261.696 69.8583 261.515 70.2099C261.337 70.5579 261.248 70.9361 261.248 71.3445V72.2766C261.248 72.8235 261.344 73.2887 261.536 73.6722C261.731 74.0558 262.003 74.3487 262.351 74.5511C262.699 74.75 263.106 74.8494 263.571 74.8494C263.873 74.8494 264.148 74.8068 264.397 74.7216C264.645 74.6328 264.86 74.5014 265.041 74.3274C265.222 74.1534 265.361 73.9386 265.457 73.6829L266.964 73.9545C266.843 74.3984 266.627 74.7873 266.314 75.1211C266.005 75.4513 265.616 75.7088 265.148 75.8935C264.682 76.0746 264.152 76.1651 263.555 76.1651ZM274.963 69.8157L273.52 70.0714C273.46 69.8867 273.364 69.7109 273.232 69.544C273.104 69.3771 272.93 69.2404 272.71 69.1339C272.49 69.0273 272.215 68.9741 271.885 68.9741C271.434 68.9741 271.057 69.0753 270.755 69.2777C270.453 69.4766 270.303 69.734 270.303 70.0501C270.303 70.3235 270.404 70.5437 270.606 70.7106C270.809 70.8775 271.135 71.0142 271.586 71.1207L272.886 71.419C273.639 71.593 274.2 71.8612 274.569 72.2234C274.939 72.5856 275.123 73.0561 275.123 73.6349C275.123 74.125 274.981 74.5618 274.697 74.9453C274.417 75.3253 274.024 75.6236 273.52 75.8402C273.019 76.0568 272.439 76.1651 271.778 76.1651C270.862 76.1651 270.114 75.9698 269.536 75.5792C268.957 75.185 268.602 74.6257 268.47 73.9013L270.01 73.6669C270.105 74.0682 270.303 74.3718 270.601 74.5778C270.899 74.7802 271.288 74.8814 271.767 74.8814C272.289 74.8814 272.707 74.7731 273.019 74.5565C273.332 74.3363 273.488 74.0682 273.488 73.7521C273.488 73.4964 273.392 73.2816 273.2 73.1076C273.012 72.9336 272.723 72.8022 272.332 72.7134L270.947 72.4098C270.184 72.2358 269.619 71.9588 269.253 71.5788C268.891 71.1989 268.71 70.7177 268.71 70.1353C268.71 69.6523 268.845 69.2298 269.115 68.8675C269.385 68.5053 269.757 68.223 270.233 68.0206C270.709 67.8146 271.254 67.7116 271.869 67.7116C272.753 67.7116 273.449 67.9034 273.957 68.2869C274.464 68.6669 274.8 69.1765 274.963 69.8157Z" fill="#5C6477"/>
<defs>
<linearGradient id="paint0_linear_1_2" x1="0" y1="60" x2="400" y2="60" gradientUnits="userSpaceOnUse">
<stop stop-color="#5C6477"/>
<stop offset="1" stop-color="#5C6477" stop-opacity="0.4"/>
</linearGradient>
</defs>
</svg>
